<svg id="Capa_1" enable-background="new 0 0 512 512" height="512" viewBox="0 0 512 512" width="512" xmlns="http://www.w3.org/2000/svg"><g><path d="m403.687 60.992v435.008c0 8.837-7.163 16-16 16h-311.297l-20.739-21.609 5.479-428.956 15.995-16.443h310.563c8.835 0 15.999 7.163 15.999 16z" fill="#b289c9"/><path d="m108.216 88.26h246.202c3.314 0 6 2.686 6 6v368.473c0 3.314-2.686 6-6 6h-246.723z" fill="#f2fbff"/><path d="m304.069 38.68v45.77c0 4.55-3.69 8.24-8.24 8.24h-21.55l-6.345-3.386-8.655 3.386h-12.81l-7.5-4.43-7.5 4.43h-12.82l-6.672-2.799-8.328 2.799h-12.81l-5.862-3.581-9.138 3.581h-11.666l-1.826-62.25h5.832c4.55 0 8.24-3.69 8.24-8.25v-13.95c0-4.55 3.69-8.24 8.24-8.24h80.8c4.56 0 8.25 3.69 8.25 8.24v13.95c0 4.56 3.69 8.25 8.24 8.25h13.88c4.55 0 8.24 3.68 8.24 8.24z" fill="#ffe177"/><path d="m321.753 364.324h-130.924c-4.142 0-7.5-3.357-7.5-7.5s3.358-7.5 7.5-7.5h130.924c4.142 0 7.5 3.357 7.5 7.5s-3.358 7.5-7.5 7.5z" fill="#918291"/><path d="m294.216 301.174h-103.387c-4.142 0-7.5-3.357-7.5-7.5s3.358-7.5 7.5-7.5h103.387c4.142 0 7.5 3.357 7.5 7.5s-3.358 7.5-7.5 7.5z" fill="#918291"/><path d="m321.753 238.014h-130.924c-4.142 0-7.5-3.357-7.5-7.5s3.358-7.5 7.5-7.5h130.924c4.142 0 7.5 3.357 7.5 7.5s-3.358 7.5-7.5 7.5z" fill="#918291"/><path d="m465.56 293.669c0 45.625-34.01 83.308-78.048 89.116-3.883.512-7.751-.98-11.774-.98-49.647 0-76.826-38.488-76.826-88.136s27.106-88.636 76.754-88.636c4.018 0 7.967-.991 11.846-.48 44.045 5.802 78.048 43.487 78.048 89.116z" fill="#c1e9af"/><path d="m387.512 382.784c-3.874.515-7.829.783-11.847.783-49.644 0-89.894-40.249-89.894-89.894 0-49.655 40.249-89.904 89.894-89.904 4.018 0 7.974.268 11.847.783-44.04 5.789-78.047 43.484-78.047 89.121.001 45.627 34.007 83.322 78.047 89.111z" fill="#ade194"/><path d="m85.587 512h-22.664c-9.107 0-16.483-7.376-16.483-16.483v-434.046c0-9.097 7.376-16.483 16.483-16.483h22.664c-9.107 0-16.483 7.386-16.483 16.483v434.046c0 9.107 7.376 16.483 16.483 16.483z" fill="#a274bf"/><path d="m118.552 468.732h-22.664c-3.42 0-6.181-2.771-6.181-6.181v-368.114c0-3.41 2.761-6.181 6.181-6.181h22.664c-3.42 0-6.181 2.771-6.181 6.181v368.115c0 3.409 2.761 6.18 6.181 6.18z" fill="#dff6fd"/><path d="m174.893 92.696h-20.604c-4.543 0-8.241-3.688-8.241-8.241v-45.782c0-4.543 3.698-8.241 8.241-8.241h13.887c.711 0 1.391-.093 2.05-.258-2.153 1.535-3.575 4.09-3.575 6.985v47.059c.001 4.687 3.699 8.478 8.242 8.478z" fill="#ffd15b"/><g fill="#c1e9af"><circle cx="144.495" cy="230.514" r="16.125"/><circle cx="144.495" cy="293.669" r="16.125"/><circle cx="144.495" cy="356.823" r="16.125"/><circle cx="144.495" cy="419.978" r="16.125"/></g><g fill="#fe76a8"><path d="m163.068 173.653c-3.688.021-7.58.036-10.791.042v-44.853c0-4.143-3.358-7.5-7.5-7.5s-7.5 3.357-7.5 7.5v52.311c0 3.651 2.629 6.771 6.228 7.392.537.092.91.156 6.795.156 2.815 0 6.893-.015 12.853-.048 4.142-.023 7.481-3.4 7.458-7.542-.025-4.141-3.417-7.477-7.543-7.458z"/><path d="m190.925 121.343c-4.142 0-7.5 3.357-7.5 7.5v52.354c0 4.143 3.358 7.5 7.5 7.5s7.5-3.357 7.5-7.5v-52.354c0-4.143-3.358-7.5-7.5-7.5z"/><path d="m244.126 148.396c-6.267-2.311-12.113-4.825-14.076-5.683-.917-.803-.931-1.857-.846-2.451.107-.742.661-2.562 3.495-3.416 6.856-2.062 13.311 2.984 13.528 3.157 3.17 2.625 7.87 2.204 10.522-.952 2.666-3.171 2.256-7.901-.915-10.567-.51-.43-12.667-10.455-27.463-6-7.587 2.286-12.958 8.281-14.015 15.646-.996 6.934 2.011 13.604 7.846 17.409.332.216.68.406 1.041.567.304.136 7.542 3.357 15.691 6.363 1.615.595 6.838 2.793 6.254 6.062-.444 2.484-3.707 5.165-8.205 5.165-4.939 0-9.682-1.98-12.687-5.297-2.78-3.069-7.523-3.303-10.594-.521-3.069 2.781-3.303 7.524-.521 10.594 5.888 6.498 14.563 10.225 23.802 10.225 11.497 0 21.158-7.372 22.971-17.528 1.373-7.681-2.065-17.696-15.828-22.773z"/><path d="m305.346 121.343h-28.913c-4.142 0-7.5 3.357-7.5 7.5s3.358 7.5 7.5 7.5h6.898v44.854c0 4.143 3.358 7.5 7.5 7.5s7.5-3.357 7.5-7.5v-44.854h7.015c4.142 0 7.5-3.357 7.5-7.5s-3.358-7.5-7.5-7.5z"/></g><path d="m190.839 72.54v20.15h-15v-20.15c0-4.14 3.36-7.5 7.5-7.5s7.5 3.36 7.5 7.5z" fill="#ffd15b"/><path d="m218.649 72.54v20.15h-15v-20.15c0-4.14 3.36-7.5 7.5-7.5 4.15 0 7.5 3.36 7.5 7.5z" fill="#ffd15b"/><path d="m246.469 72.54v20.15h-15v-20.15c0-4.14 3.36-7.5 7.5-7.5s7.5 3.36 7.5 7.5z" fill="#ffd15b"/><path d="m274.279 72.54v20.15h-15v-20.15c0-4.14 3.36-7.5 7.5-7.5 4.15 0 7.5 3.36 7.5 7.5z" fill="#ffd15b"/><path d="m359.721 330.749c-2.448 0-4.896-.932-6.76-2.795l-26.678-26.678c-2.929-2.93-2.929-7.678 0-10.607 2.929-2.928 7.678-2.928 10.606 0l22.832 22.832 54.72-54.721c2.929-2.928 7.678-2.928 10.606 0 2.929 2.93 2.929 7.678 0 10.607l-58.566 58.566c-1.864 1.864-4.312 2.796-6.76 2.796z" fill="#ade194"/><path d="m321.753 427.478h-130.929c-4.142 0-7.5-3.357-7.5-7.5s3.358-7.5 7.5-7.5h130.929c4.142 0 7.5 3.357 7.5 7.5s-3.358 7.5-7.5 7.5z" fill="#918291"/></g></svg>