<?xml version="1.0" encoding="iso-8859-1"?>
<!-- Generator: Adobe Illustrator 19.0.0, SVG Export Plug-In . SVG Version: 6.00 Build 0)  -->
<svg version="1.1" id="Capa_1" xmlns="http://www.w3.org/2000/svg" xmlns:xlink="http://www.w3.org/1999/xlink" x="0px" y="0px"
	 viewBox="0 0 512 512" style="enable-background:new 0 0 512 512;" xml:space="preserve">
<path style="fill:#424C59;" d="M405.162,33.511v444.98c0,18.5-15.009,33.509-33.521,33.509H42.345
	c-18.512,0-33.509-15.009-33.509-33.509V33.511C8.836,15,23.834,0.002,42.345,0.002h329.296
	C390.153,0.002,405.162,15.001,405.162,33.511z"/>
<path style="fill:#EAEAEA;" d="M405.162,33.509v52.618H8.838V33.509C8.838,14.999,23.835,0,42.347,0h329.294
	C390.153,0,405.162,14.999,405.162,33.509z"/>
<circle style="fill:#F9572B;" cx="62.22" cy="42.22" r="17.259"/>
<circle style="fill:#FCC63D;" cx="120.332" cy="42.22" r="17.259"/>
<g>
	<circle style="fill:#45B8C4;" cx="178.434" cy="42.22" r="17.259"/>
	<circle style="fill:#45B8C4;" cx="403.836" cy="158.549" r="99.328"/>
</g>
<path style="fill:#FCC63D;" d="M265.857,155.525H91.778c-4.332,0-7.842-3.511-7.842-7.842c0-4.331,3.51-7.842,7.842-7.842h174.078
	c4.332,0,7.842,3.511,7.842,7.842C273.697,152.014,270.187,155.525,265.857,155.525z"/>
<path style="fill:#FFFFFF;" d="M56.759,155.52c-7.185,0-10.584-9.333-4.979-13.897c5.543-4.514,14.119,0.481,12.665,7.592
	C63.705,152.835,60.46,155.52,56.759,155.52z"/>
<path style="fill:#FCC63D;" d="M265.857,243.147H91.778c-4.332,0-7.842-3.511-7.842-7.842c0-4.331,3.51-7.842,7.842-7.842h174.078
	c4.332,0,7.842,3.511,7.842,7.842C273.697,239.636,270.187,243.147,265.857,243.147z"/>
<g>
	<path style="fill:#FFFFFF;" d="M56.759,243.148c-3.281,0-6.273-2.12-7.385-5.204c-1.094-3.035-0.162-6.542,2.307-8.624
		c5.254-4.433,13.57-0.118,12.881,6.753C64.166,240.027,60.733,243.148,56.759,243.148z"/>
	<path style="fill:#FFFFFF;" d="M336.428,286.958h-49.135c-4.332,0-7.842-3.511-7.842-7.842c0-4.331,3.51-7.842,7.842-7.842h49.135
		c4.332,0,7.842,3.511,7.842,7.842C344.269,283.447,340.758,286.958,336.428,286.958z"/>
</g>
<path style="fill:#F9572B;" d="M261.151,286.958h-91.479c-4.332,0-7.842-3.511-7.842-7.842c0-4.331,3.51-7.842,7.842-7.842h91.479
	c4.332,0,7.842,3.511,7.842,7.842C268.993,283.447,265.482,286.958,261.151,286.958z"/>
<g>
	<path style="fill:#FFFFFF;" d="M143.531,286.958H91.778c-4.332,0-7.842-3.511-7.842-7.842c0-4.331,3.51-7.842,7.842-7.842h51.753
		c4.332,0,7.842,3.511,7.842,7.842C151.373,283.447,147.863,286.958,143.531,286.958z"/>
	<path style="fill:#FFFFFF;" d="M56.759,286.958c-7.071,0-10.494-9.039-5.193-13.717c5.281-4.66,13.871-0.173,12.973,6.846
		C64.043,283.953,60.669,286.958,56.759,286.958z"/>
</g>
<path style="fill:#FCC63D;" d="M218.808,330.769H91.778c-4.332,0-7.842-3.511-7.842-7.842c0-4.331,3.51-7.842,7.842-7.842h127.029
	c4.332,0,7.842,3.511,7.842,7.842C226.649,327.258,223.139,330.769,218.808,330.769z"/>
<path style="fill:#FFFFFF;" d="M56.759,330.767c-3.139,0-6.043-1.945-7.246-4.841c-1.359-3.273-0.291-7.169,2.557-9.285
	c5.704-4.236,13.966,1.063,12.321,8.055C63.568,328.203,60.371,330.767,56.759,330.767z"/>
<path style="fill:#F9572B;" d="M297.221,374.58h-24.044c-4.332,0-7.842-3.511-7.842-7.842c0-4.331,3.51-7.842,7.842-7.842h24.044
	c4.332,0,7.842,3.511,7.842,7.842C305.063,371.069,301.552,374.58,297.221,374.58z"/>
<path style="fill:#FCC63D;" d="M247.037,374.58h-69.524c-4.332,0-7.842-3.511-7.842-7.842c0-4.331,3.51-7.842,7.842-7.842h69.524
	c4.332,0,7.842,3.511,7.842,7.842C254.879,371.069,251.368,374.58,247.037,374.58z"/>
<g>
	<path style="fill:#FFFFFF;" d="M151.372,374.58H91.778c-4.332,0-7.842-3.511-7.842-7.842c0-4.331,3.51-7.842,7.842-7.842h59.594
		c4.332,0,7.842,3.511,7.842,7.842C159.213,371.069,155.703,374.58,151.372,374.58z"/>
	<path style="fill:#FFFFFF;" d="M56.759,374.576c-7.06,0-10.493-9.01-5.213-13.7c5.281-4.691,13.889-0.186,12.992,6.833
		C64.044,371.578,60.668,374.576,56.759,374.576z"/>
	<path style="fill:#FFFFFF;" d="M333.292,418.39H221.424c-4.332,0-7.842-3.511-7.842-7.842s3.51-7.842,7.842-7.842h111.868
		c4.332,0,7.842,3.511,7.842,7.842S337.623,418.39,333.292,418.39z"/>
</g>
<path style="fill:#F9572B;" d="M195.283,418.39H91.778c-4.332,0-7.842-3.511-7.842-7.842s3.51-7.842,7.842-7.842h103.505
	c4.332,0,7.842,3.511,7.842,7.842S199.615,418.39,195.283,418.39z"/>
<path style="fill:#FFFFFF;" d="M56.759,418.395c-7.005,0-10.47-8.936-5.272-13.656c5.174-4.698,13.786-0.431,13.074,6.577
	C64.16,415.264,60.735,418.395,56.759,418.395z"/>
<path style="fill:#F9572B;" d="M143.531,462.201H91.778c-4.332,0-7.842-3.511-7.842-7.842s3.51-7.842,7.842-7.842h51.753
	c4.332,0,7.842,3.511,7.842,7.842S147.863,462.201,143.531,462.201z"/>
<path style="fill:#FFFFFF;" d="M56.759,462.204c-3.277,0-6.282-2.121-7.385-5.204c-1.165-3.253-0.002-7.024,2.827-9.024
	c5.628-3.978,13.649,1.047,12.244,7.912C63.703,459.507,60.461,462.204,56.759,462.204z"/>
<path style="fill:#F9572B;" d="M130.984,199.336H91.778c-4.332,0-7.842-3.511-7.842-7.842c0-4.331,3.51-7.842,7.842-7.842h39.206
	c4.332,0,7.842,3.511,7.842,7.842C138.826,195.825,135.316,199.336,130.984,199.336z"/>
<g>
	<path style="fill:#FFFFFF;" d="M234.491,199.336h-75.276c-4.332,0-7.842-3.511-7.842-7.842c0-4.331,3.51-7.842,7.842-7.842h75.276
		c4.332,0,7.842,3.511,7.842,7.842C242.332,195.825,238.821,199.336,234.491,199.336z"/>
	<path style="fill:#FFFFFF;" d="M56.759,199.34c-3.218,0-6.156-2.04-7.315-5.03c-1.234-3.183-0.205-6.899,2.487-8.996
		c5.573-4.342,13.949,0.707,12.513,7.711C63.703,196.642,60.461,199.34,56.759,199.34z"/>
	<path style="fill:#FFFFFF;" d="M399.132,211.085c-2.119,0-4.168-0.859-5.656-2.411l-37.638-39.206
		c-3-3.124-2.897-8.088,0.226-11.087c3.124-2.999,8.087-2.897,11.087,0.227l30.107,31.362l41.983-79.768
		c2.017-3.832,6.76-5.305,10.592-3.287c3.832,2.017,5.304,6.759,3.287,10.592l-47.048,89.391c-1.173,2.23-3.347,3.76-5.843,4.112
		C399.863,211.059,399.496,211.085,399.132,211.085z"/>
</g>
<g>
</g>
<g>
</g>
<g>
</g>
<g>
</g>
<g>
</g>
<g>
</g>
<g>
</g>
<g>
</g>
<g>
</g>
<g>
</g>
<g>
</g>
<g>
</g>
<g>
</g>
<g>
</g>
<g>
</g>
</svg>
