<svg id="Layer_1" enable-background="new 0 0 512 512" height="512" viewBox="0 0 512 512" width="512" xmlns="http://www.w3.org/2000/svg"><g><g><g><g><g><path d="m417.874 504.5h-348.439c-22.781 0-41.248-18.562-41.248-41.46v-455.54h389.687z" fill="#e9f2ff"/></g></g><path d="m367.874 7.5h50v497h-50z" fill="#deebff"/><g><path d="m106.055 464.848c0 21.899-17.662 39.652-39.449 39.652h-.736 378.494c21.787 0 39.449-17.753 39.449-39.652z" fill="#91a8dd"/></g><path d="m433.813 464.848c0 21.899-17.662 39.652-39.449 39.652h50c21.787 0 39.449-17.753 39.449-39.652z" fill="#7c96d1"/></g><g fill="#ffba47"><path d="m98.89 313.975h101.882v55.126h-101.882z"/><path d="m242.121 313.975h101.882v55.126h-101.882z"/></g></g><g><path d="m483.813 457.349h-58.439v-449.849c0-4.142-3.357-7.5-7.5-7.5h-389.687c-4.142 0-7.5 3.358-7.5 7.5v69.576c0 9.813 15 9.385 15 0v-62.076h374.687v442.349h-17.397c-9.386 0-9.813 15 0 15h82.459c-3.367 14.122-16.02 24.651-31.072 24.651h-343.446c6.226-6.696 10.535-15.209 12.044-24.651h240.205c9.386 0 9.813-15 0-15h-247.112c-4.142 0-7.5 3.358-7.5 7.5 0 17.251-13.572 31.368-30.535 32.115-17.955-.75-32.333-15.676-32.333-33.924v-346.04c0-9.813-15-9.385-15 0v346.04c0 24.237 20.478 48.96 45.919 48.96h377.758c25.888 0 46.949-21.152 46.949-47.151 0-4.142-3.357-7.5-7.5-7.5z"/><path d="m99.997 146.872h244.006c9.931-.344 9.923-14.66 0-15h-244.006c-9.931.344-9.923 14.659 0 15z"/><path d="m99.997 100.744h244.006c9.931-.344 9.923-14.66 0-15h-244.006c-9.931.344-9.923 14.659 0 15z"/><path d="m99.997 193h244.006c9.931-.344 9.923-14.66 0-15h-244.006c-9.931.344-9.923 14.659 0 15z"/><path d="m99.997 239.128h174.731c9.931-.344 9.923-14.66 0-15h-174.731c-9.931.344-9.923 14.659 0 15z"/><path d="m91.39 369.102c0 4.142 3.358 7.5 7.5 7.5h101.882c4.142 0 7.5-3.358 7.5-7.5v-55.126c0-4.142-3.358-7.5-7.5-7.5h-101.882c-4.142 0-7.5 3.358-7.5 7.5zm15-47.627h86.882v40.126h-86.882z"/><path d="m351.503 369.102v-55.126c0-4.142-3.357-7.5-7.5-7.5h-101.882c-4.142 0-7.5 3.358-7.5 7.5v55.126c0 4.142 3.358 7.5 7.5 7.5h101.882c4.142 0 7.5-3.358 7.5-7.5zm-15-7.5h-86.882v-40.126h86.882z"/><path d="m112.782 397.239c-9.931.344-9.923 14.659 0 15h74.098c9.931-.344 9.923-14.659 0-15z"/><path d="m256.013 397.239c-9.931.344-9.923 14.659 0 15h74.098c9.931-.344 9.923-14.66 0-15z"/></g></g></svg>