<svg id="Layer_1" enable-background="new 0 0 511.96 511.96" height="512" viewBox="0 0 511.96 511.96" width="512" xmlns="http://www.w3.org/2000/svg"><g id="XMLID_1188_"><path id="XMLID_1056_" d="m311.36 299.479c17.064 4.792 33.157 13.961 46.505 27.509 40.177 40.778 39.081 108.131-1.04 148.964-23.431 22.461-58.42 31.447-89.708 22.811-54.467-15.033-105.903-43.953-148.711-86.761-108.886-108.885-127.921-273.596-57.107-402.001 9.293 73.446 42.14 144.481 98.54 200.881 43.632 43.632 96.023 73.168 151.513 88.607z" fill="#a0e5a5"/><g id="XMLID_26_"><g id="XMLID_395_"><g id="XMLID_36_"><path id="XMLID_38_" d="m90.41 313.483c-.414 0 .422.053 0 0z"/><path id="XMLID_39_" d="m492.528 452.001c-34.678 0-68.873-3.851-102.053-11.246 4.455-12.393 6.847-25.614 6.981-39.207.307-31.045-11.224-60.017-32.468-81.579-14.096-14.307-31.706-24.722-50.925-30.118-.167-.047-.333-.089-.501-.127-48.523-13.576-92.385-37.347-130.368-70.659-4.153-3.642-10.47-3.228-14.112.924-3.641 4.152-3.228 10.471.925 14.112 13.841 12.138 28.419 23.081 43.681 32.8 9.04 17.47 13.501 37.038 12.906 56.809-.166 5.521 4.175 10.13 9.695 10.296.102.003.204.004.306.004 5.384 0 9.827-4.282 9.99-9.7.424-14.085-1.352-28.083-5.181-41.499 16.489 8.492 33.667 15.676 51.479 21.52 10.281 16.672 16.195 35.663 17.133 55.15.257 5.353 4.678 9.519 9.98 9.519.162 0 .326-.004.489-.012 5.516-.266 9.773-4.953 9.507-10.469-.755-15.691-4.271-31.099-10.287-45.543 11.562 4.863 22.143 12.004 31.035 21.029 26.915 27.317 33.6 67.637 20.248 101.969-105.986-28.425-200.206-93.491-264.417-185.688-3.157-4.532-9.388-5.646-13.921-2.491-4.532 3.156-5.647 9.389-2.491 13.921 44.26 63.551 103.696 116.388 171.881 152.798 31.577 16.861 65.021 30.146 99.55 39.686-3.397 5.159-7.322 10.069-11.794 14.635-20.915 19.974-52.305 27.937-80.02 20.287-32.575-8.99-63.558-23.067-91.793-41.539 9.23-.922 18.379-2.788 27.387-5.642 5.265-1.667 8.181-7.288 6.514-12.553-1.668-5.264-7.285-8.179-12.553-6.514-15.964 5.057-32.438 6.555-49.01 4.475-8.634-7.032-16.934-14.51-24.845-22.421-29.235-29.235-51.981-63.156-67.965-99.648 10.306 4.022 21.717 6.799 32.898 8.199 4.968 0 9.904-3.661 10.537-8.719.687-5.48-3.199-10.479-8.68-11.165-16.211-2.031-31.447-7.341-45.352-15.787-25.474-75.975-23.051-160.33 9.755-235.768 9.607 44.114 27.614 86.349 52.852 123.601 3.098 4.571 9.314 5.768 13.888 2.67 4.572-3.098 5.768-9.315 2.67-13.888-29.302-43.25-48.273-93.626-54.859-145.677-.543-4.295-3.789-7.753-8.042-8.566-4.251-.816-8.545 1.201-10.636 4.993-18.01 32.655-30.573 67.879-37.342 104.691-6.67 36.275-7.56 73.213-2.646 109.789 10.219 76.058 44.377 145.017 98.78 199.421 42.531 42.531 95.48 73.42 153.122 89.33 8.678 2.395 17.644 3.557 26.619 3.557 26.517 0 53.095-10.146 72.445-28.578.112-.103.228-.195.338-.303.097-.095.177-.196.269-.293 6.948-7.101 12.885-14.976 17.744-23.435 36.169 8.358 73.342 12.651 110.658 12.651 5.523 0 10-4.477 10-10s-4.478-10.002-10.001-10.002z"/></g><path id="XMLID_397_" d="m145.414 205.561c2.63 0 5.21-1.07 7.07-2.93s2.93-4.44 2.93-7.07-1.07-5.21-2.93-7.07-4.44-2.93-7.07-2.93-5.21 1.07-7.07 2.93-2.93 4.44-2.93 7.07c0 2.64 1.07 5.21 2.93 7.07s4.44 2.93 7.07 2.93z"/></g></g></g></svg>