<svg id="Layer_1" enable-background="new 0 0 496.26 496.26" height="512" viewBox="0 0 496.26 496.26" width="512" xmlns="http://www.w3.org/2000/svg"><path d="m451.063 36.399h-167.3c-16.122 0-29.197 13.075-29.197 29.197v394.163h196.498c16.122 0 29.197-13.075 29.197-29.197v-364.966c-.001-16.122-13.076-29.197-29.198-29.197z" fill="#caf1fc"/><path d="m376.911 36.399h-167.301c-16.122 0-29.197 13.075-29.197 29.197v394.163h196.498c16.122 0 29.197-13.075 29.197-29.197v-364.966c0-16.122-13.075-29.197-29.197-29.197z" fill="#d6f4fc"/><path d="m302.758 36.399h-257.3c-16.122 0-29.197 13.075-29.197 29.197v304.746l89.417 89.417h197.081c16.122 0 29.197-13.075 29.197-29.197v-364.966c0-16.122-13.075-29.197-29.198-29.197z" fill="#e8f8fc"/><path d="m304.015 82.02h-212.937c-16.125 0-29.197 13.072-29.197 29.197v304.746l-45.621-45.62v-304.747c0-16.125 13.072-29.197 29.197-29.197h257.301c7.35 0 12.849 2.358 16.965 6.018 15.506 13.792 5.044 39.603-15.708 39.603z" fill="#f1fafc"/><path d="m105.677 384.941v74.818l-89.417-89.416h74.818c8.063 0 14.599 6.536 14.599 14.598z" fill="#d6f4fc"/><path d="m302.765 20.395h-257.307c-24.922 0-45.198 20.275-45.198 45.197 0 329.751-1.925 309.456 4.692 316.073 96.335 96.334 90.227 90.74 93.596 92.406 4.818 2.418-8.366 1.692 204.216 1.692 24.922 0 45.198-20.275 45.198-45.197v-364.974c.001-24.922-20.275-45.197-45.197-45.197zm-213.086 400.742-34.791-34.791h34.791zm226.284 9.429c0 7.277-5.92 13.197-13.198 13.197h-181.086v-73.418c0-8.837-7.164-16-16-16h-73.419v-288.753c0-7.277 5.92-13.197 13.198-13.197h257.307c7.277 0 13.198 5.92 13.198 13.197zm106.149-364.974v364.975c0 24.922-20.276 45.197-45.198 45.197-8.836 0-16-7.163-16-16s7.164-16 16-16c7.277 0 13.198-5.92 13.198-13.197v-364.975c0-7.277-5.92-13.197-13.198-13.197-8.836 0-16-7.163-16-16s7.164-16 16-16c24.922 0 45.198 20.275 45.198 45.197zm74.148 0v364.975c0 24.922-20.275 45.197-45.198 45.197-8.836 0-16-7.163-16-16s7.164-16 16-16c7.277 0 13.198-5.92 13.198-13.197v-364.975c0-7.277-5.92-13.197-13.198-13.197-8.836 0-16-7.163-16-16s7.164-16 16-16c24.923 0 45.198 20.275 45.198 45.197z" fill="#4c3546"/></svg>