<?xml version="1.0" encoding="iso-8859-1"?>
<!-- Generator: Adobe Illustrator 19.0.0, SVG Export Plug-In . SVG Version: 6.00 Build 0)  -->
<svg version="1.1" id="Capa_1" xmlns="http://www.w3.org/2000/svg" xmlns:xlink="http://www.w3.org/1999/xlink" x="0px" y="0px"
	 viewBox="0 0 511.76 511.76" style="enable-background:new 0 0 511.76 511.76;" xml:space="preserve">
<polygon style="fill:#E95454;" points="151.352,221.248 39.592,431.808 141.08,422.432 190.2,511.744 301.96,301.184 "/>
<g>
	<path style="fill:#ED6362;" d="M164.152,450.432c3.136-6.736-0.144-14.784-6.704-18.272l-6.432-3.424
		c-6.432-3.664-8.88-11.808-5.376-18.4c3.552-6.704,11.904-9.264,18.608-5.712l18.176,9.648c5.616,2.976,12.656,0.816,15.552-4.832
		l0.448-0.864c3.328-5.328,1.36-12.368-4.176-15.296l-54.368-28.848c-6.624-3.52-9.872-11.536-6.784-18.288
		c3.408-7.184,12.016-10.016,18.944-6.336l50.432,26.768c5.616,2.976,12.656,0.816,15.632-4.8l0.288-0.736l0.08-0.16
		c3.216-5.888,0.96-13.28-4.976-16.432l-28.288-15.008c-6.624-3.52-9.872-11.536-6.736-18.368
		c3.376-7.104,12.016-10.016,18.944-6.336l31.248,16.592c5.84,3.104,12.816,0.512,15.84-5.376c0.048-0.08,0.048-0.08,0.08-0.16
		c0.048-0.08,0.048-0.08,0.08-0.16c3.184-5.808,1.424-13.04-4.432-16.128l-33.712-17.888c-6.544-3.472-9.792-11.488-6.704-18.24
		c3.408-7.184,12.016-10.016,18.944-6.336l83.168,44.144l-111.76,210.56l-30.8-55.984
		C161.352,454.416,163.08,452.752,164.152,450.432z"/>
	<polygon style="fill:#ED6362;" points="360.408,221.248 472.168,431.808 370.68,422.432 321.56,511.744 209.8,301.184 	"/>
</g>
<path style="fill:#E95454;" d="M347.608,450.432c-3.136-6.736,0.144-14.784,6.704-18.272l6.432-3.424
	c6.432-3.664,8.88-11.808,5.376-18.4c-3.552-6.704-11.904-9.264-18.608-5.712l-18.176,9.648c-5.616,2.976-12.656,0.816-15.552-4.832
	l-0.448-0.864c-3.328-5.328-1.36-12.368,4.176-15.296l54.384-28.864c6.624-3.52,9.872-11.536,6.784-18.288
	c-3.408-7.184-12.016-10.016-18.944-6.336l-50.432,26.768c-5.616,2.976-12.656,0.816-15.632-4.8l-0.288-0.736l-0.08-0.16
	c-3.216-5.888-0.96-13.28,4.976-16.432l28.288-15.008c6.624-3.52,9.872-11.536,6.736-18.368
	c-3.376-7.104-12.016-10.016-18.944-6.336l-31.28,16.624c-5.84,3.104-12.816,0.512-15.84-5.376c-0.048-0.08-0.048-0.08-0.08-0.16
	c-0.048-0.08-0.048-0.08-0.08-0.16c-3.184-5.808-1.424-13.04,4.432-16.128l33.712-17.888c6.544-3.472,9.792-11.488,6.704-18.24
	c-3.408-7.184-12.016-10.016-18.944-6.336L209.816,301.2l111.76,210.56l30.8-55.984C350.408,454.416,348.68,452.752,347.608,450.432
	z"/>
<circle style="fill:#FFCC5B;" cx="255.88" cy="186.736" r="186.736"/>
<path style="fill:#FDBC4B;" d="M281.208,165.312H162.872c-9.2,0-16.752-7.552-16.752-16.752l0.128-1.152v-0.256
	c-0.128-9.712,7.792-17.648,17.52-17.648h82.016c10.864,0,20.464-8.048,21.104-18.928C267.4,99.2,258.328,89.6,246.936,89.6h-86.88
	c-9.584,0-16.752-8.048-16.624-17.648c0-0.128,0-0.128,0-0.256s0-0.128,0-0.256c-0.128-9.584,7.024-17.648,16.624-17.648h90.912
	c10.736,0,20.336-8.048,20.976-18.8c0.512-11.504-8.56-20.976-19.952-20.976h-66.576C117.528,42,69.688,108.752,69.688,186.736
	s47.84,144.72,115.744,172.672h84.528c10.736,0,20.336-8.048,20.976-18.8c0.512-11.504-8.56-20.96-19.952-20.96l-96.16-0.016
	c-11.344,0-20.48-9.488-19.872-20.976c0.56-10.752,10.224-18.832,20.992-18.832h37.28c10.72-0.304,19.376-9.088,19.376-19.888
	c0-10.992-8.944-19.952-19.952-19.952h-56.512c-9.2,0-16.752-7.536-16.624-16.752v-1.408c-0.64-9.072,6.656-16.752,15.728-16.752
	h124.816c10.864,0,20.464-8.048,21.104-18.8C301.672,174.784,292.584,165.312,281.208,165.312z"/>
<path style="fill:#FFDB70;" d="M255.88,320.016c-73.504,0-133.296-59.808-133.296-133.296S182.376,53.44,255.88,53.44
	s133.296,59.808,133.296,133.296S329.384,320.016,255.88,320.016z"/>
<g>
	<path style="fill:#ED6362;" d="M191.656,239.504c-2.096,1.904-3.328,4.176-4.304,6.576c-0.928,2.416-1.6,4.96-1.424,7.808
		c0.192,2.864,1.36,6.016,1.52,8.848c0.032,0.368-0.064,0.72-0.048,1.072c-5.376-7.104-9.968-14.64-13.76-22.48
		c0.096-1.584,0.336-3.088,0.912-4.416c0.928-2.304,2.896-4.032,4.144-6.128c1.232-2.096,1.84-4.496,2.368-6.944
		c0.48-2.48,0.864-4.992,0.624-7.936c-0.224-0.144-0.464-0.288-0.688-0.448c-2.384,1.264-4.032,3.04-5.472,4.992
		c-1.376,1.984-2.56,4.128-3.008,6.752c-0.416,2.64,0,5.76-0.464,8.336c-0.08,0.496-0.304,0.928-0.432,1.408
		c-3.456-7.84-6.144-15.952-8.048-24.224c0.432-1.792,1.024-3.456,2-4.768c1.344-1.872,3.584-2.976,5.184-4.576
		c1.584-1.632,2.624-3.68,3.584-5.824c0.928-2.192,1.76-4.432,2.048-7.248c-0.192-0.192-0.384-0.384-0.576-0.576
		c-2.496,0.592-4.4,1.856-6.128,3.312c-1.696,1.488-3.216,3.216-4.16,5.504c-0.912,2.32-1.12,5.296-2.08,7.536
		c-0.24,0.608-0.624,1.072-0.944,1.616c-1.568-8.192-2.384-16.512-2.432-24.848c0.848-1.968,1.84-3.76,3.28-4.944
		c1.632-1.408,3.936-1.856,5.744-2.96c1.792-1.12,3.152-2.816,4.448-4.592c1.264-1.84,2.448-3.776,3.232-6.4
		c-0.144-0.24-0.288-0.464-0.432-0.704c-2.464-0.064-4.464,0.688-6.352,1.632c-1.856,1.008-3.616,2.224-4.912,4.176
		c-1.296,1.968-2.032,4.704-3.36,6.56c-0.448,0.656-1.008,1.136-1.552,1.648c0.288-8.144,1.296-16.272,3.024-24.304
		c0.08-0.128,0.16-0.24,0.24-0.368c1.296-1.968,2.736-3.712,4.544-4.592c1.776-0.928,3.984-0.752,5.872-1.36
		c1.872-0.624,3.44-1.904,4.976-3.328c1.504-1.472,2.96-3.056,4.192-5.44c-0.096-0.256-0.176-0.528-0.272-0.8
		c-2.256-0.656-4.24-0.416-6.16,0.032c-1.904,0.512-3.76,1.264-5.328,2.816c-1.568,1.584-2.784,4.032-4.368,5.44
		c-0.688,0.656-1.44,1.088-2.224,1.504c2.112-7.968,4.976-15.808,8.56-23.408c0.064,0.096,0.144,0.176,0.208,0.272
		c0.304-0.32,0.624-0.624,0.928-0.944c1.6-1.584,3.264-2.912,5.072-3.312c1.808-0.464,3.776,0.256,5.6,0.112
		c1.824-0.16,3.52-1.04,5.216-2.08c1.68-1.104,3.344-2.336,4.976-4.416c-0.016-0.288-0.048-0.576-0.064-0.848
		c-1.904-1.168-3.744-1.408-5.6-1.408c-1.84,0.048-3.68,0.352-5.44,1.504c-1.76,1.184-3.392,3.28-5.12,4.272
		c-0.848,0.528-1.744,0.832-2.64,1.024c0.032-0.176,0.032-0.336,0.064-0.512c5.824-10.816,13.232-21.04,22.24-30.352
		c-8.528,8.24-15.776,17.328-21.76,27.008c0.016-0.288,0.144-0.624,0.144-0.912c0.144-2.08,0.24-4.144,0.048-6.096
		c-0.624-3.824-1.664-7.52-4.496-10.64c-0.304,0.112-0.608,0.224-0.912,0.336c-3.008,5.296-3.792,9.92-3.808,14.144
		c0.128,2.064,0.592,3.952,1.216,5.76c0.512,1.872,1.44,3.52,2.592,5.04c0.16,0.224,0.32,0.432,0.496,0.656
		c-3.424,6.512-6.304,13.264-8.624,20.16c-0.016-0.064,0-0.144-0.016-0.224c-0.464-2.128-0.912-4.288-1.6-6.288
		c-1.6-3.856-3.552-7.52-7.104-10.256c-0.272,0.176-0.528,0.352-0.8,0.528c-1.616,6.08-1.232,11.056-0.144,15.44
		c0.64,2.112,1.616,3.984,2.704,5.744c0.992,1.84,2.352,3.376,3.888,4.736c0.048,0.032,0.096,0.08,0.128,0.112
		c-1.76,6.848-3.008,13.808-3.712,20.832c-0.944-2.064-1.904-4.112-3.056-5.952c-2.592-3.68-5.456-7.12-9.68-9.328
		c-0.224,0.224-0.448,0.448-0.672,0.688c-0.096,6.592,1.552,11.648,3.76,15.968c1.2,2.064,2.656,3.808,4.208,5.408
		c1.36,1.568,3.008,2.752,4.752,3.808c-0.176,6.928,0.144,13.888,0.992,20.8c-1.408-1.792-2.8-3.6-4.336-5.152
		c-3.568-3.264-7.344-6.272-12.144-7.824c-0.176,0.272-0.336,0.544-0.512,0.816c1.536,6.768,4.512,11.648,7.872,15.632
		c1.744,1.888,3.68,3.392,5.68,4.72c1.6,1.2,3.392,1.968,5.216,2.656c1.36,6.752,3.232,13.424,5.6,19.984
		c-1.808-1.44-3.584-2.912-5.456-4.144c-4.512-2.64-9.136-5.008-14.448-5.712c-0.112,0.304-0.208,0.608-0.32,0.912
		c3.28,6.608,7.568,11.008,12.064,14.4c2.288,1.584,4.672,2.72,7.088,3.68c1.76,0.8,3.6,1.152,5.424,1.488
		c2.88,6.304,6.272,12.448,10.144,18.368c-2.144-1.024-4.272-2.112-6.416-2.912c-5.376-1.76-10.784-3.28-16.464-3.04
		c-0.032,0.336-0.064,0.656-0.096,0.992c5.072,6.08,10.688,9.68,16.256,12.208c2.8,1.136,5.6,1.808,8.384,2.288
		c1.824,0.4,3.616,0.336,5.424,0.352c3.008,3.84,6.256,7.552,9.712,11.136c1.824-1.824,3.664-3.664,5.488-5.488
		c-3.984-3.84-7.68-7.888-11.104-12.08c-0.176-1.376-0.24-2.704-0.048-3.968c0.336-2.672,1.856-4.976,2.592-7.472
		c0.704-2.512,0.752-5.168,0.72-7.856c-0.08-2.704-0.256-5.408-1.12-8.4C192.168,239.696,191.912,239.6,191.656,239.504z"/>
	<path style="fill:#ED6362;" d="M320.104,239.504c2.096,1.904,3.328,4.176,4.304,6.576c0.928,2.416,1.6,4.96,1.424,7.808
		c-0.192,2.864-1.36,6.016-1.52,8.848c-0.032,0.368,0.064,0.72,0.048,1.072c5.376-7.104,9.968-14.64,13.76-22.48
		c-0.096-1.584-0.336-3.088-0.912-4.416c-0.928-2.304-2.896-4.032-4.144-6.128c-1.232-2.096-1.84-4.496-2.368-6.944
		c-0.48-2.48-0.864-4.992-0.624-7.936c0.224-0.144,0.464-0.288,0.688-0.448c2.384,1.264,4.032,3.04,5.472,4.992
		c1.376,1.984,2.56,4.128,3.008,6.752c0.416,2.64,0,5.76,0.464,8.336c0.08,0.496,0.304,0.928,0.432,1.408
		c3.456-7.84,6.144-15.952,8.048-24.224c-0.432-1.792-1.024-3.456-2-4.768c-1.344-1.872-3.584-2.976-5.184-4.576
		c-1.584-1.632-2.624-3.68-3.584-5.824c-0.928-2.192-1.76-4.432-2.048-7.248c0.192-0.192,0.384-0.384,0.576-0.576
		c2.496,0.592,4.4,1.856,6.128,3.312c1.696,1.488,3.216,3.216,4.16,5.504c0.912,2.32,1.12,5.296,2.08,7.536
		c0.24,0.608,0.624,1.072,0.944,1.616c1.568-8.192,2.384-16.512,2.432-24.848c-0.848-1.968-1.84-3.76-3.28-4.944
		c-1.632-1.408-3.936-1.856-5.744-2.96c-1.792-1.12-3.152-2.816-4.448-4.592c-1.264-1.84-2.448-3.776-3.232-6.4
		c0.144-0.24,0.288-0.464,0.432-0.704c2.464-0.064,4.464,0.688,6.352,1.632c1.856,1.008,3.616,2.224,4.912,4.176
		c1.296,1.968,2.032,4.704,3.36,6.56c0.448,0.656,1.008,1.136,1.552,1.648c-0.288-8.144-1.296-16.272-3.024-24.304
		c-0.08-0.128-0.16-0.24-0.24-0.368c-1.296-1.968-2.736-3.712-4.544-4.592c-1.776-0.928-3.984-0.752-5.872-1.36
		c-1.872-0.624-3.44-1.904-4.976-3.328c-1.504-1.472-2.96-3.056-4.192-5.44c0.096-0.256,0.176-0.528,0.272-0.8
		c2.256-0.656,4.24-0.416,6.16,0.032c1.904,0.512,3.76,1.264,5.328,2.816c1.568,1.584,2.784,4.032,4.368,5.44
		c0.688,0.656,1.44,1.088,2.224,1.504c-2.08-7.952-4.928-15.792-8.528-23.392c-0.064,0.096-0.144,0.176-0.208,0.272
		c-0.304-0.32-0.624-0.624-0.928-0.944c-1.6-1.584-3.264-2.912-5.072-3.312c-1.808-0.464-3.776,0.256-5.6,0.112
		c-1.824-0.16-3.52-1.04-5.216-2.08c-1.68-1.104-3.344-2.336-4.976-4.416c0.016-0.288,0.048-0.576,0.064-0.848
		c1.904-1.168,3.744-1.408,5.6-1.408c1.84,0.048,3.68,0.352,5.44,1.504c1.76,1.184,3.392,3.28,5.12,4.272
		c0.848,0.528,1.744,0.832,2.64,1.024c-0.032-0.16-0.048-0.336-0.064-0.496c-5.824-10.816-13.232-21.04-22.24-30.352
		c8.528,8.24,15.776,17.328,21.76,27.008c-0.016-0.288-0.144-0.624-0.144-0.912c-0.144-2.08-0.24-4.144-0.048-6.096
		c0.624-3.824,1.664-7.52,4.496-10.64c0.304,0.112,0.608,0.224,0.912,0.336c3.008,5.296,3.792,9.92,3.808,14.144
		c-0.128,2.064-0.592,3.952-1.216,5.76c-0.512,1.872-1.44,3.52-2.592,5.04c-0.16,0.224-0.32,0.432-0.496,0.656
		c3.424,6.512,6.304,13.264,8.624,20.16c0.016-0.064,0-0.144,0.016-0.224c0.432-2.16,0.88-4.32,1.568-6.32
		c1.6-3.856,3.552-7.52,7.104-10.256c0.272,0.176,0.544,0.336,0.816,0.512c1.616,6.08,1.232,11.056,0.16,15.44
		c-0.64,2.112-1.616,3.984-2.704,5.744c-0.992,1.84-2.352,3.376-3.888,4.736c-0.048,0.032-0.096,0.08-0.128,0.112
		c1.76,6.848,3.008,13.808,3.712,20.832c0.944-2.064,1.904-4.112,3.056-5.952c2.592-3.68,5.456-7.12,9.68-9.328
		c0.224,0.224,0.448,0.448,0.672,0.672c0.096,6.592-1.552,11.648-3.76,15.968c-1.2,2.064-2.656,3.808-4.208,5.408
		c-1.36,1.568-3.008,2.752-4.752,3.808c0.176,6.928-0.144,13.888-0.992,20.8c1.408-1.792,2.8-3.6,4.336-5.152
		c3.568-3.264,7.344-6.272,12.144-7.824c0.176,0.272,0.336,0.544,0.512,0.816c-1.536,6.768-4.512,11.648-7.872,15.632
		c-1.744,1.888-3.68,3.392-5.68,4.72c-1.6,1.2-3.392,1.968-5.216,2.656c-1.36,6.752-3.232,13.424-5.6,19.984
		c1.808-1.44,3.584-2.912,5.456-4.144c4.512-2.64,9.136-5.008,14.448-5.712c0.112,0.304,0.208,0.608,0.32,0.912
		c-3.28,6.608-7.568,11.008-12.064,14.4c-2.288,1.584-4.672,2.72-7.088,3.68c-1.76,0.8-3.6,1.152-5.424,1.488
		c-2.88,6.304-6.272,12.448-10.144,18.368c2.144-1.024,4.272-2.112,6.416-2.912c5.376-1.76,10.784-3.28,16.464-3.04
		c0.032,0.336,0.064,0.656,0.096,0.992c-5.072,6.08-10.688,9.68-16.256,12.208c-2.8,1.136-5.6,1.808-8.384,2.288
		c-1.824,0.4-3.616,0.336-5.424,0.352c-3.008,3.84-6.256,7.552-9.712,11.136c-1.824-1.824-3.664-3.664-5.488-5.488
		c3.984-3.84,7.68-7.888,11.104-12.08c0.176-1.376,0.24-2.704,0.048-3.968c-0.336-2.672-1.856-4.976-2.592-7.472
		c-0.704-2.512-0.752-5.168-0.72-7.856c0.08-2.704,0.256-5.408,1.12-8.4C319.592,239.696,319.848,239.6,320.104,239.504z"/>
</g>
<path style="fill:#E95454;" d="M253.24,98.464c-3.84,10.72-10.912,20.08-21.232,28.128c-5.264,4.112-10.224,7.136-15.072,9.808v30.8
	c10.976-5.056,21.232-11.072,29.936-19.216v126.992h33.696V98.464H253.24z"/>
<g>
</g>
<g>
</g>
<g>
</g>
<g>
</g>
<g>
</g>
<g>
</g>
<g>
</g>
<g>
</g>
<g>
</g>
<g>
</g>
<g>
</g>
<g>
</g>
<g>
</g>
<g>
</g>
<g>
</g>
</svg>
