<svg height="512pt" viewBox="0 0 512 512" width="512pt" xmlns="http://www.w3.org/2000/svg"><path d="m512 256c0 36.050781-7.449219 70.351562-20.898438 101.460938-12.964843 30.027343-31.535156 57.070312-54.367187 79.839843-6.613281 6.59375-13.59375 12.832031-20.894531 18.671875-11.695313 9.363282-24.222656 17.710938-37.460938 24.929688-6.78125 3.710937-13.761718 7.105468-20.898437 10.199218-17.21875 7.441407-35.410157 13.050782-54.355469 16.5625-6.875 1.273438-13.84375 2.289063-20.898438 3.007813-8.628906.878906-17.375 1.328125-26.226562 1.328125-3.761719 0-7.511719-.082031-11.234375-.25-7.039063-.304688-14.011719-.890625-20.894531-1.746094-18.839844-2.359375-37.03125-6.769531-54.367188-12.988281-7.117187-2.550781-14.085937-5.410156-20.898437-8.566406-11.890625-5.496094-23.28125-11.882813-34.09375-19.070313-7.230469-4.808594-14.210938-9.96875-20.898438-15.476562-21.253906-17.457032-39.644531-38.273438-54.367187-61.636719-7.835938-12.433594-14.628906-25.570313-20.261719-39.320313 0-.011718 0-.011718 0-.011718-12.234375-29.902344-18.984375-62.628906-18.984375-96.933594 0-3.261719.0625-6.507812.1875-9.738281.15625-4.378907.429688-8.734375.816406-13.050781.238282-2.71875.523438-5.433594.84375-8.128907.503906-4.167969 1.109375-8.308593 1.808594-12.402343 20.574219-120.761719 125.722656-212.679688 252.34375-212.679688 61.828125 0 118.535156 21.921875 162.773438 58.410156 4.816406 3.960938 9.488281 8.109375 13.992187 12.414063 25.589844 24.429687 46.121094 54.113281 59.863281 87.332031 12.484375 30.144531 19.371094 63.195312 19.371094 97.84375zm0 0" fill="#bfecf5"/><g fill="#7ad8eb"><path d="m352.476562 149.148438c3.175782 5.515624 5.003907 11.921874 5.003907 18.757812 0 20.78125-16.84375 37.625-37.625 37.625-20.785157 0-37.640625-16.84375-37.640625-37.625 0-.804688.042968-1.609375.09375-2.394531l-64.289063-20.886719c-6.679687 10.511719-18.414062 17.492188-31.777343 17.492188-6.46875 0-12.558594-1.640626-17.878907-4.515626l-84.15625 91.167969c3.824219 5.894531 6.050781 12.914063 6.050781 20.457031 0 20.785157-16.84375 37.628907-37.625 37.628907-20.785156 0-37.636718-16.84375-37.636718-37.628907 0-4.21875.699218-8.261718 1.984375-12.046874l-16.792969-10.917969c.15625-4.378907.429688-8.734375.816406-13.050781.238282-2.71875.523438-5.433594.84375-8.128907l25.308594 16.445313c6.707031-6.164063 15.644531-9.9375 25.476562-9.9375 6.464844 0 12.546876 1.640625 17.867188 4.515625l84.15625-91.167969c-3.816406-5.894531-6.050781-12.914062-6.050781-20.457031 0-20.785157 16.855469-37.628907 37.636719-37.628907 20.785156 0 37.628906 16.84375 37.628906 37.628907 0 .804687-.03125 1.605469-.085938 2.402343l64.292969 20.875c6.675781-10.511718 18.402344-17.492187 31.777344-17.492187 7.175781 0 13.886719 2.019531 19.589843 5.507813l79.328126-77.363282c4.816406 3.960938 9.488281 8.109375 13.992187 12.414063zm0 0"/><path d="m93.613281 357.335938v96.566406c-21.253906-17.457032-39.644531-38.273438-54.367187-61.636719-7.835938-12.433594-14.628906-25.570313-20.261719-39.320313 0-.011718 0-.011718 0-.011718 1.894531-6.339844 7.777344-10.96875 14.734375-10.96875h44.523438c8.484374 0 15.371093 6.886718 15.371093 15.371094zm0 0"/><path d="m223.871094 260.378906v249.625c-18.839844-2.359375-37.03125-6.769531-54.367188-12.988281-7.117187-2.550781-14.085937-5.410156-20.898437-8.566406v-228.070313c0-8.484375 6.875-15.371094 15.371093-15.371094h44.523438c8.484375 0 15.371094 6.886719 15.371094 15.371094zm0 0"/><path d="m357.480469 303.792969v187.308593c-17.21875 7.441407-35.410157 13.050782-54.355469 16.5625-6.875 1.273438-13.84375 2.289063-20.898438 3.007813v-206.878906c0-8.484375 6.875-15.371094 15.371094-15.371094h44.511719c8.484375 0 15.371094 6.886719 15.371094 15.371094zm0 0"/><path d="m491.101562 173.527344v183.933594c-12.964843 30.027343-31.535156 57.070312-54.367187 79.839843-6.613281 6.59375-13.59375 12.832031-20.894531 18.671875v-282.445312c0-8.484375 6.875-15.371094 15.367187-15.371094h44.523438c8.484375 0 15.371093 6.886719 15.371093 15.371094zm0 0"/></g><path d="m54.910156 245.980469-10.179687 15.652343-43.726563-28.421874c.605469-6.929688 1.492188-13.78125 2.652344-20.53125zm0 0" fill="#394852"/><path d="m236.9375 124.363281 79.789062 25.910157-5.765624 17.753906-79.785157-25.914063zm0 0" fill="#394852"/><path d="m447.578125 50.691406 13.03125 13.363282-93.082031 90.78125-13.03125-13.359376zm0 0" fill="#394852"/><path d="m181.078125 138.957031 13.714844 12.660157-95.21875 103.148437-13.714844-12.660156zm0 0" fill="#394852"/><path d="m114.511719 357.332031v112.046875c-30.210938-20.074218-55.914063-46.394531-75.265625-77.113281v-34.933594c0-8.488281 6.882812-15.367187 15.371094-15.367187h44.523437c8.488281 0 15.371094 6.878906 15.371094 15.367187zm0 0" fill="#f4de6e"/><path d="m244.765625 260.378906v251.371094c-26.308594-1.128906-51.59375-6.238281-75.261719-14.734375v-236.636719c0-8.492187 6.878906-15.371094 15.367188-15.371094h44.527344c8.488281 0 15.367187 6.878907 15.367187 15.371094zm0 0" fill="#ff806d"/><path d="m378.378906 303.792969v177.109375c-23.15625 12.632812-48.460937 21.789062-75.253906 26.761718v-203.871093c0-8.488281 6.878906-15.371094 15.371094-15.371094h44.511718c8.488282 0 15.371094 6.882813 15.371094 15.371094zm0 0" fill="#f4de6e"/><path d="m496.628906 158.15625c8.492188 0 15.371094 6.878906 15.371094 15.367188v82.476562c0 70.832031-28.765625 134.949219-75.265625 181.300781v-263.777343c0-8.488282 6.882813-15.367188 15.371094-15.367188zm0 0" fill="#ff806d"/><path d="m511.996094 37.632812c0 20.785157-16.847656 37.632813-37.628906 37.632813-20.785157 0-37.632813-16.847656-37.632813-37.632813 0-20.78125 16.847656-37.62890575 37.632813-37.62890575 20.78125 0 37.628906 16.84765575 37.628906 37.62890575zm0 0" fill="#1e7fca"/><path d="m378.382812 167.902344c0 20.785156-16.847656 37.632812-37.628906 37.632812-20.785156 0-37.632812-16.847656-37.632812-37.632812 0-20.78125 16.847656-37.628906 37.632812-37.628906 20.78125 0 37.628906 16.847656 37.628906 37.628906zm0 0" fill="#1e7fca"/><path d="m244.769531 124.480469c0 20.785156-16.847656 37.632812-37.628906 37.632812-20.785156 0-37.632813-16.847656-37.632813-37.632812 0-20.78125 16.847657-37.628907 37.632813-37.628907 20.78125 0 37.628906 16.847657 37.628906 37.628907zm0 0" fill="#1e7fca"/><path d="m111.15625 269.226562c0 20.78125-16.847656 37.628907-37.628906 37.628907-20.785156 0-37.632813-16.847657-37.632813-37.628907 0-20.785156 16.847657-37.632812 37.632813-37.632812 20.78125 0 37.628906 16.847656 37.628906 37.632812zm0 0" fill="#1e7fca"/></svg>