<svg id="Capa_1" enable-background="new 0 0 512 512" height="512" viewBox="0 0 512 512" width="512" xmlns="http://www.w3.org/2000/svg"><g><g><g><g><g><g><g><g><g><circle cx="256" cy="256" fill="#ffce00" r="256"/></g></g></g></g></g></g></g></g><path d="m512 256c0-6.83-.268-13.597-.793-20.292l-101.891-101.89-20.318 10.732-91.948-91.948-82.1 40.304 43.075 43.075-123.217 263.266 112.612 112.612c2.849.094 5.709.141 8.581.141 141.384 0 255.999-114.615 255.999-256z" fill="#ffa300"/><g><path d="m231.077 71.403h49.846v64.507h-49.846z" fill="#555a66"/></g><g><path d="m255.818 71.403h25.105v64.507h-25.105z" fill="#333940"/></g><g><path d="m118.19 106.748h49.846v64.507h-49.846z" fill="#555a66" transform="matrix(.707 -.707 .707 .707 -56.372 141.909)"/></g><g><path d="m343.964 106.748h49.846v64.507h-49.846z" fill="#333940" transform="matrix(-.707 -.707 .707 -.707 531.44 498.132)"/></g><g><circle cx="256" cy="280.694" fill="#707789" r="169.548"/></g><g><path d="m256 111.146c-.061 0-.121.002-.182.002v339.091c.061 0 .121.002.182.002 93.639 0 169.548-75.909 169.548-169.548s-75.909-169.547-169.548-169.547z" fill="#555a66"/></g><g><circle cx="256" cy="280.694" fill="#fff" r="128.865"/></g><g><path d="m256 151.829c-.061 0-.121.002-.182.002v257.725c.061 0 .121.002.182.002 71.17 0 128.865-57.695 128.865-128.865s-57.695-128.864-128.865-128.864z" fill="#e9edf5"/></g><g><path d="m214.95 52.602h82.099v40.304h-82.099z" fill="#707789"/></g><g><path d="m255.818 52.602h41.232v40.304h-41.232z" fill="#555a66"/></g><g><path d="m241.355 230.338h100v30h-100z" fill="#333940" transform="matrix(.707 -.707 .707 .707 -88.145 277.873)"/></g><g><circle cx="256" cy="280.694" fill="#707789" r="26.274"/></g><g><path d="m256 254.419c-.061 0-.121.004-.182.005v52.539c.061 0 .121.005.182.005 14.511 0 26.274-11.763 26.274-26.274s-11.763-26.275-26.274-26.275z" fill="#555a66"/></g></g></svg>