<?xml version="1.0" encoding="UTF-8" standalone="no"?>
<!DOCTYPE svg PUBLIC "-//W3C//DTD SVG 1.1//EN" "http://www.w3.org/Graphics/SVG/1.1/DTD/svg11.dtd">
<svg version="1.1" xmlns="http://www.w3.org/2000/svg" xmlns:xlink="http://www.w3.org/1999/xlink" preserveAspectRatio="xMidYMid meet" viewBox="0 0 512 512" width="512" height="512"><defs><path d="M37.14 426.81C37.14 400.94 58.07 379.97 83.9 379.97C123.52 379.97 440.54 379.97 480.17 379.97C459.52 407.77 459.52 445.85 480.17 473.65C400.91 473.65 123.52 473.65 83.9 473.65C58.08 473.65 37.14 452.68 37.14 426.81Z" id="a4DKK4rHzw"></path><linearGradient id="gradientbxKnwaXLA" gradientUnits="userSpaceOnUse" x1="37.14" y1="426.81" x2="465.65" y2="430.65"><stop style="stop-color: #5f8bd7;stop-opacity: 1" offset="0%"></stop><stop style="stop-color: #fa7b8a;stop-opacity: 1" offset="100%"></stop></linearGradient><path d="M37.14 426.81C37.14 400.94 58.07 379.97 83.9 379.97C123.52 379.97 440.54 379.97 480.17 379.97C459.52 407.77 459.52 445.85 480.17 473.65C400.91 473.65 123.52 473.65 83.9 473.65C58.08 473.65 37.14 452.68 37.14 426.81Z" id="g6PQ71ZFP"></path><path d="M0 426.81C0 379.84 38.14 341.62 85.03 341.62C125.86 341.62 452.5 341.62 493.33 341.62C503.64 341.62 512 350 512 360.33C512 370.66 503.64 379.03 493.33 379.03C452.5 379.03 125.86 379.03 85.03 379.03C58.73 379.03 37.34 400.47 37.34 426.81C37.34 453.16 58.74 474.59 85.03 474.59C125.86 474.59 452.5 474.59 493.33 474.59C503.64 474.59 512 482.97 512 493.3C512 503.63 503.64 512 493.33 512C411.67 512 125.86 512 85.03 512C38.14 512 0 473.78 0 426.81Z" id="bvFUlqlqd"></path><path d="M0 426.81C0 379.84 38.14 341.62 85.03 341.62C125.86 341.62 452.5 341.62 493.33 341.62C503.64 341.62 512 350 512 360.33C512 370.66 503.64 379.03 493.33 379.03C452.5 379.03 125.86 379.03 85.03 379.03C58.73 379.03 37.34 400.47 37.34 426.81C37.34 453.16 58.74 474.59 85.03 474.59C125.86 474.59 452.5 474.59 493.33 474.59C503.64 474.59 512 482.97 512 493.3C512 503.63 503.64 512 493.33 512C411.67 512 125.86 512 85.03 512C38.14 512 0 473.78 0 426.81Z" id="d971TrgVS6"></path><path d="M37.14 85.19C37.14 59.32 58.07 38.35 83.9 38.35C123.52 38.35 440.54 38.35 480.17 38.35C459.52 66.15 459.52 104.23 480.17 132.03C400.91 132.03 123.52 132.03 83.9 132.03C58.08 132.03 37.14 111.06 37.14 85.19Z" id="f1ApoIn3z7"></path><linearGradient id="gradientbDAq0hSVL" gradientUnits="userSpaceOnUse" x1="40.51" y1="82.61" x2="464.02" y2="85.19"><stop style="stop-color: #5f8bd7;stop-opacity: 1" offset="0%"></stop><stop style="stop-color: #fa7b8a;stop-opacity: 1" offset="100%"></stop></linearGradient><path d="M37.14 85.19C37.14 59.32 58.07 38.35 83.9 38.35C123.52 38.35 440.54 38.35 480.17 38.35C459.52 66.15 459.52 104.23 480.17 132.03C400.91 132.03 123.52 132.03 83.9 132.03C58.08 132.03 37.14 111.06 37.14 85.19Z" id="b9ZSJYtSf"></path><path d="M0 85.19C0 38.22 38.14 0 85.03 0C125.86 0 452.5 0 493.33 0C503.64 0 512 8.38 512 18.71C512 29.04 503.64 37.41 493.33 37.41C452.5 37.41 125.86 37.41 85.03 37.41C58.73 37.41 37.34 58.85 37.34 85.19C37.34 111.54 58.74 132.97 85.03 132.97C125.86 132.97 452.5 132.97 493.33 132.97C503.64 132.97 512 141.35 512 151.68C512 162.01 503.64 170.38 493.33 170.38C411.67 170.38 125.86 170.38 85.03 170.38C38.14 170.38 0 132.16 0 85.19Z" id="f3EU5MxISo"></path><path d="M0 85.19C0 38.22 38.14 0 85.03 0C125.86 0 452.5 0 493.33 0C503.64 0 512 8.38 512 18.71C512 29.04 503.64 37.41 493.33 37.41C452.5 37.41 125.86 37.41 85.03 37.41C58.73 37.41 37.34 58.85 37.34 85.19C37.34 111.54 58.74 132.97 85.03 132.97C125.86 132.97 452.5 132.97 493.33 132.97C503.64 132.97 512 141.35 512 151.68C512 162.01 503.64 170.38 493.33 170.38C411.67 170.38 125.86 170.38 85.03 170.38C38.14 170.38 0 132.16 0 85.19Z" id="a6RoapcEOw"></path><path d="M474.86 256.43C474.86 282.3 453.93 303.27 428.1 303.27C388.48 303.27 71.46 303.27 31.83 303.27C52.48 275.47 52.48 237.39 31.83 209.59C111.09 209.59 388.48 209.59 428.1 209.59C453.92 209.59 474.86 230.56 474.86 256.43Z" id="h1mX4TCEgc"></path><linearGradient id="gradientb2dkxejbts" gradientUnits="userSpaceOnUse" x1="45.35" y1="256.43" x2="474.86" y2="256.43"><stop style="stop-color: #fa7b8a;stop-opacity: 1" offset="0%"></stop><stop style="stop-color: #5f8bd7;stop-opacity: 1" offset="100%"></stop></linearGradient><path d="M474.86 256.43C474.86 282.3 453.93 303.27 428.1 303.27C388.48 303.27 71.46 303.27 31.83 303.27C52.48 275.47 52.48 237.39 31.83 209.59C111.09 209.59 388.48 209.59 428.1 209.59C453.92 209.59 474.86 230.56 474.86 256.43Z" id="a3tbXExkh3"></path><path d="M512 256.43C512 303.4 473.86 341.62 426.97 341.62C386.14 341.62 59.5 341.62 18.67 341.62C8.36 341.62 0 333.25 0 322.91C0 312.58 8.36 304.21 18.67 304.21C59.5 304.21 386.14 304.21 426.97 304.21C453.27 304.21 474.66 282.77 474.66 256.43C474.66 230.08 453.26 208.65 426.97 208.65C386.14 208.65 59.5 208.65 18.67 208.65C8.36 208.65 0 200.28 0 189.95C0 179.61 8.36 171.24 18.67 171.24C100.33 171.24 386.14 171.24 426.97 171.24C473.86 171.24 512 209.46 512 256.43Z" id="b1wdVKXnh0"></path><path d="M512 256.43C512 303.4 473.86 341.62 426.97 341.62C386.14 341.62 59.5 341.62 18.67 341.62C8.36 341.62 0 333.25 0 322.91C0 312.58 8.36 304.21 18.67 304.21C59.5 304.21 386.14 304.21 426.97 304.21C453.27 304.21 474.66 282.77 474.66 256.43C474.66 230.08 453.26 208.65 426.97 208.65C386.14 208.65 59.5 208.65 18.67 208.65C8.36 208.65 0 200.28 0 189.95C0 179.61 8.36 171.24 18.67 171.24C100.33 171.24 386.14 171.24 426.97 171.24C473.86 171.24 512 209.46 512 256.43Z" id="b1mpWe17F"></path><path d="M466.49 229.71C471.64 237.34 474.66 246.54 474.66 256.43C474.66 266.32 471.64 275.52 466.49 283.15C455.27 317.07 423.33 341.62 385.76 341.62C389.88 341.62 422.85 341.62 426.97 341.62C473.86 341.62 512 303.4 512 256.43C512 209.46 473.86 171.24 426.97 171.24C418.73 171.24 389.88 171.24 385.76 171.24C423.33 171.24 455.27 195.79 466.49 229.71Z" id="a1D6L1ELzc"></path><path d="M466.49 229.71C471.64 237.34 474.66 246.54 474.66 256.43C474.66 266.32 471.64 275.52 466.49 283.15C455.27 317.07 423.33 341.62 385.76 341.62C389.88 341.62 422.85 341.62 426.97 341.62C473.86 341.62 512 303.4 512 256.43C512 209.46 473.86 171.24 426.97 171.24C418.73 171.24 389.88 171.24 385.76 171.24C423.33 171.24 455.27 195.79 466.49 229.71Z" id="d32b3YH6SO"></path></defs><g><g><g><use xlink:href="#a4DKK4rHzw" opacity="1" fill="url(#gradientbxKnwaXLA)"></use><g><use xlink:href="#a4DKK4rHzw" opacity="1" fill-opacity="0" stroke="#000000" stroke-width="1" stroke-opacity="0"></use></g></g><g><use xlink:href="#g6PQ71ZFP" opacity="1" fill="#000000" fill-opacity="0"></use><g><use xlink:href="#g6PQ71ZFP" opacity="1" fill-opacity="0" stroke="#000000" stroke-width="1" stroke-opacity="0"></use></g></g><g><use xlink:href="#bvFUlqlqd" opacity="1" fill="#414141" fill-opacity="1"></use><g><use xlink:href="#bvFUlqlqd" opacity="1" fill-opacity="0" stroke="#000000" stroke-width="1" stroke-opacity="0"></use></g></g><g><use xlink:href="#d971TrgVS6" opacity="1" fill="#2d2d2d" fill-opacity="1"></use><g><use xlink:href="#d971TrgVS6" opacity="1" fill-opacity="0" stroke="#bcbcbc" stroke-width="2" stroke-opacity="0"></use></g></g><g><use xlink:href="#f1ApoIn3z7" opacity="1" fill="url(#gradientbDAq0hSVL)"></use><g><use xlink:href="#f1ApoIn3z7" opacity="1" fill-opacity="0" stroke="#000000" stroke-width="1" stroke-opacity="0"></use></g></g><g><use xlink:href="#b9ZSJYtSf" opacity="1" fill="#000000" fill-opacity="0"></use><g><use xlink:href="#b9ZSJYtSf" opacity="1" fill-opacity="0" stroke="#000000" stroke-width="1" stroke-opacity="0"></use></g></g><g><use xlink:href="#f3EU5MxISo" opacity="1" fill="#414141" fill-opacity="1"></use><g><use xlink:href="#f3EU5MxISo" opacity="1" fill-opacity="0" stroke="#000000" stroke-width="1" stroke-opacity="0"></use></g></g><g><use xlink:href="#a6RoapcEOw" opacity="1" fill="#2d2d2d" fill-opacity="1"></use><g><use xlink:href="#a6RoapcEOw" opacity="1" fill-opacity="0" stroke="#bcbcbc" stroke-width="2" stroke-opacity="0"></use></g></g><g><use xlink:href="#h1mX4TCEgc" opacity="1" fill="url(#gradientb2dkxejbts)"></use><g><use xlink:href="#h1mX4TCEgc" opacity="1" fill-opacity="0" stroke="#000000" stroke-width="1" stroke-opacity="0"></use></g></g><g><use xlink:href="#a3tbXExkh3" opacity="1" fill="#000000" fill-opacity="0"></use><g><use xlink:href="#a3tbXExkh3" opacity="1" fill-opacity="0" stroke="#000000" stroke-width="1" stroke-opacity="0"></use></g></g><g><use xlink:href="#b1wdVKXnh0" opacity="1" fill="#9e9e9e" fill-opacity="1"></use><g><use xlink:href="#b1wdVKXnh0" opacity="1" fill-opacity="0" stroke="#000000" stroke-width="1" stroke-opacity="0"></use></g></g><g><use xlink:href="#b1mpWe17F" opacity="1" fill="#000000" fill-opacity="0"></use><g><use xlink:href="#b1mpWe17F" opacity="1" fill-opacity="0" stroke="#bcbcbc" stroke-width="2" stroke-opacity="0"></use></g></g><g><use xlink:href="#a1D6L1ELzc" opacity="1" fill="#747373" fill-opacity="1"></use><g><use xlink:href="#a1D6L1ELzc" opacity="1" fill-opacity="0" stroke="#000000" stroke-width="1" stroke-opacity="0"></use></g></g><g><use xlink:href="#d32b3YH6SO" opacity="1" fill="#000000" fill-opacity="0"></use><g><use xlink:href="#d32b3YH6SO" opacity="1" fill-opacity="0" stroke="#000000" stroke-width="0" stroke-opacity="0"></use></g></g></g></g></svg>