<svg id="Layer_1" enable-background="new 0 0 512 512" height="512" viewBox="0 0 512 512" width="512" xmlns="http://www.w3.org/2000/svg"><g><g><path d="m480.166 473.651h-396.269c-25.821 0-46.754-20.971-46.754-46.841 0-25.869 20.932-46.841 46.754-46.841h396.269c-20.65 27.801-20.65 65.881 0 93.682z" fill="#fff7e8"/><path d="m480.166 379.969h-41.207c-20.65 27.8-20.65 65.881 0 93.681h41.207c-20.65-27.8-20.65-65.88 0-93.681z" fill="#fff1d6"/><path d="m493.329 512h-408.297c-46.887 0-85.032-38.216-85.032-85.19s38.145-85.19 85.032-85.19h408.297c10.312 0 18.671 8.375 18.671 18.706 0 10.33-8.359 18.706-18.671 18.706h-408.297c-26.297 0-47.69 21.434-47.69 47.779s21.394 47.779 47.69 47.779h408.297c10.312 0 18.671 8.375 18.671 18.706 0 10.329-8.359 18.704-18.671 18.704z" fill="#ff7893"/></g><g><path d="m480.166 132.031h-396.269c-25.821 0-46.754-20.971-46.754-46.841 0-25.869 20.932-46.841 46.754-46.841h396.269c-20.65 27.801-20.65 65.881 0 93.682z" fill="#fff7e8"/><path d="m480.166 38.349h-41.207c-20.65 27.8-20.65 65.881 0 93.681h41.207c-20.65-27.8-20.65-65.88 0-93.681z" fill="#fff1d6"/><path d="m493.329 170.38h-408.297c-46.887 0-85.032-38.216-85.032-85.19s38.145-85.19 85.032-85.19h408.297c10.312 0 18.671 8.375 18.671 18.706s-8.359 18.706-18.671 18.706h-408.297c-26.297 0-47.69 21.434-47.69 47.779s21.394 47.779 47.69 47.779h408.297c10.312 0 18.671 8.375 18.671 18.706 0 10.329-8.359 18.704-18.671 18.704z" fill="#ff9e5e"/></g><g><path d="m31.834 209.589h396.269c25.821 0 46.754 20.971 46.754 46.841 0 25.87-20.932 46.841-46.754 46.841h-396.269c20.65-27.801 20.65-65.881 0-93.682z" fill="#fff7e8"/><path d="m18.671 171.24h408.297c46.887 0 85.032 38.216 85.032 85.19s-38.145 85.19-85.032 85.19h-408.297c-10.312 0-18.671-8.375-18.671-18.706s8.359-18.706 18.671-18.706h408.297c26.297 0 47.69-21.434 47.69-47.779s-21.394-47.779-47.69-47.779h-408.297c-10.312.001-18.671-8.374-18.671-18.705 0-10.33 8.359-18.705 18.671-18.705z" fill="#59a1a5"/><path d="m426.968 171.24h-41.207c37.571 0 69.508 24.549 80.724 58.47 5.158 7.632 8.174 16.829 8.174 26.72 0 9.89-3.016 19.088-8.174 26.72-11.216 33.921-43.153 58.47-80.724 58.47h41.207c46.887 0 85.032-38.216 85.032-85.19 0-46.975-38.145-85.19-85.032-85.19z" fill="#419296"/></g><path d="m316.866 256.43h67.863v160.145l-33.336-32.205-34.527 32.205z" fill="#ffd88f"/><g><path d="m350.798 256.43v128.495l.595-.555 33.336 32.205v-160.145z" fill="#ffc963"/></g><path d="m410.923 248.703h-266.094c-4.267 0-7.726 3.459-7.726 7.726 0 4.268 3.459 7.726 7.726 7.726h266.094c4.267 0 7.726-3.459 7.726-7.726s-3.459-7.726-7.726-7.726z" fill="#ffe6b8"/></g></svg>