<?xml version="1.0" encoding="UTF-8" standalone="no"?>
<!DOCTYPE svg PUBLIC "-//W3C//DTD SVG 1.1//EN" "http://www.w3.org/Graphics/SVG/1.1/DTD/svg11.dtd">
<svg version="1.1" xmlns="http://www.w3.org/2000/svg" xmlns:xlink="http://www.w3.org/1999/xlink" preserveAspectRatio="xMidYMid meet" viewBox="0 0 762 690" width="762" height="690"><defs><path d="M253.84 242.27C244.74 242.26 237.37 234.89 237.36 225.79C237.36 205.8 237.36 45.86 237.36 25.86C237.37 19.2 242.77 13.8 249.43 13.79C275.75 13.79 486.27 13.79 512.59 13.79C519.37 13.8 524.86 19.29 524.87 26.07C524.87 46.04 524.87 205.82 524.87 225.79C524.86 234.89 517.49 242.26 508.39 242.27C508.39 242.27 279.3 242.27 253.84 242.27Z" id="aErl5juJk"></path><path d="M492.41 225.79C501.23 225.79 508.39 218.63 508.39 209.81C508.39 194.47 508.39 71.77 508.39 56.44C508.39 47.61 501.23 40.45 492.41 40.45C470.15 40.45 292.08 40.45 269.82 40.45C261 40.45 253.84 47.61 253.84 56.44C253.84 71.77 253.84 194.47 253.84 209.81C253.84 218.63 261 225.79 269.82 225.79C314.34 225.79 470.15 225.79 492.41 225.79Z" id="b64YLQNwJ"></path><path d="M524.64 24.92L237.13 24.92C237.13 19.89 237.13 17.09 237.13 16.53C237.14 7.4 244.54 0.01 253.67 0C279.11 0 482.66 0 508.1 0C517.23 0.01 524.63 7.4 524.64 16.53C524.64 17.65 524.64 20.45 524.64 24.92Z" id="b5UG6mCFo6"></path><path d="M267.19 8.21C264.83 8.21 262.91 10.12 262.91 12.49C262.91 14.85 264.83 16.76 267.19 16.76C269.55 16.76 271.47 14.85 271.47 12.49C271.47 10.12 269.55 8.21 267.19 8.21Z" id="j9bfHlIT1g"></path><path d="M283.43 8.21C281.07 8.21 279.15 10.12 279.15 12.49C279.15 14.85 281.07 16.76 283.43 16.76C285.79 16.76 287.71 14.85 287.71 12.49C287.71 10.12 285.79 8.21 283.43 8.21Z" id="bfQkVHl4J"></path><path d="M299.67 8.21C297.31 8.21 295.39 10.12 295.39 12.49C295.39 14.85 297.31 16.76 299.67 16.76C302.03 16.76 303.95 14.85 303.95 12.49C303.95 10.12 302.03 8.21 299.67 8.21Z" id="eibQsMZO"></path><path d="M275.18 112.33C273.94 112.33 272.93 111.32 272.92 110.07C272.92 108.97 272.92 100.15 272.92 99.05C272.93 97.8 273.94 96.8 275.18 96.79C276.28 96.79 285.1 96.79 286.2 96.79C287.45 96.8 288.46 97.8 288.46 99.05C288.46 100.15 288.46 108.97 288.46 110.07C288.46 111.32 287.45 112.33 286.2 112.33C284 112.33 276.28 112.33 275.18 112.33Z" id="bu3VHaQtp"></path><linearGradient id="gradientd8NvgcCK6Y" gradientUnits="userSpaceOnUse" x1="272.92" y1="104.56" x2="286.96" y2="104.56"><stop style="stop-color: #5f8bd7;stop-opacity: 1" offset="0%"></stop><stop style="stop-color: #fc7b8a;stop-opacity: 1" offset="100%"></stop></linearGradient><path d="M275.18 140.89C273.94 140.89 272.93 139.88 272.92 138.63C272.92 137.53 272.92 128.71 272.92 127.61C272.93 126.37 273.94 125.36 275.18 125.36C276.28 125.36 285.1 125.36 286.2 125.36C287.45 125.36 288.46 126.37 288.46 127.61C288.46 128.71 288.46 137.53 288.46 138.63C288.46 139.88 287.45 140.89 286.2 140.89C284 140.89 276.28 140.89 275.18 140.89Z" id="d1hsRhzHKW"></path><path d="M275.18 169.45C273.94 169.45 272.93 168.44 272.92 167.19C272.92 166.09 272.92 157.27 272.92 156.17C272.93 154.93 273.94 153.92 275.18 153.92C276.28 153.92 285.1 153.92 286.2 153.92C287.45 153.92 288.46 154.93 288.46 156.17C288.46 157.27 288.46 166.09 288.46 167.19C288.46 168.44 287.45 169.45 286.2 169.45C284 169.45 276.28 169.45 275.18 169.45Z" id="k9pbdKs0B"></path><path d="M305.24 106.82C304 106.81 302.99 105.8 302.99 104.56C303 103.31 304 102.31 305.24 102.31C310.55 102.31 353.05 102.31 358.36 102.31C359.6 102.3 360.61 103.31 360.62 104.56C360.62 105.8 359.61 106.81 358.37 106.82C358.36 106.82 358.36 106.82 358.36 106.82C358.36 106.82 310.55 106.82 305.24 106.82Z" id="bNrf9NicW"></path><path d="M305.24 135.38C304 135.37 302.99 134.36 302.99 133.12C303 131.88 304 130.87 305.24 130.87C310.55 130.87 353.05 130.87 358.36 130.87C359.6 130.87 360.61 131.88 360.61 133.12C360.61 134.37 359.6 135.38 358.36 135.38C347.73 135.38 310.55 135.38 305.24 135.38Z" id="gTAD9RcAf"></path><path d="M305.24 163.94C304 163.93 302.99 162.92 302.99 161.68C303 160.44 304 159.43 305.24 159.43C310.55 159.43 353.05 159.43 358.36 159.43C359.6 159.43 360.61 160.43 360.62 161.68C360.62 162.92 359.61 163.93 358.37 163.94C358.36 163.94 358.36 163.94 358.36 163.94C358.36 163.94 310.55 163.94 305.24 163.94Z" id="b1VSaKBRbW"></path><path d="M489.22 133.84C489.27 132.89 489.31 131.94 489.31 130.97C489.31 104.87 468.15 83.71 442.04 83.71C442.04 87.05 442.04 103.76 442.04 133.84C467.2 133.84 482.93 133.84 489.22 133.84Z" id="byysRN1m2"></path><linearGradient id="gradientb6GcUPHEx" gradientUnits="userSpaceOnUse" x1="442.04" y1="112.33" x2="489.31" y2="112.33"><stop style="stop-color: #5f8bd7;stop-opacity: 1" offset="0%"></stop><stop style="stop-color: #fc7b8a;stop-opacity: 1" offset="100%"></stop></linearGradient><path d="M438.46 138.13C438.46 108.06 438.46 91.35 438.46 88.01C412.36 88.01 391.2 109.17 391.2 135.27C391.2 161.37 412.36 182.53 438.46 182.53C463.45 182.53 484.12 163.08 485.64 138.13C479.35 138.13 463.62 138.13 438.46 138.13Z" id="d4NyoKETlR"></path><path d="M1.43 689C0.88 689 0.43 688.55 0.43 688C0.43 687.45 0.88 687 1.43 687C77.35 687 684.65 687 760.57 687C761.12 687 761.57 687.45 761.57 688C761.57 688.55 761.12 689 760.57 689C608.74 689 77.35 689 1.43 689Z" id="a8LPWWsi"></path><path d="M505.44 413.88C508.77 414.26 525.46 416.14 555.49 419.51L562.77 409.68L579.05 418.72L564.72 442.62C527.93 432.96 507.49 427.59 503.4 426.52C499.15 430.6 492.4 430.47 488.32 426.22C484.24 421.98 484.38 415.23 488.62 411.15C492.87 407.07 499.61 407.2 503.69 411.45C504 411.77 504.29 412.1 504.55 412.45C504.88 412.91 505.18 413.38 505.44 413.88Z" id="cOSHCrAG2"></path><path d="M235.39 395.96C235.09 395.45 234.84 394.92 234.63 394.36C232.25 394.41 220.36 394.66 198.94 395.11L208.83 379.41C228.25 380.43 239.04 381 241.2 381.11C246.55 379.52 252.17 382.57 253.76 387.92C255.09 392.39 253.18 397.19 249.14 399.53C244.36 402.34 238.2 400.74 235.39 395.96Z" id="bxqnIOwoP"></path><path d="M229.03 398.25C224.68 398.14 202.91 397.58 163.72 396.59C128.23 386.08 108.52 380.25 104.58 379.08C97.8 377.07 93.93 369.95 95.94 363.17C97.94 356.39 105.07 352.52 111.85 354.52C111.97 354.56 112.09 354.6 112.2 354.64C115.77 355.8 133.57 361.64 165.63 372.15C204.11 375.87 225.49 377.93 229.76 378.34C232.09 378.58 233.85 380.55 233.82 382.89C233.8 383.99 233.66 392.74 233.64 393.83C233.63 394.24 233.57 394.65 233.45 395.04C232.87 396.98 231.06 398.3 229.03 398.25Z" id="b1Frg9e2i"></path><path d="M150.98 675.83L156.81 628.59L138.74 628.59L138.74 675.83L138.74 675.83L150.98 675.83Z" id="f7fJpzYK4U"></path><path d="M135.61 671.83L159.73 671.83C159.73 671.83 159.73 671.83 159.73 671.83C168.22 671.83 175.1 678.71 175.1 687.2C175.1 687.2 175.1 687.2 175.1 687.2C175.1 687.23 175.1 687.4 175.1 687.7L135.61 687.7L135.61 671.83Z" id="bTOIJBe3D"></path><path d="M115.02 675.83L120.85 628.59L102.78 628.59L102.78 675.83L102.78 675.83L115.02 675.83Z" id="fpjNzOwR"></path><path d="M99.65 671.83L123.77 671.83C123.77 671.83 123.77 671.83 123.77 671.83C132.26 671.83 139.14 678.71 139.14 687.2C139.14 687.2 139.14 687.2 139.14 687.2C139.14 687.23 139.14 687.4 139.14 687.7L99.66 687.7L99.65 671.83Z" id="eM3MsLaz"></path><path d="M94.56 484.94C96.31 589.04 97.29 646.87 97.48 658.43C97.52 660.64 99.34 662.4 101.55 662.36C101.64 662.36 101.74 662.36 101.84 662.35C103.27 662.22 114.74 661.17 116.17 661.04C118.11 660.87 119.64 659.32 119.79 657.37C120.63 646.55 127.34 559.97 128.18 549.15C128.22 548.6 128.7 548.19 129.25 548.23C129.76 548.27 130.16 548.68 130.18 549.19C130.6 560.26 133.95 648.82 134.37 659.89C134.45 662.04 136.21 663.73 138.36 663.73C139.9 663.73 152.19 663.73 153.73 663.73C155.84 663.73 157.59 662.09 157.72 659.98C158.43 648.25 162.02 589.57 168.48 483.94L104.55 467.96L94.56 484.94Z" id="d4cEB7bBa0"></path><path d="M140.93 272.96C127.38 272.96 116.4 283.95 116.4 297.5C116.4 311.04 127.38 322.03 140.93 322.03C154.48 322.03 165.46 311.04 165.46 297.5C165.46 283.95 154.48 272.96 140.93 272.96Z" id="e1xtYFMFyK"></path><path d="M167.46 491.37C161.73 491.28 115.84 490.58 110.1 490.49C107.82 490.45 105.92 488.71 105.7 486.44C105.63 485.79 105.11 480.59 105.05 479.94C105.02 479.67 104.77 479.47 104.5 479.5C104.26 479.52 104.08 479.71 104.05 479.94C103.98 480.62 103.45 485.98 103.38 486.65C103.17 488.82 101.43 490.52 99.25 490.69C98.85 490.72 95.6 490.97 95.2 491C92.72 491.19 90.56 489.34 90.37 486.86C90.33 486.36 90.38 485.86 90.51 485.38C90.86 484.05 93.65 473.4 94 472.07C101.22 444.41 101.8 415.43 95.69 387.51C95.52 386.72 94.13 380.4 93.96 379.61C91.28 367.52 96.71 355.08 107.41 348.83C108.16 348.39 111.92 346.19 118.68 342.23C121.75 337.63 123.45 335.07 123.79 334.56C125.8 331.56 129.15 329.72 132.76 329.64C139.89 329.49 152.12 330.79 154.42 341.22C166.11 345.21 173.89 356.28 173.68 368.63C173.52 380.46 172.19 475.11 172.03 486.94C171.99 489.4 169.99 491.37 167.54 491.37C167.51 491.37 167.49 491.37 167.46 491.37Z" id="alxMBDzA1"></path><path d="M133.55 318.93C130.59 320.74 127.13 321.53 123.75 322.29C122.29 323.07 120.47 322.51 119.7 321.05C119.47 320.63 119.35 320.15 119.35 319.67C119.04 318.49 116.55 309.04 116.24 307.86C115.15 304.09 114.35 300.23 113.85 296.34C113.11 288.84 114.88 280.77 120.12 275.34C125.35 269.92 134.43 267.99 140.71 272.17C148.15 262.66 182.18 283.67 173.79 290.29C172.29 291.46 170.01 289.97 168.12 289.83C166.22 289.68 164.1 290.02 162.89 291.49C161.32 293.41 162 296.27 161.36 298.67C160.23 302.2 156.46 304.15 152.93 303.03C152.92 303.03 152.9 303.02 152.88 303.01C151.31 302.24 149.84 301.29 148.49 300.19C147.03 299.22 145.2 298.51 143.56 299.12C141.4 299.92 140.63 302.56 140.44 304.86C140.11 307.15 139.63 309.41 139.01 311.64C138.91 315.1 136.5 317.11 133.55 318.93Z" id="kcdReM6yv"></path><path d="M148.73 426.33L169.71 477.27L138.75 427.33L144.74 377.39L144.74 377.39L148.73 426.33Z" id="a3KyS0iIWi"></path><path d="M183.87 515.53C176.05 510.88 173.48 500.78 178.11 492.95C188.31 475.75 269.92 338.2 280.12 321C283.52 315.28 290.93 313.39 296.66 316.78C319.29 330.21 500.35 437.62 522.98 451.05C528.81 454.52 530.73 462.04 527.28 467.88C517.09 485.06 435.57 622.47 425.38 639.64C420.73 647.46 410.62 650.04 402.79 645.41C359.01 619.43 205.77 528.52 183.87 515.53Z" id="b3Hw2xtJNF"></path><path d="M397.46 623.08C405.05 627.58 414.85 625.08 419.36 617.49C427.18 604.3 489.79 498.77 497.61 485.58C502.12 477.99 499.61 468.19 492.02 463.68C472.88 452.33 319.74 361.47 300.59 350.11C293 345.61 283.2 348.11 278.69 355.71C270.87 368.9 208.26 474.42 200.44 487.61C195.93 495.2 198.44 505.01 206.03 509.51C206.03 509.51 378.32 611.72 397.46 623.08Z" id="ac0jkHNjo"></path><path d="M527.67 466.77L280.4 320.07C282.97 315.75 284.39 313.34 284.68 312.86C289.35 305.01 299.49 302.43 307.34 307.08C329.22 320.06 504.28 423.92 526.16 436.9C534.01 441.56 536.6 451.7 531.95 459.56C531.38 460.52 529.95 462.92 527.67 466.77Z" id="grWtTPJwc"></path><path d="M312.6 320.44C310.23 320.44 308.32 322.35 308.32 324.72C308.32 327.08 310.23 329 312.6 329C314.96 329 316.88 327.08 316.88 324.72C316.88 322.35 314.96 320.44 312.6 320.44Z" id="a4MQPUm8Q"></path><path d="M326.57 328.73C324.2 328.73 322.29 330.64 322.29 333C322.29 335.37 324.2 337.28 326.57 337.28C328.93 337.28 330.84 335.37 330.84 333C330.84 330.64 328.93 328.73 326.57 328.73Z" id="c1ITCmuNGD"></path><path d="M340.53 337.01C338.17 337.01 336.25 338.93 336.25 341.29C336.25 343.65 338.17 345.57 340.53 345.57C342.9 345.57 344.81 343.65 344.81 341.29C344.81 338.93 342.9 337.01 340.53 337.01Z" id="arGRsLrCz"></path><path d="M472.65 491.81C472.65 491.81 472.65 491.81 472.65 491.81C474.34 492.82 475.28 493.37 475.47 493.48C475.47 493.48 475.47 493.48 475.47 493.48C475.3 493.77 475.21 493.92 475.19 493.95C475.19 493.95 475.19 493.95 475.19 493.95C473.5 492.95 472.56 492.39 472.37 492.28C472.37 492.28 472.37 492.28 472.37 492.28C472.54 492 472.63 491.85 472.65 491.81Z" id="chhRdpScU"></path><path d="M466.69 488.91L461 485.54L461.28 485.07L466.97 488.44L466.69 488.91ZM455.32 482.16L449.63 478.79L449.91 478.32L455.59 481.7L455.32 482.16ZM443.95 475.42L438.26 472.04L438.54 471.58L444.22 474.95L443.95 475.42ZM432.57 468.67L426.89 465.3L427.17 464.83L432.85 468.2L432.57 468.67ZM421.2 461.93L415.52 458.55L415.79 458.08L421.48 461.46L421.2 461.93ZM409.83 455.18L404.15 451.81L404.42 451.34L410.11 454.71L409.83 455.18ZM398.46 448.43L392.77 445.06L393.05 444.59L398.74 447.96L398.46 448.43ZM387.09 441.69L381.4 438.31L381.68 437.84L387.37 441.22L387.09 441.69ZM375.72 434.94L370.03 431.57L370.31 431.1L375.99 434.47L375.72 434.94ZM364.35 428.19L358.66 424.82L358.94 424.35L364.62 427.72L364.35 428.19ZM352.97 421.45L347.29 418.07L347.57 417.61L353.25 420.98L352.97 421.45ZM341.6 414.7L335.92 411.33L336.19 410.86L341.88 414.23L341.6 414.7ZM330.23 407.95L324.55 404.58L324.82 404.11L330.51 407.49L330.23 407.95ZM318.86 401.21L313.17 397.84L313.45 397.37L319.14 400.74L318.86 401.21ZM307.49 394.46L301.8 391.09L302.08 390.62L307.77 393.99L307.49 394.46ZM296.12 387.72L290.43 384.34L290.71 383.87L296.39 387.25L296.12 387.72Z" id="aYwj6rviE"></path><path d="M282.21 378.83C282.21 378.83 282.21 378.83 282.21 378.83C283.9 379.83 284.84 380.39 285.02 380.5C285.02 380.5 285.02 380.5 285.02 380.5C284.86 380.78 284.76 380.94 284.75 380.97C284.75 380.97 284.75 380.97 284.75 380.97C283.06 379.97 282.12 379.41 281.93 379.3C281.93 379.3 281.93 379.3 281.93 379.3C282.1 379.02 282.19 378.86 282.21 378.83Z" id="gfhld9h3i"></path><path d="M354.36 480.62C354.36 480.62 354.36 480.62 354.36 480.62C356.05 481.62 356.99 482.17 357.18 482.29C357.18 482.29 357.18 482.29 357.18 482.29C357.01 482.57 356.92 482.72 356.9 482.75C356.9 482.75 356.9 482.75 356.9 482.75C355.21 481.75 354.27 481.2 354.09 481.09C354.09 481.09 354.09 481.09 354.09 481.09C354.25 480.8 354.35 480.65 354.36 480.62Z" id="g27l55Wpuv"></path><path d="M348.48 477.76L342.88 474.44L343.16 473.97L348.76 477.29L348.48 477.76ZM337.28 471.12L331.68 467.79L331.96 467.32L337.56 470.65L337.28 471.12ZM326.08 464.47L320.48 461.15L320.76 460.68L326.36 464L326.08 464.47ZM314.88 457.82L309.28 454.5L309.55 454.03L315.16 457.35L314.88 457.82ZM303.67 451.18L298.07 447.85L298.35 447.39L303.95 450.71L303.67 451.18ZM292.47 444.53L286.87 441.21L287.15 440.74L292.75 444.06L292.47 444.53ZM281.27 437.89L275.67 434.56L275.95 434.09L281.55 437.42L281.27 437.89ZM270.07 431.24L264.47 427.92L264.74 427.45L270.35 430.77L270.07 431.24Z" id="c48qL9KZYY"></path><path d="M256.33 422.45C256.33 422.45 256.33 422.45 256.33 422.45C258.02 423.46 258.96 424.01 259.14 424.12C259.14 424.12 259.14 424.12 259.14 424.12C258.98 424.41 258.88 424.56 258.86 424.59C258.86 424.59 258.86 424.59 258.86 424.59C257.18 423.59 256.24 423.03 256.05 422.92C256.05 422.92 256.05 422.92 256.05 422.92C256.22 422.64 256.31 422.49 256.33 422.45Z" id="c8fnf4EiW"></path><path d="M287.24 468.7C287.24 468.7 287.24 468.7 287.24 468.7C288.93 469.7 289.87 470.25 290.05 470.37C290.05 470.37 290.05 470.37 290.05 470.37C289.89 470.65 289.79 470.8 289.77 470.83C289.77 470.83 289.77 470.83 289.77 470.83C288.09 469.83 287.15 469.28 286.96 469.16C286.96 469.16 286.96 469.16 286.96 469.16C287.13 468.88 287.22 468.73 287.24 468.7Z" id="aCbuYuD2I"></path><path d="M281.2 465.75L275.43 462.33L275.71 461.86L281.48 465.28L281.2 465.75ZM269.67 458.91L263.91 455.49L264.19 455.02L269.95 458.44L269.67 458.91ZM258.15 452.07L252.38 448.65L252.66 448.18L258.42 451.6L258.15 452.07Z" id="e14oTfWuaK"></path><path d="M244.08 443.09C244.08 443.09 244.08 443.09 244.08 443.09C245.77 444.1 246.71 444.65 246.9 444.76C246.9 444.76 246.9 444.76 246.9 444.76C246.73 445.04 246.64 445.2 246.62 445.23C246.62 445.23 246.62 445.23 246.62 445.23C244.93 444.23 243.99 443.67 243.81 443.56C243.81 443.56 243.81 443.56 243.81 443.56C243.97 443.28 244.07 443.12 244.08 443.09Z" id="a1lVcHyWi4"></path><path d="M266.34 503.92C266.34 503.92 266.34 503.92 266.34 503.92C268.03 504.92 268.97 505.48 269.16 505.59C269.16 505.59 269.16 505.59 269.16 505.59C268.99 505.87 268.9 506.02 268.88 506.06C268.88 506.06 268.88 506.06 268.88 506.06C267.19 505.05 266.25 504.5 266.06 504.39C266.06 504.39 266.06 504.39 266.06 504.39C266.23 504.1 266.32 503.95 266.34 503.92Z" id="edkoxC9S4"></path><path d="M260.3 500.97L254.54 497.55L254.82 497.08L260.58 500.5L260.3 500.97ZM248.78 494.13L243.01 490.71L243.29 490.24L249.05 493.66L248.78 494.13ZM237.25 487.29L231.49 483.87L231.77 483.4L237.53 486.82L237.25 487.29Z" id="c2hHcYibf4"></path><path d="M223.19 478.31C223.19 478.31 223.19 478.31 223.19 478.31C224.88 479.32 225.82 479.87 226 479.98C226 479.98 226 479.98 226 479.98C225.84 480.27 225.74 480.42 225.72 480.45C225.72 480.45 225.72 480.45 225.72 480.45C224.04 479.45 223.1 478.9 222.91 478.78C222.91 478.78 222.91 478.78 222.91 478.78C223.08 478.5 223.17 478.35 223.19 478.31Z" id="pA1FxCGX"></path><path d="M400.79 584.8C408.97 589.64 419.53 586.95 424.39 578.77C427.55 573.45 443.35 546.82 471.79 498.88L471.47 498.7L363.92 526.15C358.81 506.13 355.97 495.02 355.41 492.79C355.09 491.54 354.21 490.51 353.02 490.01C352.13 489.65 351.14 489.59 350.21 489.85C346.45 490.81 327.66 495.6 293.85 504.23C290.11 489.6 288.03 481.47 287.62 479.85C287.06 477.63 284.8 476.3 282.59 476.86C282.59 476.86 282.59 476.86 282.59 476.86C282.21 476.96 245.54 486.68 238.56 488.56C271.01 507.81 384.57 575.18 400.79 584.8Z" id="d2DbCUS8aP"></path><linearGradient id="gradientb3iR1sL6K" gradientUnits="userSpaceOnUse" x1="279.15" y1="470.83" x2="421.85" y2="552.12"><stop style="stop-color: #5f8bd7;stop-opacity: 1" offset="0%"></stop><stop style="stop-color: #fc7b8a;stop-opacity: 1" offset="100%"></stop></linearGradient><path d="M237.59 488.62L237.46 488.09C264.52 481.18 279.55 477.34 282.56 476.57C285.04 475.94 287.56 477.44 288.2 479.92C288.6 481.51 290.64 489.48 294.3 503.83C327.93 495.24 346.61 490.47 350.34 489.52C352.82 488.89 355.35 490.39 355.98 492.87C356.54 495.06 359.34 506.02 364.37 525.74L472.48 498.15L472.61 498.67L363.98 526.41C358.86 506.36 356.02 495.23 355.45 493C354.89 490.81 352.67 489.49 350.48 490.05C350.48 490.05 350.48 490.05 350.48 490.05C346.71 491.01 327.85 495.83 293.91 504.49C290.16 489.83 288.08 481.68 287.67 480.05C287.11 477.87 284.88 476.55 282.69 477.1C276.68 478.64 261.65 482.48 237.59 488.62Z" id="a3fMOqiW9X"></path><path d="M289.91 466.78C287.81 466.78 286.1 468.49 286.1 470.6C286.1 472.71 287.81 474.42 289.91 474.42C292.02 474.42 293.73 472.71 293.73 470.6C293.73 468.49 292.02 466.78 289.91 466.78Z" id="c1Q4LnYIgv"></path><path d="M357.04 478.7C354.93 478.7 353.22 480.41 353.22 482.52C353.22 484.63 354.93 486.34 357.04 486.34C359.15 486.34 360.86 484.63 360.86 482.52C360.86 480.41 359.15 478.7 357.04 478.7Z" id="aiEpesdLW"></path><path d="M473.99 487.9C471.88 487.9 470.17 489.61 470.17 491.71C470.17 493.82 471.88 495.53 473.99 495.53C476.09 495.53 477.8 493.82 477.8 491.71C477.8 489.61 476.09 487.9 473.99 487.9Z" id="a1fOZlwx3x"></path><path d="M173.07 482.12C173.44 481.66 173.85 481.23 174.3 480.85C173.41 478.64 168.95 467.61 160.93 447.75L179.12 451.42C185.06 469.94 188.36 480.23 189.02 482.29C192.4 486.72 191.55 493.06 187.11 496.44C183.4 499.27 178.24 499.19 174.62 496.24C170.29 492.77 169.6 486.45 173.07 482.12Z" id="erltFEsC9"></path><path d="M169.82 478.91C168.38 474.8 161.17 454.25 148.19 417.26C145.42 380.36 143.88 359.86 143.57 355.76C143.04 348.71 148.32 342.56 155.37 342.03C162.42 341.5 168.57 346.78 169.1 353.83C169.11 353.96 169.12 354.08 169.13 354.21C169.3 357.95 170.16 376.67 171.71 410.38C181.9 447.66 187.56 468.38 188.69 472.52C189.3 474.78 188.08 477.13 185.88 477.94C184.85 478.31 176.62 481.28 175.59 481.65C175.2 481.79 174.8 481.87 174.39 481.9C172.37 482.05 170.5 480.82 169.82 478.91Z" id="flXkPFX4J"></path><path d="M574.38 426.58C572.37 424.89 556.28 411.33 554.26 409.64C552.33 408.01 552.09 405.13 553.71 403.2C553.79 403.1 553.88 403.01 553.97 402.92C555.8 401.08 570.4 386.42 572.23 384.58C573.81 382.98 576.33 382.78 578.15 384.11C579.53 385.12 590.57 393.14 591.96 394.14C593.73 395.43 594.34 397.8 593.4 399.79C592.21 402.32 582.65 422.52 581.46 425.04C580.4 427.28 577.76 428.27 575.5 427.28C575.09 427.1 574.72 426.87 574.38 426.58Z" id="abmKEGgK7"></path><path d="M641.95 670.24L623.62 625.45L641.35 620.62L653.96 666.97L653.96 666.97L641.95 670.24Z" id="dbRLBSpl3"></path><path d="M655.6 662.83L659.57 677.42L621.81 687.7C621.77 687.55 621.75 687.47 621.75 687.46C619.59 679.53 624.27 671.36 632.19 669.2C632.19 669.2 640 667.08 655.6 662.83Z" id="c3qgy7odKn"></path><path d="M538.79 676.14L532.87 628.11L551.25 628.11L551.25 676.14L551.25 676.14L538.79 676.14Z" id="a59tUpgvsB"></path><path d="M553.92 672.58L553.92 687.7L514.78 687.7C514.78 687.55 514.78 687.46 514.78 687.45C514.78 679.23 521.44 672.58 529.65 672.58C529.65 672.58 537.74 672.58 553.92 672.58Z" id="f1WUG6iR2a"></path><path d="M570.01 309.12C556.23 309.12 545.06 320.29 545.06 334.07C545.06 347.85 556.23 359.02 570.01 359.02C583.78 359.02 594.95 347.85 594.95 334.07C594.95 320.29 583.78 309.12 570.01 309.12Z" id="bQatyOxED"></path><path d="M533.47 641.89C531.05 641.89 529.06 640.01 528.9 637.6C523.83 557 526.8 499.17 538.24 455.64C538.29 455.45 538.35 455.26 538.42 455.08C538.51 454.85 539.24 453.03 539.33 452.8C540.02 451.06 541.71 449.92 543.58 449.92C547.08 449.92 575.07 449.92 578.57 449.92C579.9 449.92 581.17 450.51 582.04 451.52C582.51 452.08 586.32 456.51 586.79 457.07C586.88 457.17 586.97 457.28 587.06 457.4C608.49 487.29 627.69 545.72 649.94 624.26C650.62 626.63 649.29 629.12 646.93 629.86C645.11 630.45 630.48 635.13 628.65 635.71C626.48 636.4 624.13 635.39 623.14 633.34C618.39 623.5 580.43 544.76 575.68 534.92C574.83 533.15 572.7 532.41 570.93 533.26C569.86 533.78 569.12 534.8 568.96 535.98C567.56 546.17 556.41 627.74 555.01 637.94C554.7 640.2 552.77 641.88 550.48 641.89C547.08 641.89 535.17 641.89 533.47 641.89Z" id="b5VqYNLLx"></path><path d="M584.73 457.47C580.48 457.34 546.48 456.26 542.23 456.13C539.97 456.06 538.1 454.36 537.83 452.11C532.44 408.5 547.22 396.81 553.82 393.81C554.94 393.31 555.72 392.25 555.86 391.03C555.92 390.57 556.38 386.91 556.44 386.46C556.53 385.65 556.85 384.88 557.34 384.24C567.69 370.82 581.83 366.53 589.34 365.16C591.82 364.72 594.19 366.37 594.64 368.85C594.65 368.92 594.66 369 594.67 369.07C594.76 369.73 595.44 374.98 595.53 375.64C595.61 376.26 595.86 376.86 596.25 377.36C617.84 405.58 593.79 447.26 588.75 455.33C588.75 455.33 588.75 455.33 588.75 455.33C587.91 456.66 586.45 457.47 584.87 457.47C584.83 457.47 584.78 457.47 584.73 457.47Z" id="f2wzOxofkh"></path><linearGradient id="gradientePXGDOkHR" gradientUnits="userSpaceOnUse" x1="545.25" y1="398.25" x2="590.1" y2="436.39"><stop style="stop-color: #5f8bd7;stop-opacity: 1" offset="0%"></stop><stop style="stop-color: #b782ac;stop-opacity: 1" offset="56.311682604936394%"></stop><stop style="stop-color: #fc7b8a;stop-opacity: 1" offset="100%"></stop></linearGradient><path d="M597.45 318.56C595.6 312.94 594.23 307.17 593.36 301.32C593.09 297.92 593.96 294.25 596.44 291.9C601.09 287.5 608.97 289.6 613.83 293.76C620.85 299.78 624.34 309.02 625.67 318.17C626.99 327.32 626.41 336.62 626.73 345.85C627.04 355.09 628.37 364.59 633.07 372.54C637.78 380.49 646.52 386.6 655.74 385.92C659.46 385.72 662.99 384.22 665.72 381.69C668.45 379.1 669.74 375.35 669.2 371.64C673.91 380.07 671.52 391.5 664.5 398.14C657.47 404.77 646.66 406.64 637.42 403.81C628.19 400.98 620.58 393.88 616.04 385.35C611.5 376.82 609.84 366.97 610.08 357.31C610.26 349.89 611.52 342.42 610.27 335.1C609.02 327.79 604.44 320.37 597.22 318.64C597.27 318.63 597.41 318.57 597.45 318.56Z" id="a8Wa3VHAmI"></path><path d="M565.04 328.17C563.81 332.28 559.11 334.82 554.87 334.12C550.58 333.23 547.12 330.05 545.87 325.85C544.71 321.66 545.18 317.2 547.2 313.36C549.45 308.71 553.45 305.14 558.33 303.44C563.26 301.81 568.67 302.68 572.85 305.76C573.29 303.88 574.72 302.39 576.58 301.86C578.42 301.37 580.36 301.4 582.18 301.94C587.43 303.44 591.98 306.75 595.02 311.29C598.02 315.81 600.01 320.93 600.84 326.29C602.28 334.33 601.75 343.12 597.23 349.93C592.71 356.74 583.47 360.76 575.98 357.51C575.51 355.12 576.62 352.71 577.9 350.64C579.18 348.57 580.7 346.55 581.19 344.17C581.68 341.78 580.74 338.87 578.43 338.09C576.46 337.42 574.36 338.5 572.29 338.63C568.58 338.86 565.39 336.05 565.15 332.34C565.08 331.16 565.32 329.99 565.84 328.94C565.68 328.78 565.2 328.32 565.04 328.17Z" id="dRCnb5qSn"></path><path d="M502.96 432.18C506.31 431.92 523.05 430.61 553.18 428.27L558.47 417.24L576.17 423.05L566.6 449.22C528.64 446.67 507.56 445.26 503.34 444.97C499.94 449.78 493.29 450.92 488.48 447.52C483.67 444.12 482.53 437.47 485.93 432.66C489.33 427.86 495.98 426.71 500.79 430.11C501.15 430.37 501.49 430.64 501.82 430.94C502.23 431.32 502.61 431.74 502.96 432.18Z" id="c5JeMSoSJv"></path><path d="M574.7 439.94C572.47 438.54 554.68 427.3 552.46 425.9C550.32 424.55 549.69 421.73 551.03 419.59C551.1 419.48 551.17 419.38 551.25 419.28C552.81 417.21 565.28 400.69 566.84 398.63C568.19 396.82 570.66 396.28 572.64 397.36C574.15 398.16 586.18 404.6 587.69 405.41C589.62 406.44 590.55 408.71 589.89 410.81C589.05 413.47 582.34 434.79 581.5 437.45C580.76 439.81 578.28 441.15 575.9 440.48C575.47 440.36 575.07 440.18 574.7 439.94Z" id="dShUmMvSn"></path><linearGradient id="gradientb4S4f8lJHO" gradientUnits="userSpaceOnUse" x1="553.92" y1="418.73" x2="588.32" y2="411.95"><stop style="stop-color: #5f8bd7;stop-opacity: 1" offset="0%"></stop><stop style="stop-color: #fc7b8a;stop-opacity: 1" offset="100%"></stop></linearGradient></defs><g><g><g><use xlink:href="#aErl5juJk" opacity="1" fill="#f2f2f2" fill-opacity="1"></use><g><use xlink:href="#aErl5juJk" opacity="1" fill-opacity="0" stroke="#000000" stroke-width="1" stroke-opacity="0"></use></g></g><g><use xlink:href="#b64YLQNwJ" opacity="1" fill="#ffffff" fill-opacity="1"></use><g><use xlink:href="#b64YLQNwJ" opacity="1" fill-opacity="0" stroke="#000000" stroke-width="1" stroke-opacity="0"></use></g></g><g><use xlink:href="#b5UG6mCFo6" opacity="1" fill="#cccccc" fill-opacity="1"></use><g><use xlink:href="#b5UG6mCFo6" opacity="1" fill-opacity="0" stroke="#000000" stroke-width="1" stroke-opacity="0"></use></g></g><g><use xlink:href="#j9bfHlIT1g" opacity="1" fill="#ffffff" fill-opacity="1"></use><g><use xlink:href="#j9bfHlIT1g" opacity="1" fill-opacity="0" stroke="#000000" stroke-width="1" stroke-opacity="0"></use></g></g><g><use xlink:href="#bfQkVHl4J" opacity="1" fill="#ffffff" fill-opacity="1"></use><g><use xlink:href="#bfQkVHl4J" opacity="1" fill-opacity="0" stroke="#000000" stroke-width="1" stroke-opacity="0"></use></g></g><g><use xlink:href="#eibQsMZO" opacity="1" fill="#ffffff" fill-opacity="1"></use><g><use xlink:href="#eibQsMZO" opacity="1" fill-opacity="0" stroke="#000000" stroke-width="1" stroke-opacity="0"></use></g></g><g><use xlink:href="#bu3VHaQtp" opacity="1" fill="url(#gradientd8NvgcCK6Y)"></use><g><use xlink:href="#bu3VHaQtp" opacity="1" fill-opacity="0" stroke="#000000" stroke-width="1" stroke-opacity="0"></use></g></g><g><use xlink:href="#d1hsRhzHKW" opacity="1" fill="#3f3d56" fill-opacity="1"></use><g><use xlink:href="#d1hsRhzHKW" opacity="1" fill-opacity="0" stroke="#000000" stroke-width="1" stroke-opacity="0"></use></g></g><g><use xlink:href="#k9pbdKs0B" opacity="1" fill="#cccccc" fill-opacity="1"></use><g><use xlink:href="#k9pbdKs0B" opacity="1" fill-opacity="0" stroke="#000000" stroke-width="1" stroke-opacity="0"></use></g></g><g><use xlink:href="#bNrf9NicW" opacity="1" fill="#cccccc" fill-opacity="1"></use><g><use xlink:href="#bNrf9NicW" opacity="1" fill-opacity="0" stroke="#000000" stroke-width="1" stroke-opacity="0"></use></g></g><g><use xlink:href="#gTAD9RcAf" opacity="1" fill="#cccccc" fill-opacity="1"></use><g><use xlink:href="#gTAD9RcAf" opacity="1" fill-opacity="0" stroke="#000000" stroke-width="1" stroke-opacity="0"></use></g></g><g><use xlink:href="#b1VSaKBRbW" opacity="1" fill="#cccccc" fill-opacity="1"></use><g><use xlink:href="#b1VSaKBRbW" opacity="1" fill-opacity="0" stroke="#000000" stroke-width="1" stroke-opacity="0"></use></g></g><g><use xlink:href="#byysRN1m2" opacity="1" fill="url(#gradientb6GcUPHEx)"></use><g><use xlink:href="#byysRN1m2" opacity="1" fill-opacity="0" stroke="#000000" stroke-width="1" stroke-opacity="0"></use></g></g><g><use xlink:href="#d4NyoKETlR" opacity="1" fill="#3f3d56" fill-opacity="1"></use><g><use xlink:href="#d4NyoKETlR" opacity="1" fill-opacity="0" stroke="#000000" stroke-width="1" stroke-opacity="0"></use></g></g><g><use xlink:href="#a8LPWWsi" opacity="1" fill="#cccccc" fill-opacity="1"></use><g><use xlink:href="#a8LPWWsi" opacity="1" fill-opacity="0" stroke="#000000" stroke-width="1" stroke-opacity="0"></use></g></g><g><use xlink:href="#cOSHCrAG2" opacity="1" fill="#ffb8b8" fill-opacity="1"></use><g><use xlink:href="#cOSHCrAG2" opacity="1" fill-opacity="0" stroke="#000000" stroke-width="1" stroke-opacity="0"></use></g></g><g><use xlink:href="#bxqnIOwoP" opacity="1" fill="#ffb8b8" fill-opacity="1"></use><g><use xlink:href="#bxqnIOwoP" opacity="1" fill-opacity="0" stroke="#000000" stroke-width="1" stroke-opacity="0"></use></g></g><g><use xlink:href="#b1Frg9e2i" opacity="1" fill="#3f3d56" fill-opacity="1"></use><g><use xlink:href="#b1Frg9e2i" opacity="1" fill-opacity="0" stroke="#000000" stroke-width="1" stroke-opacity="0"></use></g></g><g><use xlink:href="#f7fJpzYK4U" opacity="1" fill="#ffb8b8" fill-opacity="1"></use><g><use xlink:href="#f7fJpzYK4U" opacity="1" fill-opacity="0" stroke="#000000" stroke-width="1" stroke-opacity="0"></use></g></g><g><use xlink:href="#bTOIJBe3D" opacity="1" fill="#2f2e41" fill-opacity="1"></use><g><use xlink:href="#bTOIJBe3D" opacity="1" fill-opacity="0" stroke="#000000" stroke-width="1" stroke-opacity="0"></use></g></g><g><use xlink:href="#fpjNzOwR" opacity="1" fill="#ffb8b8" fill-opacity="1"></use><g><use xlink:href="#fpjNzOwR" opacity="1" fill-opacity="0" stroke="#000000" stroke-width="1" stroke-opacity="0"></use></g></g><g><use xlink:href="#eM3MsLaz" opacity="1" fill="#2f2e41" fill-opacity="1"></use><g><use xlink:href="#eM3MsLaz" opacity="1" fill-opacity="0" stroke="#000000" stroke-width="1" stroke-opacity="0"></use></g></g><g><use xlink:href="#d4cEB7bBa0" opacity="1" fill="#2f2e41" fill-opacity="1"></use><g><use xlink:href="#d4cEB7bBa0" opacity="1" fill-opacity="0" stroke="#000000" stroke-width="1" stroke-opacity="0"></use></g></g><g><use xlink:href="#e1xtYFMFyK" opacity="1" fill="#ffb8b8" fill-opacity="1"></use><g><use xlink:href="#e1xtYFMFyK" opacity="1" fill-opacity="0" stroke="#000000" stroke-width="1" stroke-opacity="0"></use></g></g><g><use xlink:href="#alxMBDzA1" opacity="1" fill="#3f3d56" fill-opacity="1"></use><g><use xlink:href="#alxMBDzA1" opacity="1" fill-opacity="0" stroke="#000000" stroke-width="1" stroke-opacity="0"></use></g></g><g><use xlink:href="#kcdReM6yv" opacity="1" fill="#2f2e41" fill-opacity="1"></use><g><use xlink:href="#kcdReM6yv" opacity="1" fill-opacity="0" stroke="#000000" stroke-width="1" stroke-opacity="0"></use></g></g><g><use xlink:href="#a3KyS0iIWi" opacity="1" fill="#000000" fill-opacity="1"></use><g><use xlink:href="#a3KyS0iIWi" opacity="1" fill-opacity="0" stroke="#000000" stroke-width="1" stroke-opacity="0"></use></g></g><g><use xlink:href="#b3Hw2xtJNF" opacity="1" fill="#f2f2f2" fill-opacity="1"></use><g><use xlink:href="#b3Hw2xtJNF" opacity="1" fill-opacity="0" stroke="#000000" stroke-width="1" stroke-opacity="0"></use></g></g><g><use xlink:href="#ac0jkHNjo" opacity="1" fill="#ffffff" fill-opacity="1"></use><g><use xlink:href="#ac0jkHNjo" opacity="1" fill-opacity="0" stroke="#000000" stroke-width="1" stroke-opacity="0"></use></g></g><g><use xlink:href="#grWtTPJwc" opacity="1" fill="#cccccc" fill-opacity="1"></use><g><use xlink:href="#grWtTPJwc" opacity="1" fill-opacity="0" stroke="#000000" stroke-width="1" stroke-opacity="0"></use></g></g><g><use xlink:href="#a4MQPUm8Q" opacity="1" fill="#ffffff" fill-opacity="1"></use><g><use xlink:href="#a4MQPUm8Q" opacity="1" fill-opacity="0" stroke="#000000" stroke-width="1" stroke-opacity="0"></use></g></g><g><use xlink:href="#c1ITCmuNGD" opacity="1" fill="#ffffff" fill-opacity="1"></use><g><use xlink:href="#c1ITCmuNGD" opacity="1" fill-opacity="0" stroke="#000000" stroke-width="1" stroke-opacity="0"></use></g></g><g><use xlink:href="#arGRsLrCz" opacity="1" fill="#ffffff" fill-opacity="1"></use><g><use xlink:href="#arGRsLrCz" opacity="1" fill-opacity="0" stroke="#000000" stroke-width="1" stroke-opacity="0"></use></g></g><g><use xlink:href="#chhRdpScU" opacity="1" fill="#e6e6e6" fill-opacity="1"></use><g><use xlink:href="#chhRdpScU" opacity="1" fill-opacity="0" stroke="#000000" stroke-width="1" stroke-opacity="0"></use></g></g><g><use xlink:href="#aYwj6rviE" opacity="1" fill="#e6e6e6" fill-opacity="1"></use><g><use xlink:href="#aYwj6rviE" opacity="1" fill-opacity="0" stroke="#000000" stroke-width="1" stroke-opacity="0"></use></g></g><g><use xlink:href="#gfhld9h3i" opacity="1" fill="#e6e6e6" fill-opacity="1"></use><g><use xlink:href="#gfhld9h3i" opacity="1" fill-opacity="0" stroke="#000000" stroke-width="1" stroke-opacity="0"></use></g></g><g><use xlink:href="#g27l55Wpuv" opacity="1" fill="#e6e6e6" fill-opacity="1"></use><g><use xlink:href="#g27l55Wpuv" opacity="1" fill-opacity="0" stroke="#000000" stroke-width="1" stroke-opacity="0"></use></g></g><g><use xlink:href="#c48qL9KZYY" opacity="1" fill="#e6e6e6" fill-opacity="1"></use><g><use xlink:href="#c48qL9KZYY" opacity="1" fill-opacity="0" stroke="#000000" stroke-width="1" stroke-opacity="0"></use></g></g><g><use xlink:href="#c8fnf4EiW" opacity="1" fill="#e6e6e6" fill-opacity="1"></use><g><use xlink:href="#c8fnf4EiW" opacity="1" fill-opacity="0" stroke="#000000" stroke-width="1" stroke-opacity="0"></use></g></g><g><use xlink:href="#aCbuYuD2I" opacity="1" fill="#e6e6e6" fill-opacity="1"></use><g><use xlink:href="#aCbuYuD2I" opacity="1" fill-opacity="0" stroke="#000000" stroke-width="1" stroke-opacity="0"></use></g></g><g><use xlink:href="#e14oTfWuaK" opacity="1" fill="#e6e6e6" fill-opacity="1"></use><g><use xlink:href="#e14oTfWuaK" opacity="1" fill-opacity="0" stroke="#000000" stroke-width="1" stroke-opacity="0"></use></g></g><g><use xlink:href="#a1lVcHyWi4" opacity="1" fill="#e6e6e6" fill-opacity="1"></use><g><use xlink:href="#a1lVcHyWi4" opacity="1" fill-opacity="0" stroke="#000000" stroke-width="1" stroke-opacity="0"></use></g></g><g><use xlink:href="#edkoxC9S4" opacity="1" fill="#e6e6e6" fill-opacity="1"></use><g><use xlink:href="#edkoxC9S4" opacity="1" fill-opacity="0" stroke="#000000" stroke-width="1" stroke-opacity="0"></use></g></g><g><use xlink:href="#c2hHcYibf4" opacity="1" fill="#e6e6e6" fill-opacity="1"></use><g><use xlink:href="#c2hHcYibf4" opacity="1" fill-opacity="0" stroke="#000000" stroke-width="1" stroke-opacity="0"></use></g></g><g><use xlink:href="#pA1FxCGX" opacity="1" fill="#e6e6e6" fill-opacity="1"></use><g><use xlink:href="#pA1FxCGX" opacity="1" fill-opacity="0" stroke="#000000" stroke-width="1" stroke-opacity="0"></use></g></g><g><use xlink:href="#d2DbCUS8aP" opacity="1" fill="url(#gradientb3iR1sL6K)"></use><g><use xlink:href="#d2DbCUS8aP" opacity="1" fill-opacity="0" stroke="#000000" stroke-width="1" stroke-opacity="0"></use></g></g><g><use xlink:href="#a3fMOqiW9X" opacity="1" fill="#3f3d56" fill-opacity="1"></use><g><use xlink:href="#a3fMOqiW9X" opacity="1" fill-opacity="0" stroke="#000000" stroke-width="1" stroke-opacity="0"></use></g></g><g><use xlink:href="#c1Q4LnYIgv" opacity="1" fill="#3f3d56" fill-opacity="1"></use><g><use xlink:href="#c1Q4LnYIgv" opacity="1" fill-opacity="0" stroke="#000000" stroke-width="1" stroke-opacity="0"></use></g></g><g><use xlink:href="#aiEpesdLW" opacity="1" fill="#3f3d56" fill-opacity="1"></use><g><use xlink:href="#aiEpesdLW" opacity="1" fill-opacity="0" stroke="#000000" stroke-width="1" stroke-opacity="0"></use></g></g><g><use xlink:href="#a1fOZlwx3x" opacity="1" fill="#3f3d56" fill-opacity="1"></use><g><use xlink:href="#a1fOZlwx3x" opacity="1" fill-opacity="0" stroke="#000000" stroke-width="1" stroke-opacity="0"></use></g></g><g><use xlink:href="#erltFEsC9" opacity="1" fill="#ffb8b8" fill-opacity="1"></use><g><use xlink:href="#erltFEsC9" opacity="1" fill-opacity="0" stroke="#000000" stroke-width="1" stroke-opacity="0"></use></g></g><g><use xlink:href="#flXkPFX4J" opacity="1" fill="#3f3d56" fill-opacity="1"></use><g><use xlink:href="#flXkPFX4J" opacity="1" fill-opacity="0" stroke="#000000" stroke-width="1" stroke-opacity="0"></use></g></g><g><use xlink:href="#abmKEGgK7" opacity="1" fill="#6c63ff" fill-opacity="1"></use><g><use xlink:href="#abmKEGgK7" opacity="1" fill-opacity="0" stroke="#000000" stroke-width="1" stroke-opacity="0"></use></g></g><g><use xlink:href="#dbRLBSpl3" opacity="1" fill="#ffb8b8" fill-opacity="1"></use><g><use xlink:href="#dbRLBSpl3" opacity="1" fill-opacity="0" stroke="#000000" stroke-width="1" stroke-opacity="0"></use></g></g><g><use xlink:href="#c3qgy7odKn" opacity="1" fill="#2f2e41" fill-opacity="1"></use><g><use xlink:href="#c3qgy7odKn" opacity="1" fill-opacity="0" stroke="#000000" stroke-width="1" stroke-opacity="0"></use></g></g><g><use xlink:href="#a59tUpgvsB" opacity="1" fill="#ffb8b8" fill-opacity="1"></use><g><use xlink:href="#a59tUpgvsB" opacity="1" fill-opacity="0" stroke="#000000" stroke-width="1" stroke-opacity="0"></use></g></g><g><use xlink:href="#f1WUG6iR2a" opacity="1" fill="#2f2e41" fill-opacity="1"></use><g><use xlink:href="#f1WUG6iR2a" opacity="1" fill-opacity="0" stroke="#000000" stroke-width="1" stroke-opacity="0"></use></g></g><g><use xlink:href="#bQatyOxED" opacity="1" fill="#ffb8b8" fill-opacity="1"></use><g><use xlink:href="#bQatyOxED" opacity="1" fill-opacity="0" stroke="#000000" stroke-width="1" stroke-opacity="0"></use></g></g><g><use xlink:href="#b5VqYNLLx" opacity="1" fill="#2f2e41" fill-opacity="1"></use><g><use xlink:href="#b5VqYNLLx" opacity="1" fill-opacity="0" stroke="#000000" stroke-width="1" stroke-opacity="0"></use></g></g><g><use xlink:href="#f2wzOxofkh" opacity="1" fill="url(#gradientePXGDOkHR)"></use><g><use xlink:href="#f2wzOxofkh" opacity="1" fill-opacity="0" stroke="#000000" stroke-width="1" stroke-opacity="0"></use></g></g><g><use xlink:href="#a8Wa3VHAmI" opacity="1" fill="#2f2e41" fill-opacity="1"></use><g><use xlink:href="#a8Wa3VHAmI" opacity="1" fill-opacity="0" stroke="#000000" stroke-width="1" stroke-opacity="0"></use></g></g><g><use xlink:href="#dRCnb5qSn" opacity="1" fill="#2f2e41" fill-opacity="1"></use><g><use xlink:href="#dRCnb5qSn" opacity="1" fill-opacity="0" stroke="#000000" stroke-width="1" stroke-opacity="0"></use></g></g><g><use xlink:href="#c5JeMSoSJv" opacity="1" fill="#ffb8b8" fill-opacity="1"></use><g><use xlink:href="#c5JeMSoSJv" opacity="1" fill-opacity="0" stroke="#000000" stroke-width="1" stroke-opacity="0"></use></g></g><g><use xlink:href="#dShUmMvSn" opacity="1" fill="url(#gradientb4S4f8lJHO)"></use><g><use xlink:href="#dShUmMvSn" opacity="1" fill-opacity="0" stroke="#000000" stroke-width="1" stroke-opacity="0"></use></g></g></g></g></svg>