<?xml version="1.0" encoding="UTF-8" standalone="no"?>
<!DOCTYPE svg PUBLIC "-//W3C//DTD SVG 1.1//EN" "http://www.w3.org/Graphics/SVG/1.1/DTD/svg11.dtd">
<svg version="1.1" xmlns="http://www.w3.org/2000/svg" xmlns:xlink="http://www.w3.org/1999/xlink" preserveAspectRatio="xMidYMid meet" viewBox="0 0 846 704" width="846" height="704"><defs><path d="M702.98 664.49L701.52 683.99L671.77 674.24L683.96 659.61L702.98 664.49Z" id="nohQqTrnD"></path><path d="M811.25 658.15L809.78 677.17L793.2 679.6L783.45 670.34L794.67 652.29L811.25 658.15Z" id="bUahMcAWS"></path><path d="M820.03 454.78C820.03 454.78 783.45 502.09 783.45 502.09C779.74 509.11 750.09 565.29 746.38 572.32C746.38 572.32 727.36 641.08 722.97 643.03C722.97 643.03 716.15 637.18 718.59 645.47C718.59 645.47 719.56 653.27 717.61 653.76C717.61 653.76 710.3 653.27 712.25 656.69C712.25 656.69 715.66 660.1 711.76 660.1C711.76 660.1 706.39 657.66 706.39 661.08C706.39 661.08 702.98 672.29 702.98 672.29C702.98 672.29 679.08 665.46 678.11 662.54C678.11 662.54 684.45 658.15 682.98 655.22C682.98 655.22 681.03 652.3 681.03 647.91C681.03 647.91 683.96 642.54 683.96 642.54C683.96 642.54 686.4 641.57 685.42 639.62C685.42 639.62 680.55 638.64 685.42 636.2C685.42 636.2 710.3 559.15 710.3 559.15C710.3 559.15 710.3 522.08 716.64 509.89C716.64 509.89 718.1 410.89 733.22 409.92C748.35 408.94 823.44 415.28 823.44 415.28C822.76 423.18 836.61 430.89 820.03 454.78Z" id="a3ZwvL5pi"></path><path d="M818.56 443.08C816.81 488.43 815.83 513.63 815.64 518.67C815.64 518.67 830.27 591.82 825.39 614.25C825.39 614.25 823.93 633.76 821 637.66C821 637.66 815.64 639.61 818.08 643.03C818.08 643.03 821.97 647.42 818.08 651.32C818.08 651.32 812.22 664.49 812.22 664.49C809.74 664.24 789.84 662.29 787.35 662.05C787.35 662.05 793.69 650.83 791.25 648.4C791.25 648.4 782.47 649.86 787.35 644.5C787.35 644.5 795.16 641.57 792.23 639.13C792.23 639.13 784.91 637.67 788.81 633.77C788.81 633.77 797.11 629.87 793.2 628.41C793.2 628.41 784.91 628.41 786.86 625.48C786.86 625.48 791.25 619.14 791.25 619.14C790.67 614.7 785.99 579.2 785.4 574.76C785.4 574.76 778.57 560.13 780.52 553.79C780.52 553.79 772.23 495.27 772.23 495.27C778.41 488.31 793.85 470.91 818.56 443.08Z" id="cUAFtxAO9"></path><path d="M814.18 665.95C814.18 665.95 826.37 695.21 820.03 697.16C820.03 697.16 804.42 701.06 799.55 699.6C799.55 699.6 784.43 691.31 772.24 691.31C772.24 691.31 749.8 685.94 749.8 683.99C749.8 683.99 747.85 670.34 757.12 670.34C757.12 670.34 783.45 659.61 783.45 659.61C783.45 659.61 787.35 651.8 789.31 652.29C789.31 652.29 789.79 668.39 789.79 668.39C789.79 668.39 801.01 679.12 807.84 667.9C809.11 667.51 812.71 663.02 814.18 665.95Z" id="b2f4zKXBnS"></path><path d="M708.35 665.95C708.35 665.95 709.81 698.62 709.81 698.62C709.81 698.62 705.91 704.96 694.69 703.5C694.69 703.5 653.73 698.62 646.9 700.08C646.9 700.08 621.54 693.25 626.42 682.04C626.42 682.04 628.86 675.7 640.56 676.18C652.27 676.67 673.72 662.53 673.72 662.53C673.72 662.53 677.14 652.78 678.11 653.75C679.09 654.73 680.06 671.8 680.06 671.8C680.06 671.8 692.74 680.09 699.57 674.24C701.33 672.58 703.96 663.51 708.35 665.95Z" id="cqLjK9NjG"></path><path d="M763.46 168.03C747.83 168.03 735.17 180.69 735.17 196.31C735.17 211.94 747.83 224.6 763.46 224.6C779.08 224.6 791.74 211.94 791.74 196.31C791.74 180.69 779.08 168.03 763.46 168.03Z" id="cielYipXX"></path><path d="M805.88 231.43C805.88 231.43 769.31 252.4 769.31 252.4C769.31 252.4 762.48 222.65 754.19 216.31C745.9 209.97 785.4 198.26 785.4 198.26C789.5 204.9 800.52 228.5 805.88 231.43Z" id="ca0YtnvLX"></path><path d="M742 445.52C740.83 456.64 740.18 462.81 740.05 464.05C740.05 464.05 719.08 456.73 725.91 443.08C728.05 443.4 733.42 444.22 742 445.52Z" id="e23jcMaLMf"></path><path d="M825.88 420.15C825.81 419.41 825.49 415.67 824.91 408.94L834.66 398.7C832.91 370.03 831.93 354.09 831.74 350.91C831.74 350.91 840.51 328.48 841.97 294.34C842.06 292.24 841.93 290.14 841.59 288.07C836.57 257.49 786.77 237.79 785.4 238.25C784.71 238.48 777.38 242.3 769.74 246.32C760.95 250.93 751.76 255.81 751.76 255.81C740.05 260.21 742 330.43 738.1 336.77C734.19 343.11 738.1 365.05 738.1 365.05C737.66 367.14 734.15 383.92 733.71 386.02C733.71 386.02 719.08 402.12 733.71 417.72C748.34 433.32 807.45 419.67 825.88 420.15Z" id="befPupRP"></path><path d="M791.7 331.66C791.7 331.66 757.08 438.95 757.08 438.95C756.36 439.34 752.79 441.29 746.36 444.81L746.36 458.46L738.81 438.02C751.26 411.99 758.18 397.52 759.56 394.63C759.56 394.63 733.67 244.86 780.98 262.9C783.12 276.65 794.63 303.87 791.7 331.66Z" id="b1aomJLFGb"></path><path d="M768.17 250.61C782.32 242.81 803.78 263.3 826.21 285.24C834.26 293.11 838.92 292.32 841.6 288.07C836.57 257.49 786.77 237.79 785.4 238.25C784.72 238.48 777.39 242.3 769.74 246.32C769.42 247.18 768.48 249.75 768.17 250.61Z" id="a942aVKFx"></path><path d="M774.03 230.75C774.03 230.75 814.02 211.73 840.35 230.75C840.79 233.48 844.3 255.32 844.74 258.06C844.74 258.06 848.64 303.41 826.21 281.46C803.78 259.52 782.32 239.04 768.18 246.84C769.35 243.62 773.44 232.36 774.03 230.75Z" id="a7OwjLqo9o"></path><path d="M790.28 325.06C790.28 325.06 755.65 432.35 755.65 432.35C754.94 432.74 751.36 434.69 744.93 438.21L744.93 451.86L722.49 445.52C725.42 435.87 727.04 430.5 727.37 429.43C727.37 429.43 719.57 419.68 724.93 416.75C724.93 416.75 729.32 397.73 729.32 397.73C729.32 397.73 732.25 238.25 779.55 256.3C781.7 270.05 793.21 297.26 790.28 325.06Z" id="buLfrfvsx"></path><path d="M787.23 201.64C785.65 198.68 782.04 197.45 778.7 197.16C774.44 196.78 770.15 197.52 765.88 197.23C761.62 196.94 757.06 195.31 754.93 191.6C754.09 190.12 753.67 188.38 752.54 187.09C750.2 184.42 745.94 184.83 742.58 185.98C739.22 187.12 735.71 188.8 732.28 187.9C729.39 179.82 732.95 170.49 739.1 164.51C745.25 158.52 753.55 155.3 761.8 152.9C772.67 149.73 784.9 147.86 794.9 153.18C809.39 160.89 814.51 181.31 813.17 196.53C812.66 202.29 811.84 208.8 807.19 212.68C800.37 218.38 790.73 217.89 788.67 208.15C788.21 205.97 788.27 203.62 787.23 201.64Z" id="b7iItyxZoZ"></path><path d="M611.2 0.63C611.2 0.63 611.2 0.63 611.2 0.63C611.2 235.4 611.2 365.82 611.2 391.9C611.2 391.9 611.2 391.9 611.2 391.9C244.64 391.9 40.99 391.9 0.26 391.9C0.26 391.9 0.26 391.9 0.26 391.9C0.26 157.14 0.26 26.72 0.26 0.63C0.26 0.63 0.26 0.63 0.26 0.63C366.82 0.63 570.47 0.63 611.2 0.63Z" id="m3ypLITUKX"></path><path d="M595.73 49.71C595.73 49.71 595.73 49.71 595.73 49.71C595.73 241.14 595.73 347.49 595.73 368.76C595.73 368.76 595.73 368.76 595.73 368.76C250.13 368.76 58.13 368.76 19.73 368.76C19.73 368.76 19.73 368.76 19.73 368.76C19.73 177.33 19.73 70.98 19.73 49.71C19.73 49.71 19.73 49.71 19.73 49.71C365.33 49.71 557.33 49.71 595.73 49.71Z" id="bTWalEgRQ"></path><path d="M610.94 0.29C610.94 0.29 610.94 0.29 610.94 0.29C610.94 15.86 610.94 24.51 610.94 26.24C610.94 26.24 610.94 26.24 610.94 26.24C244.37 26.24 40.73 26.24 0 26.24C0 26.24 0 26.24 0 26.24C0 10.67 0 2.02 0 0.29C0 0.29 0 0.29 0 0.29C366.56 0.29 570.21 0.29 610.94 0.29Z" id="a2nYRsKNS1"></path><linearGradient id="gradienta97dSQaYV" gradientUnits="userSpaceOnUse" x1="51" y1="13.56" x2="579.71" y2="13.56"><stop style="stop-color: #5f8bd7;stop-opacity: 1" offset="0%"></stop><stop style="stop-color: #fc7b8a;stop-opacity: 1" offset="100%"></stop></linearGradient><path d="M19.29 8.74C16.63 8.74 14.48 10.9 14.48 13.56C14.48 16.21 16.63 18.37 19.29 18.37C21.95 18.37 24.1 16.21 24.1 13.56C24.1 10.9 21.95 8.74 19.29 8.74Z" id="d1h5zbXwTR"></path><path d="M37.55 8.74C34.89 8.74 32.74 10.9 32.74 13.56C32.74 16.21 34.89 18.37 37.55 18.37C40.2 18.37 42.36 16.21 42.36 13.56C42.36 10.9 40.2 8.74 37.55 8.74Z" id="d2D5F2kYHN"></path><path d="M55.81 8.74C53.15 8.74 51 10.9 51 13.56C51 16.21 53.15 18.37 55.81 18.37C58.46 18.37 60.62 16.21 60.62 13.56C60.62 10.9 58.46 8.74 55.81 8.74Z" id="c3lGJjnzeG"></path><path d="M120.5 94.43L82.4 132.05L120.5 169.67L129.07 161.1L100.26 132.29L129.32 103.24L120.5 94.43Z" id="akP8C73Sb"></path><linearGradient id="gradienta48xd37MnA" gradientUnits="userSpaceOnUse" x1="82.4" y1="132.05" x2="189.82" y2="132.05"><stop style="stop-color: #5f8bd7;stop-opacity: 1" offset="0%"></stop><stop style="stop-color: #fc7b8a;stop-opacity: 1" offset="100%"></stop></linearGradient><path d="M151.72 94.43L189.82 132.05L151.72 169.67L143.15 161.1L171.96 132.29L142.91 103.24L151.72 94.43Z" id="e3sCszLWN"></path><linearGradient id="gradienta2aX9yWXqT" gradientUnits="userSpaceOnUse" x1="82.4" y1="132.05" x2="186.06" y2="132.05"><stop style="stop-color: #5f8bd7;stop-opacity: 1" offset="0%"></stop><stop style="stop-color: #fc7b8a;stop-opacity: 1" offset="100%"></stop></linearGradient><path d="M274.96 103.87C271.84 103.87 269.32 105.66 269.32 107.87C269.32 110.08 271.84 111.87 274.96 111.87C301.56 111.87 514.35 111.87 540.94 111.87C544.06 111.87 546.59 110.08 546.59 107.87C546.59 105.66 544.06 103.87 540.94 103.87C487.75 103.87 328.16 103.87 274.96 103.87Z" id="aUp3lX6fy"></path><path d="M90.85 323.16C86.27 323.16 82.56 320.52 82.56 317.26C82.56 309.37 82.56 246.19 82.56 238.29C82.56 235.04 86.27 232.39 90.85 232.39C135.59 232.39 493.55 232.39 538.3 232.39C542.87 232.39 546.58 235.04 546.59 238.29C546.59 246.19 546.59 309.37 546.59 317.26C546.58 320.52 542.87 323.16 538.3 323.16C448.81 323.16 135.59 323.16 90.85 323.16ZM90.85 234.75C88.1 234.75 85.88 236.34 85.87 238.29C85.87 246.19 85.87 309.36 85.87 317.26C85.87 319.21 88.1 320.8 90.85 320.8C135.59 320.8 493.55 320.8 538.3 320.8C541.04 320.8 543.27 319.21 543.27 317.26C543.27 309.36 543.27 246.19 543.27 238.29C543.27 236.34 541.04 234.75 538.3 234.75C448.81 234.75 180.34 234.75 90.85 234.75Z" id="gejv9gnmP"></path><path d="M136.92 257.72C125.87 257.72 116.9 266.69 116.9 277.74C116.9 288.8 125.87 297.76 136.92 297.76C147.98 297.76 156.94 288.8 156.94 277.74C156.94 266.69 147.98 257.72 136.92 257.72Z" id="a1MZO72sYK"></path><path d="M193.38 261.73C191.17 261.73 189.38 263.52 189.38 265.73C189.37 267.94 191.16 269.73 193.37 269.74C193.37 269.74 193.37 269.74 193.37 269.74C212.24 269.74 363.21 269.74 382.08 269.74C384.29 269.74 386.09 267.95 386.09 265.74C386.09 263.52 384.29 261.73 382.08 261.73C344.34 261.73 231.12 261.73 193.38 261.73Z" id="a59jcm5kMf"></path><linearGradient id="gradientcLKQ9OYhx" gradientUnits="userSpaceOnUse" x1="211.97" y1="269.74" x2="360.18" y2="269.74"><stop style="stop-color: #5f8bd7;stop-opacity: 1" offset="0%"></stop><stop style="stop-color: #8887c3;stop-opacity: 1" offset="25.86278766463539%"></stop><stop style="stop-color: #fc7b8a;stop-opacity: 1" offset="100%"></stop></linearGradient><path d="M189.38 289.75C189.37 291.96 191.16 293.75 193.37 293.75C193.37 293.75 193.37 293.75 193.37 293.75C201.49 293.75 266.46 293.75 274.58 293.75C276.79 293.76 278.59 291.97 278.59 289.76C278.59 287.55 276.8 285.75 274.59 285.75C269.18 285.75 242.11 285.75 193.38 285.75C190.71 286.94 189.38 288.27 189.38 289.75Z" id="a2j7Tq5otb"></path><linearGradient id="gradientaqYfPrjqc" gradientUnits="userSpaceOnUse" x1="200.65" y1="293.75" x2="264.29" y2="293.75"><stop style="stop-color: #5f8bd7;stop-opacity: 1" offset="0%"></stop><stop style="stop-color: #fc7b8a;stop-opacity: 1" offset="100%"></stop></linearGradient><path d="M273.02 127.85C270.81 128.03 269.16 129.96 269.34 132.17C269.49 134.14 271.05 135.69 273.02 135.85C290.45 135.85 429.9 135.85 447.34 135.85C449.55 135.67 451.19 133.74 451.02 131.53C450.86 129.56 449.3 128.01 447.34 127.85C412.47 127.85 307.88 127.85 273.02 127.85Z" id="heDLtEQHp"></path><path d="M274.16 151.83C271.49 151.83 269.32 153.62 269.32 155.83C269.32 158.04 271.49 159.83 274.16 159.83C297.01 159.83 479.82 159.83 502.67 159.83C505.34 159.83 507.51 158.04 507.51 155.83C507.51 153.62 505.34 151.83 502.67 151.83C456.97 151.83 319.86 151.83 274.16 151.83Z" id="a1ARTYhcsg"></path></defs><g><g><g><use xlink:href="#nohQqTrnD" opacity="1" fill="#d18e59" fill-opacity="1"></use><g><use xlink:href="#nohQqTrnD" opacity="1" fill-opacity="0" stroke="#000000" stroke-width="1" stroke-opacity="0"></use></g></g><g><use xlink:href="#bUahMcAWS" opacity="1" fill="#d18e59" fill-opacity="1"></use><g><use xlink:href="#bUahMcAWS" opacity="1" fill-opacity="0" stroke="#000000" stroke-width="1" stroke-opacity="0"></use></g></g><g><use xlink:href="#a3ZwvL5pi" opacity="1" fill="#2f2e41" fill-opacity="1"></use><g><use xlink:href="#a3ZwvL5pi" opacity="1" fill-opacity="0" stroke="#000000" stroke-width="1" stroke-opacity="0"></use></g></g><g><use xlink:href="#cUAFtxAO9" opacity="1" fill="#2f2e41" fill-opacity="1"></use><g><use xlink:href="#cUAFtxAO9" opacity="1" fill-opacity="0" stroke="#000000" stroke-width="1" stroke-opacity="0"></use></g></g><g><use xlink:href="#b2f4zKXBnS" opacity="1" fill="#2f2e41" fill-opacity="1"></use><g><use xlink:href="#b2f4zKXBnS" opacity="1" fill-opacity="0" stroke="#000000" stroke-width="1" stroke-opacity="0"></use></g></g><g><use xlink:href="#cqLjK9NjG" opacity="1" fill="#2f2e41" fill-opacity="1"></use><g><use xlink:href="#cqLjK9NjG" opacity="1" fill-opacity="0" stroke="#000000" stroke-width="1" stroke-opacity="0"></use></g></g><g><use xlink:href="#cielYipXX" opacity="1" fill="#d18e59" fill-opacity="1"></use><g><use xlink:href="#cielYipXX" opacity="1" fill-opacity="0" stroke="#000000" stroke-width="1" stroke-opacity="0"></use></g></g><g><use xlink:href="#ca0YtnvLX" opacity="1" fill="#d18e59" fill-opacity="1"></use><g><use xlink:href="#ca0YtnvLX" opacity="1" fill-opacity="0" stroke="#000000" stroke-width="1" stroke-opacity="0"></use></g></g><g><use xlink:href="#e23jcMaLMf" opacity="1" fill="#d18e59" fill-opacity="1"></use><g><use xlink:href="#e23jcMaLMf" opacity="1" fill-opacity="0" stroke="#000000" stroke-width="1" stroke-opacity="0"></use></g></g><g><use xlink:href="#befPupRP" opacity="1" fill="#f0f0f0" fill-opacity="1"></use><g><use xlink:href="#befPupRP" opacity="1" fill-opacity="0" stroke="#000000" stroke-width="1" stroke-opacity="0"></use></g></g><g><use xlink:href="#b1aomJLFGb" opacity="1" fill="#000000" fill-opacity="1"></use><g><use xlink:href="#b1aomJLFGb" opacity="1" fill-opacity="0" stroke="#000000" stroke-width="1" stroke-opacity="0"></use></g></g><g><use xlink:href="#a942aVKFx" opacity="1" fill="#000000" fill-opacity="1"></use><g><use xlink:href="#a942aVKFx" opacity="1" fill-opacity="0" stroke="#000000" stroke-width="1" stroke-opacity="0"></use></g></g><g><use xlink:href="#a7OwjLqo9o" opacity="1" fill="#f0f0f0" fill-opacity="1"></use><g><use xlink:href="#a7OwjLqo9o" opacity="1" fill-opacity="0" stroke="#000000" stroke-width="1" stroke-opacity="0"></use></g></g><g><use xlink:href="#buLfrfvsx" opacity="1" fill="#f0f0f0" fill-opacity="1"></use><g><use xlink:href="#buLfrfvsx" opacity="1" fill-opacity="0" stroke="#000000" stroke-width="1" stroke-opacity="0"></use></g></g><g><use xlink:href="#b7iItyxZoZ" opacity="1" fill="#2f2e41" fill-opacity="1"></use><g><use xlink:href="#b7iItyxZoZ" opacity="1" fill-opacity="0" stroke="#000000" stroke-width="1" stroke-opacity="0"></use></g></g><g><use xlink:href="#m3ypLITUKX" opacity="1" fill="#e6e6e6" fill-opacity="1"></use><g><use xlink:href="#m3ypLITUKX" opacity="1" fill-opacity="0" stroke="#000000" stroke-width="1" stroke-opacity="0"></use></g></g><g><use xlink:href="#bTWalEgRQ" opacity="1" fill="#ffffff" fill-opacity="1"></use><g><use xlink:href="#bTWalEgRQ" opacity="1" fill-opacity="0" stroke="#000000" stroke-width="1" stroke-opacity="0"></use></g></g><g><use xlink:href="#a2nYRsKNS1" opacity="1" fill="url(#gradienta97dSQaYV)"></use><g><use xlink:href="#a2nYRsKNS1" opacity="1" fill-opacity="0" stroke="#000000" stroke-width="1" stroke-opacity="0"></use></g></g><g><use xlink:href="#d1h5zbXwTR" opacity="1" fill="#ffffff" fill-opacity="1"></use><g><use xlink:href="#d1h5zbXwTR" opacity="1" fill-opacity="0" stroke="#000000" stroke-width="1" stroke-opacity="0"></use></g></g><g><use xlink:href="#d2D5F2kYHN" opacity="1" fill="#ffffff" fill-opacity="1"></use><g><use xlink:href="#d2D5F2kYHN" opacity="1" fill-opacity="0" stroke="#000000" stroke-width="1" stroke-opacity="0"></use></g></g><g><use xlink:href="#c3lGJjnzeG" opacity="1" fill="#ffffff" fill-opacity="1"></use><g><use xlink:href="#c3lGJjnzeG" opacity="1" fill-opacity="0" stroke="#000000" stroke-width="1" stroke-opacity="0"></use></g></g><g><use xlink:href="#akP8C73Sb" opacity="1" fill="url(#gradienta48xd37MnA)"></use><g><use xlink:href="#akP8C73Sb" opacity="1" fill-opacity="0" stroke="#000000" stroke-width="1" stroke-opacity="0"></use></g></g><g><use xlink:href="#e3sCszLWN" opacity="1" fill="url(#gradienta2aX9yWXqT)"></use><g><use xlink:href="#e3sCszLWN" opacity="1" fill-opacity="0" stroke="#000000" stroke-width="1" stroke-opacity="0"></use></g></g><g><use xlink:href="#aUp3lX6fy" opacity="1" fill="#e6e6e6" fill-opacity="1"></use><g><use xlink:href="#aUp3lX6fy" opacity="1" fill-opacity="0" stroke="#000000" stroke-width="1" stroke-opacity="0"></use></g></g><g><use xlink:href="#gejv9gnmP" opacity="1" fill="#e6e6e6" fill-opacity="1"></use><g><use xlink:href="#gejv9gnmP" opacity="1" fill-opacity="0" stroke="#000000" stroke-width="1" stroke-opacity="0"></use></g></g><g><use xlink:href="#a1MZO72sYK" opacity="1" fill="#e6e6e6" fill-opacity="1"></use><g><use xlink:href="#a1MZO72sYK" opacity="1" fill-opacity="0" stroke="#000000" stroke-width="1" stroke-opacity="0"></use></g></g><g><use xlink:href="#a59jcm5kMf" opacity="1" fill="url(#gradientcLKQ9OYhx)"></use><g><use xlink:href="#a59jcm5kMf" opacity="1" fill-opacity="0" stroke="#000000" stroke-width="1" stroke-opacity="0"></use></g></g><g><use xlink:href="#a2j7Tq5otb" opacity="1" fill="url(#gradientaqYfPrjqc)"></use><g><use xlink:href="#a2j7Tq5otb" opacity="1" fill-opacity="0" stroke="#000000" stroke-width="1" stroke-opacity="0"></use></g></g><g><use xlink:href="#heDLtEQHp" opacity="1" fill="#e6e6e6" fill-opacity="1"></use><g><use xlink:href="#heDLtEQHp" opacity="1" fill-opacity="0" stroke="#000000" stroke-width="1" stroke-opacity="0"></use></g></g><g><use xlink:href="#a1ARTYhcsg" opacity="1" fill="#e6e6e6" fill-opacity="1"></use><g><use xlink:href="#a1ARTYhcsg" opacity="1" fill-opacity="0" stroke="#000000" stroke-width="1" stroke-opacity="0"></use></g></g></g></g></svg>