<?xml version="1.0" encoding="UTF-8" standalone="no"?>
<!DOCTYPE svg PUBLIC "-//W3C//DTD SVG 1.1//EN" "http://www.w3.org/Graphics/SVG/1.1/DTD/svg11.dtd">
<svg version="1.1" xmlns="http://www.w3.org/2000/svg" xmlns:xlink="http://www.w3.org/1999/xlink" preserveAspectRatio="xMidYMid meet" viewBox="0 0 649 600" width="649" height="600"><defs><path d="M590.93 479.89C559.36 433 541.82 406.95 538.32 401.74C538.32 401.74 618 429.56 608.96 479.89C606.55 479.89 600.54 479.89 590.93 479.89Z" id="c22ls69HuF"></path><path d="M43.52 480.37C44.29 458.16 46.66 436.04 50.61 414.17C59.25 367.35 73.61 336.6 93.3 322.77C93.41 322.94 94.33 324.25 94.45 324.41C48.45 356.7 45.54 479.18 45.52 480.41C45.12 480.4 43.72 480.38 43.52 480.37Z" id="cI7eoCzWP"></path><path d="M68.49 479.9C68.53 477.68 69.78 425.55 90.3 411.14C90.42 411.3 91.33 412.61 91.45 412.78C71.75 426.6 70.49 479.4 70.48 479.93C70.08 479.93 68.69 479.9 68.49 479.9Z" id="a3jGLPkzV5"></path><path d="M105.81 304.62C100.29 304.62 95.82 309.09 95.82 314.6C95.82 320.12 100.29 324.59 105.81 324.59C111.32 324.59 115.8 320.12 115.8 314.6C115.8 309.09 111.32 304.62 105.81 304.62Z" id="b5GRodLxCJ"></path><path d="M101.44 391.17C95.92 391.17 91.45 395.64 91.45 401.15C91.45 406.67 95.92 411.14 101.44 411.14C106.95 411.14 111.42 406.67 111.42 401.15C111.42 395.64 106.95 391.17 101.44 391.17Z" id="aUBPItCBw"></path><path d="M62.81 353.29C62.81 353.29 54.88 344.57 53 332.59C51.12 320.6 56.02 309.87 56.02 309.87C56.02 309.87 63.95 318.59 65.83 330.58C67.71 342.57 63.42 348.75 62.81 353.29Z" id="a1TOGhn2mv"></path><path d="M75.58 360.68C75.58 360.68 82.78 351.35 94.26 347.41C105.74 343.48 117.15 346.42 117.15 346.42C117.15 346.42 109.95 355.76 98.47 359.69C87 363.63 80.16 360.48 75.58 360.68Z" id="kmdLOb1Ct"></path><path d="M82.8 436.45C89.7 427.67 101.1 423.76 111.93 426.46C108.46 430.65 103.95 433.86 98.84 435.76C93.65 437.39 88.12 437.63 82.8 436.45Z" id="a69NA4r3Me"></path><path d="M1.41 481.89C0.86 481.89 0.41 481.44 0.41 480.89C0.41 480.34 0.86 479.89 1.41 479.89C66.03 479.89 582.97 479.89 647.59 479.89C648.14 479.89 648.59 480.34 648.59 480.89C648.59 481.44 648.14 481.89 647.59 481.89C518.35 481.89 66.03 481.89 1.41 481.89Z" id="bXs6vB5LE"></path><path d="M401.51 549.2L315.6 527.8L327.66 496.42L409.68 527.93L409.68 527.93L401.51 549.2Z" id="b1t0Kcqiwv"></path><path d="M432.38 530.43L406.04 599C405.52 598.8 405.23 598.69 405.17 598.67C390.43 593 383.07 576.46 388.73 561.72C388.73 561.72 388.73 561.72 388.73 561.72L404.82 519.84L432.38 530.43Z" id="c1viMTBxci"></path><path d="M279.13 261.66L241.69 265.17C240.58 332.01 239.96 369.14 239.83 376.57C240.87 387.92 250.78 396.37 262.16 395.59C263.74 395.48 271.65 394.93 285.9 393.95L279.13 261.66Z" id="a3hqT3qMQ"></path><path d="M411.13 256.18L385.51 255.85L383.99 388.22C383.99 388.22 383.99 388.22 383.99 388.22C406.75 388.97 425.81 371.14 426.57 348.38C426.61 347.39 426.6 346.4 426.56 345.42C424.51 333.52 419.36 303.77 411.13 256.18Z" id="c1ECjvns8"></path><path d="M259.84 446.58C258.55 450.22 256.56 453.58 255.37 457.25C251.61 468.96 256.83 482.01 265.17 491.05C272.41 498.85 281.74 504.4 292.06 507.01C299.58 508.91 307.41 509.18 315.16 509.44C336.64 510.17 358.67 510.82 379.02 503.92C385.45 501.69 391.66 498.86 397.57 495.49C399.43 494.6 401.08 493.31 402.38 491.7C403.93 489.49 404.13 486.63 404.12 483.93C404.07 474.82 402.23 465.77 402.67 456.67C402.91 451.63 403.85 446.6 403.39 441.58C402.07 429.9 393.56 420.3 382.11 417.6C376.34 416.36 370.35 417.03 364.47 417.6C349.22 419.07 333.9 419.75 318.57 419.65C302.91 419.55 287.35 417.16 271.77 416.91C267.16 416.84 267.26 418.26 265.79 422.72C264.44 426.82 263.33 431 262.48 435.24C261.87 439.08 260.99 442.87 259.84 446.58Z" id="a1S4FDKvUe"></path><path d="M188.36 426.47C170.62 427.45 157.04 442.63 158.02 460.36C158.09 461.72 158.25 463.06 158.5 464.39C159.55 469.26 161.27 473.95 163.6 478.35C167.02 485.28 171.12 492.2 177.45 496.65C181.15 499.25 185.43 500.87 189.67 502.46C193 503.72 219.66 513.76 222.99 515.02C227.9 516.87 232.8 518.71 237.75 520.43C262.62 529.02 288.56 534.18 314.83 535.75C322.83 536.23 330.96 536.36 338.76 534.54C340.61 534.1 342.59 533.46 343.66 531.89C344.3 530.78 344.67 529.55 344.76 528.27C344.96 526.84 346.6 515.35 346.81 513.92C347.1 511.89 347.38 509.77 346.64 507.86C345.7 505.45 343.34 503.93 341.1 502.64C319.19 490.06 293.6 483.12 275.16 465.85C270.82 461.78 267.19 455.34 261.91 452.57C255.93 449.44 248.89 447.65 242.7 444.77C229.19 438.46 215.9 431.21 201.25 427.84C197.04 426.78 192.7 426.32 188.36 426.47Z" id="a2LWcZe4f"></path><path d="M304.56 485.39C303.41 485.8 264.65 464.07 263.48 463.72C252.91 460.55 242.28 457.36 232.23 452.71C230.21 451.78 219.11 447.38 219.61 444.84C220.18 441.96 232.43 446.54 234.52 447.2C246.3 450.89 296.03 476.46 304.56 485.39Z" id="a2xctpFlsV"></path><path d="M305.61 224.22C286.58 238.67 276.01 246.69 273.89 248.3C273.89 248.3 240.43 249.35 241.56 270.74C241.56 270.74 256.08 393.42 256.08 393.42C256.28 395.74 257.25 407.36 258.99 428.27C292.06 437.7 310.44 442.93 314.11 443.98C343.9 452.47 375.36 453.14 405.48 445.94C405.48 445.94 405.48 445.94 405.48 445.94C401.55 424.96 399.37 413.3 398.93 410.97C398.93 410.97 425.46 252.18 409.48 245.19C409.48 245.19 383.51 240.2 383.51 240.2C382.18 239.03 375.5 233.21 363.48 222.72L305.61 224.22Z" id="a6GnShi7IA"></path><path d="M334.93 211.85C299.27 211.85 270.36 216.58 270.36 185.32C270.36 154.06 284.48 98.65 334.93 98.65C387.11 98.65 399.49 154.06 399.49 185.32C399.49 216.58 370.59 211.85 334.93 211.85Z" id="kANfgFUOx"></path><path d="M307.05 134.47C290.08 151.44 290.08 178.95 307.05 195.91C324.02 212.88 351.52 212.88 368.49 195.91C385.46 178.95 385.46 151.44 368.49 134.47C351.52 117.51 324.02 117.51 307.05 134.47Z" id="be7S4ZAKn"></path><path d="M284.51 164.09L301.7 164.09L309.28 142.87L310.79 164.09L319.01 164.09L323.43 151.71L324.31 164.09L385.34 164.09C385.34 164.09 385.34 164.09 385.34 164.09C385.34 138.69 364.75 118.1 339.35 118.1C338.47 118.1 331.39 118.1 330.51 118.1C305.11 118.1 284.51 138.69 284.51 164.09C284.51 164.09 284.51 164.09 284.51 164.09Z" id="fUATv7Pds"></path><path d="M378.52 229.21C378.52 229.21 378.52 229.21 378.52 229.21C378.52 292.13 378.52 327.09 378.52 334.08C378.52 334.08 378.52 334.08 378.52 334.08C326.38 334.08 297.42 334.08 291.63 334.08C291.63 334.08 291.63 334.08 291.63 334.08C291.63 271.16 291.63 236.2 291.63 229.21C291.63 229.21 291.63 229.21 291.63 229.21C343.76 229.21 372.73 229.21 378.52 229.21Z" id="n3dIICDw6g"></path><linearGradient id="gradientfrdBqPif" gradientUnits="userSpaceOnUse" x1="304.56" y1="281.64" x2="362.64" y2="281.64"><stop style="stop-color: #5f8bd7;stop-opacity: 1" offset="0%"></stop><stop style="stop-color: #fc7b8a;stop-opacity: 1" offset="100%"></stop></linearGradient><path d="M304.59 548.2L390.5 526.8L378.44 495.42L296.42 526.93L296.42 526.93L304.59 548.2Z" id="d17aaDfJI0"></path><path d="M301.28 518.84L317.37 560.72C317.37 560.72 317.37 560.72 317.37 560.72C323.03 575.46 315.67 592 300.93 597.67C300.87 597.69 300.58 597.8 300.06 598L273.72 529.43L301.28 518.84Z" id="aGhc6QhGq"></path><path d="M489.28 418.26C494.93 418.88 500.75 420.45 504.88 424.36C509.9 429.12 511.51 436.48 511.64 443.4C511.86 457.17 507.3 470.59 498.72 481.37C496.62 484.1 494.13 486.5 491.33 488.49C488.3 490.38 485.08 491.93 481.71 493.12C474.25 496.07 414.54 519.62 407.08 522.56C387.45 530.3 367.74 538.07 347.26 543.18C344.94 544.29 342.16 543.32 341.04 541C341.01 540.95 340.99 540.91 340.99 540.9C334.45 531.56 328.96 521.53 324.63 510.98C323.93 510.12 324.05 508.85 324.92 508.14C325.1 507.99 325.3 507.88 325.52 507.8C330.8 504.77 373.03 480.5 378.31 477.47C382.09 475.3 385.92 473.09 389.06 470.07C391.34 467.86 393.21 465.25 394.57 462.39C395.67 460.1 395.77 454.71 397.17 453.02C398.54 451.36 403.22 451.23 405.38 450.58C408.43 449.65 411.41 448.52 414.32 447.2C426.13 441.92 436.64 434.24 447.96 428.06C454.31 424.43 461.1 421.62 468.15 419.7C475.05 417.97 482.21 417.48 489.28 418.26Z" id="a6v7qh4ua4"></path><path d="M408.43 462.42C405.36 464.8 354.22 493.55 353.49 497.37C361.88 498.78 415.3 461.41 422.94 457.68C430.59 453.96 437.36 448.7 444.07 443.48C445.78 442.15 453.04 438.15 448.12 436.66C445.36 435.82 440.27 440.99 438.23 442.35C429.16 449.16 417.41 455.42 408.43 462.42Z" id="dicuK937J"></path><path d="M601.24 117.07C618.47 117.07 632.44 131.04 632.44 148.28C632.44 165.52 618.47 179.49 601.24 179.49C584 179.49 570.03 165.52 570.03 148.28C570.03 131.04 584 117.07 601.24 117.07Z" id="apqnqZreQ"></path><path d="M543.48 141.29C531.39 141.29 521.58 151.09 521.58 163.18C521.58 175.28 531.39 185.08 543.48 185.08C555.57 185.08 565.37 175.28 565.37 163.18C565.37 151.09 555.57 141.29 543.48 141.29Z" id="ijL0aSj29"></path><path d="M142.44 135.69C132.75 135.69 124.89 143.55 124.89 153.24C124.89 162.94 132.75 170.8 142.44 170.8C152.14 170.8 160 162.94 160 153.24C160 143.55 152.14 135.69 142.44 135.69Z" id="cMqallxik"></path><path d="M171.34 157.97C164.54 157.97 159.03 163.49 159.03 170.29C159.03 177.09 164.54 182.6 171.34 182.6C178.15 182.6 183.66 177.09 183.66 170.29C183.66 163.49 178.15 157.97 171.34 157.97Z" id="a1pJ0fF5em"></path><path d="M341.63 0C334.22 0 328.21 6.01 328.21 13.42C328.21 20.83 334.22 26.84 341.63 26.84C349.04 26.84 355.05 20.83 355.05 13.42C355.05 6.01 349.04 0 341.63 0Z" id="c4SfFBWXx"></path><path d="M261.67 296.13C262.39 290.57 262.79 287.49 262.87 286.87C262.87 286.87 307.61 290.13 300.62 301.12C300.62 301.12 276.65 313.11 276.65 313.11C274.65 310.84 269.66 305.18 261.67 296.13Z" id="c7gwO5NrO"></path><path d="M308.15 263.67C308.15 263.67 308.15 263.67 308.15 263.67C313.42 271.74 311.15 282.56 303.08 287.83C302.88 287.96 302.68 288.08 302.47 288.21C301.73 288.64 300.96 289.02 300.16 289.34C297.41 297.75 275.41 365.05 272.66 373.46C269.32 380.42 260.97 383.35 254.02 380.01C247.06 376.67 244.13 368.33 247.47 361.37C247.49 361.32 247.51 361.28 247.53 361.23C250.46 352.91 273.86 286.36 276.78 278.04C274.1 268.8 279.43 259.13 288.68 256.45C290.87 255.82 293.17 255.62 295.44 255.87C300.63 256.44 305.29 259.3 308.15 263.67Z" id="e2YlavqA3G"></path><path d="M262.08 287.66C262.08 287.66 277.83 314.58 300.62 301.12C299.14 306.75 291.79 334.92 278.54 385.61L259.94 385.61L240.69 382.02L246.08 347.11C254.61 315.4 259.94 295.58 262.08 287.66Z" id="a2fLWADaPU"></path><path d="M361.54 288.14C361.54 288.14 367.81 269.55 392.14 276.35C392.14 276.35 407.62 311 374.59 306.06C371.98 302.47 362.85 289.93 361.54 288.14Z" id="f5N7fFGHTG"></path><path d="M361.54 288.14C361.54 288.14 367.81 269.55 392.14 276.35C392.14 276.35 407.62 311 374.59 306.06C371.98 302.47 362.85 289.93 361.54 288.14Z" id="a1w8sfBefA"></path><path d="M387.37 264.06C390.3 272.38 413.69 338.93 416.62 347.25C420.04 354.17 417.2 362.55 410.28 365.96C403.36 369.38 394.98 366.54 391.56 359.62C391.54 359.57 391.52 359.53 391.5 359.48C388.75 351.07 366.74 283.77 363.99 275.36C363.2 275.04 362.42 274.66 361.68 274.22C353.4 269.29 350.69 258.57 355.63 250.3C355.75 250.09 355.88 249.89 356.01 249.69C356.01 249.69 356.01 249.69 356.01 249.69C358.86 245.32 363.53 242.46 368.71 241.89C371.91 241.53 375.14 242.06 378.05 243.44C385.83 247.06 389.8 255.83 387.37 264.06Z" id="b1i8l4FyJp"></path><path d="M361.54 288.14C361.54 288.14 383.08 301.21 392.14 276.35C394.17 281.67 404.28 308.31 422.49 356.26L413.47 372.03C412.69 372.1 412.26 372.13 412.17 372.14C401.25 373.05 390.58 368.54 383.62 360.07C383.62 360.07 383.62 360.07 383.62 360.07C376.63 351.56 371.88 341.44 369.78 330.63C368.13 322.13 363.19 296.64 361.54 288.14Z" id="c3jB6zcxd3"></path></defs><g><g><g><use xlink:href="#c22ls69HuF" opacity="1" fill="#e5e5e5" fill-opacity="1"></use><g><use xlink:href="#c22ls69HuF" opacity="1" fill-opacity="0" stroke="#000000" stroke-width="1" stroke-opacity="0"></use></g></g><g><use xlink:href="#cI7eoCzWP" opacity="1" fill="#e5e5e5" fill-opacity="1"></use><g><use xlink:href="#cI7eoCzWP" opacity="1" fill-opacity="0" stroke="#000000" stroke-width="1" stroke-opacity="0"></use></g></g><g><use xlink:href="#a3jGLPkzV5" opacity="1" fill="#e5e5e5" fill-opacity="1"></use><g><use xlink:href="#a3jGLPkzV5" opacity="1" fill-opacity="0" stroke="#000000" stroke-width="1" stroke-opacity="0"></use></g></g><g><use xlink:href="#b5GRodLxCJ" opacity="1" fill="#5f8bd7" fill-opacity="1"></use><g><use xlink:href="#b5GRodLxCJ" opacity="1" fill-opacity="0" stroke="#000000" stroke-width="1" stroke-opacity="0"></use></g></g><g><use xlink:href="#aUBPItCBw" opacity="1" fill="#fc7b8a" fill-opacity="1"></use><g><use xlink:href="#aUBPItCBw" opacity="1" fill-opacity="0" stroke="#000000" stroke-width="1" stroke-opacity="0"></use></g></g><g><use xlink:href="#a1TOGhn2mv" opacity="1" fill="#e5e5e5" fill-opacity="1"></use><g><use xlink:href="#a1TOGhn2mv" opacity="1" fill-opacity="0" stroke="#000000" stroke-width="1" stroke-opacity="0"></use></g></g><g><use xlink:href="#kmdLOb1Ct" opacity="1" fill="#e5e5e5" fill-opacity="1"></use><g><use xlink:href="#kmdLOb1Ct" opacity="1" fill-opacity="0" stroke="#000000" stroke-width="1" stroke-opacity="0"></use></g></g><g><use xlink:href="#a69NA4r3Me" opacity="1" fill="#e5e5e5" fill-opacity="1"></use><g><use xlink:href="#a69NA4r3Me" opacity="1" fill-opacity="0" stroke="#000000" stroke-width="1" stroke-opacity="0"></use></g></g><g><use xlink:href="#bXs6vB5LE" opacity="1" fill="#cbcbcb" fill-opacity="1"></use><g><use xlink:href="#bXs6vB5LE" opacity="1" fill-opacity="0" stroke="#000000" stroke-width="1" stroke-opacity="0"></use></g></g><g><use xlink:href="#b1t0Kcqiwv" opacity="1" fill="#ffb7b7" fill-opacity="1"></use><g><use xlink:href="#b1t0Kcqiwv" opacity="1" fill-opacity="0" stroke="#000000" stroke-width="1" stroke-opacity="0"></use></g></g><g><use xlink:href="#c1viMTBxci" opacity="1" fill="#2f2e41" fill-opacity="1"></use><g><use xlink:href="#c1viMTBxci" opacity="1" fill-opacity="0" stroke="#000000" stroke-width="1" stroke-opacity="0"></use></g></g><g><use xlink:href="#a3hqT3qMQ" opacity="1" fill="#e5e5e5" fill-opacity="1"></use><g><use xlink:href="#a3hqT3qMQ" opacity="1" fill-opacity="0" stroke="#000000" stroke-width="1" stroke-opacity="0"></use></g></g><g><use xlink:href="#c1ECjvns8" opacity="1" fill="#e5e5e5" fill-opacity="1"></use><g><use xlink:href="#c1ECjvns8" opacity="1" fill-opacity="0" stroke="#000000" stroke-width="1" stroke-opacity="0"></use></g></g><g><use xlink:href="#a1S4FDKvUe" opacity="1" fill="#2f2e41" fill-opacity="1"></use><g><use xlink:href="#a1S4FDKvUe" opacity="1" fill-opacity="0" stroke="#000000" stroke-width="1" stroke-opacity="0"></use></g></g><g><use xlink:href="#a2LWcZe4f" opacity="1" fill="#2f2e41" fill-opacity="1"></use><g><use xlink:href="#a2LWcZe4f" opacity="1" fill-opacity="0" stroke="#000000" stroke-width="1" stroke-opacity="0"></use></g></g><g><use xlink:href="#a2xctpFlsV" opacity="1" fill="#000000" fill-opacity="1"></use><g><use xlink:href="#a2xctpFlsV" opacity="1" fill-opacity="0" stroke="#000000" stroke-width="1" stroke-opacity="0"></use></g></g><g><use xlink:href="#a6GnShi7IA" opacity="1" fill="#e5e5e5" fill-opacity="1"></use><g><use xlink:href="#a6GnShi7IA" opacity="1" fill-opacity="0" stroke="#000000" stroke-width="1" stroke-opacity="0"></use></g></g><g><use xlink:href="#kANfgFUOx" opacity="1" fill="#2f2e41" fill-opacity="1"></use><g><use xlink:href="#kANfgFUOx" opacity="1" fill-opacity="0" stroke="#000000" stroke-width="1" stroke-opacity="0"></use></g></g><g><use xlink:href="#be7S4ZAKn" opacity="1" fill="#ffb7b7" fill-opacity="1"></use><g><use xlink:href="#be7S4ZAKn" opacity="1" fill-opacity="0" stroke="#000000" stroke-width="1" stroke-opacity="0"></use></g></g><g><use xlink:href="#fUATv7Pds" opacity="1" fill="#2f2e41" fill-opacity="1"></use><g><use xlink:href="#fUATv7Pds" opacity="1" fill-opacity="0" stroke="#000000" stroke-width="1" stroke-opacity="0"></use></g></g><g><use xlink:href="#n3dIICDw6g" opacity="1" fill="url(#gradientfrdBqPif)"></use><g><use xlink:href="#n3dIICDw6g" opacity="1" fill-opacity="0" stroke="#000000" stroke-width="1" stroke-opacity="0"></use></g></g><g><use xlink:href="#d17aaDfJI0" opacity="1" fill="#ffb7b7" fill-opacity="1"></use><g><use xlink:href="#d17aaDfJI0" opacity="1" fill-opacity="0" stroke="#000000" stroke-width="1" stroke-opacity="0"></use></g></g><g><use xlink:href="#aGhc6QhGq" opacity="1" fill="#2f2e41" fill-opacity="1"></use><g><use xlink:href="#aGhc6QhGq" opacity="1" fill-opacity="0" stroke="#000000" stroke-width="1" stroke-opacity="0"></use></g></g><g><use xlink:href="#a6v7qh4ua4" opacity="1" fill="#2f2e41" fill-opacity="1"></use><g><use xlink:href="#a6v7qh4ua4" opacity="1" fill-opacity="0" stroke="#000000" stroke-width="1" stroke-opacity="0"></use></g></g><g><use xlink:href="#dicuK937J" opacity="1" fill="#000000" fill-opacity="1"></use><g><use xlink:href="#dicuK937J" opacity="1" fill-opacity="0" stroke="#000000" stroke-width="1" stroke-opacity="0"></use></g></g><g><use xlink:href="#apqnqZreQ" opacity="1" fill="#f1f1f1" fill-opacity="1"></use><g><use xlink:href="#apqnqZreQ" opacity="1" fill-opacity="0" stroke="#000000" stroke-width="1" stroke-opacity="0"></use></g></g><g><use xlink:href="#ijL0aSj29" opacity="1" fill="#f1f1f1" fill-opacity="1"></use><g><use xlink:href="#ijL0aSj29" opacity="1" fill-opacity="0" stroke="#000000" stroke-width="1" stroke-opacity="0"></use></g></g><g><use xlink:href="#cMqallxik" opacity="1" fill="#f1f1f1" fill-opacity="1"></use><g><use xlink:href="#cMqallxik" opacity="1" fill-opacity="0" stroke="#000000" stroke-width="1" stroke-opacity="0"></use></g></g><g><use xlink:href="#a1pJ0fF5em" opacity="1" fill="#f1f1f1" fill-opacity="1"></use><g><use xlink:href="#a1pJ0fF5em" opacity="1" fill-opacity="0" stroke="#000000" stroke-width="1" stroke-opacity="0"></use></g></g><g><use xlink:href="#c4SfFBWXx" opacity="1" fill="#f1f1f1" fill-opacity="1"></use><g><use xlink:href="#c4SfFBWXx" opacity="1" fill-opacity="0" stroke="#000000" stroke-width="1" stroke-opacity="0"></use></g></g><g><use xlink:href="#c7gwO5NrO" opacity="1" fill="#2f2e41" fill-opacity="1"></use><g><use xlink:href="#c7gwO5NrO" opacity="1" fill-opacity="0" stroke="#000000" stroke-width="1" stroke-opacity="0"></use></g></g><g><use xlink:href="#e2YlavqA3G" opacity="1" fill="#ffb7b7" fill-opacity="1"></use><g><use xlink:href="#e2YlavqA3G" opacity="1" fill-opacity="0" stroke="#000000" stroke-width="1" stroke-opacity="0"></use></g></g><g><use xlink:href="#a2fLWADaPU" opacity="1" fill="#e5e5e5" fill-opacity="1"></use><g><use xlink:href="#a2fLWADaPU" opacity="1" fill-opacity="0" stroke="#000000" stroke-width="1" stroke-opacity="0"></use></g></g><g><use xlink:href="#f5N7fFGHTG" opacity="1" fill="#e5e5e5" fill-opacity="1"></use><g><use xlink:href="#f5N7fFGHTG" opacity="1" fill-opacity="0" stroke="#000000" stroke-width="1" stroke-opacity="0"></use></g></g><g><use xlink:href="#a1w8sfBefA" opacity="1" fill="#2f2e41" fill-opacity="1"></use><g><use xlink:href="#a1w8sfBefA" opacity="1" fill-opacity="0" stroke="#000000" stroke-width="1" stroke-opacity="0"></use></g></g><g><use xlink:href="#b1i8l4FyJp" opacity="1" fill="#ffb7b7" fill-opacity="1"></use><g><use xlink:href="#b1i8l4FyJp" opacity="1" fill-opacity="0" stroke="#000000" stroke-width="1" stroke-opacity="0"></use></g></g><g><use xlink:href="#c3jB6zcxd3" opacity="1" fill="#e5e5e5" fill-opacity="1"></use><g><use xlink:href="#c3jB6zcxd3" opacity="1" fill-opacity="0" stroke="#000000" stroke-width="1" stroke-opacity="0"></use></g></g></g></g></svg>