<svg height="512pt" viewBox="-49 0 512 512" width="512pt" xmlns="http://www.w3.org/2000/svg"><path d="m370.054688 260.324219c-8.265626-12.917969-8.726563-29.339844-1.054688-42.625l31.15625-53.964844-13.84375-33.917969-40.464844 2.5625-20.632812 35.738282c-9.53125 16.511718-29.703125 23.328124-47.453125 16.375-21.78125-8.527344-45.484375-13.210938-70.289063-13.210938-11.589844 0-22.953125 1.027344-33.988281 2.992188-12.554687 2.234374-24.699219 5.683593-36.292969 10.21875-17.757812 6.953124-37.917968.136718-47.449218-16.375l-20.632813-35.738282-35.914063 6.632813-18.394531 24.722656 31.15625 53.964844c7.660157 13.285156 7.210938 29.707031-1.066406 42.625-19.199219 29.988281-30.34375 65.640625-30.34375 103.894531 0 106.546875 86.378906 147.78125 192.925781 147.78125 106.558594 0 192.9375-41.234375 192.9375-147.78125 0-38.253906-11.144531-73.90625-30.355468-103.894531zm0 0" fill="#5c5e71"/><path d="m207.472656 512c-106.546875 0-192.925781-41.234375-192.925781-147.78125 0-38.253906 11.144531-73.90625 30.34375-103.894531 8.277344-12.917969 8.726563-29.339844 1.066406-42.625l-31.15625-53.964844 18.726563-44.136719 35.582031 12.78125 20.632813 35.738282c9.53125 16.511718 29.691406 23.328124 47.449218 16.375 11.59375-4.535157 23.726563-7.984376 36.28125-10.21875v.019531c-60.101562 18.78125-195.382812 274.859375 34 337.707031zm0 0" fill="#3b3d4d"/><path d="m400.160156 54.582031c-19.734375-34.179687-55.070312-54.582031-94.527344-54.582031h-196.300781c-39.457031 0-74.808593 20.402344-94.53125 54.570312-19.730469 34.179688-19.730469 74.984376 0 109.160157l54.3125-31.355469c-8.394531-14.539062-8.394531-31.898438 0-46.4375 8.390625-14.550781 23.433594-23.226562 40.21875-23.226562h195.546875c16.816406 0 32.621094 8.707031 41.003906 23.289062 8.363282 14.527344 8.351563 31.859375-.03125 46.375l54.308594 31.355469c19.734375-34.175781 19.734375-74.980469 0-109.148438zm0 0" fill="#f64f44"/><path d="m163.085938.00390625h-53.757813c-39.457031 0-74.804687 20.40234375-94.527344 54.57031275-19.734375 34.179687-19.734375 74.984375 0 109.164062l54.308594-31.355469c-8.394531-14.539062-8.394531-31.902343 0-46.441406 8.394531-14.546875 23.433594-23.222656 40.21875-23.222656h55.804687c-46.992187-8.46875-55.804687-62.71484375-2.046874-62.71484375zm0 0" fill="#d22e29"/><path d="m293.511719 349.035156c0 47.515625-38.515625 86.035156-86.03125 86.035156s-86.035157-38.519531-86.035157-86.035156 38.519532-86.035156 86.035157-86.035156 86.03125 38.519531 86.03125 86.035156zm0 0" fill="#7d808e"/><g fill="#3b3d4d"><path d="m187.847656 347.886719 16.472656-20.609375c.714844-.917969.796876-1.855469.796876-2.480469 0-3.269531-4.128907-6.46875-7.210938-6.46875-1.511719 0-2.636719.59375-3.546875 1.871094l-19.542969 26.597656v-24.5c0-2.738281-3.15625-3.96875-6.285156-3.96875-2.898438 0-6.285156 1.039063-6.285156 3.96875v60.230469c0 2.789062 3.257812 4.0625 6.285156 4.0625 3.121094 0 6.285156-1.394532 6.285156-4.0625v-18.070313l4.722656-5.945312 17.21875 26.097656c.960938 1.574219 2.519532 2.441406 4.390626 2.441406 3.710937 0 7.488281-3.171875 7.488281-6.285156 0-.867187-.234375-1.632813-.691407-2.273437zm0 0"/><path d="m258.132812 350.480469h-15.753906c-2.578125 0-3.964844 2.570312-3.964844 4.988281 0 2.476562 1.359376 4.988281 3.964844 4.988281h7.246094v5.203125c0 6.800782-3.277344 10.394532-9.46875 10.394532-6.222656 0-9.375-3.496094-9.375-10.394532v-25.851562c0-6.898438 3.183594-10.394532 9.46875-10.394532 7.804688 0 9.109375 4.773438 9.375 8.921876.085938 2.648437 2.257812 4.050781 6.285156 4.050781 3.878906 0 6.285156-1.003907 6.285156-6.007813 0-10.796875-9.007812-18.050781-22.410156-18.050781-18.769531 0-21.570312 13.457031-21.570312 21.480469v25.851562c0 13.851563 7.792968 21.480469 21.941406 21.480469 14.210938 0 22.039062-7.628906 22.039062-21.480469v-11.027344c-.003906-2.0625-1.398437-4.152343-4.0625-4.152343zm0 0"/><path d="m207.480469 442.910156c-51.761719 0-93.875-42.113281-93.875-93.875 0-51.761718 42.113281-93.875 93.875-93.875 51.757812 0 93.871093 42.113282 93.871093 93.875 0 51.761719-42.109374 93.875-93.871093 93.875zm0-172.070312c-43.117188 0-78.195313 35.078125-78.195313 78.195312 0 43.117188 35.078125 78.195313 78.195313 78.195313 43.113281 0 78.191406-35.078125 78.191406-78.195313.003906-43.117187-35.074219-78.195312-78.191406-78.195312zm0 0"/></g></svg>