<?xml version="1.0" encoding="UTF-8" standalone="no" ?>
<!DOCTYPE svg PUBLIC "-//W3C//DTD SVG 1.1//EN" "http://www.w3.org/Graphics/SVG/1.1/DTD/svg11.dtd">
<svg xmlns="http://www.w3.org/2000/svg" xmlns:xlink="http://www.w3.org/1999/xlink" version="1.1" width="65" height="65" viewBox="0 0 65 65" xml:space="preserve">
<desc>Created with Fabric.js 4.6.0</desc>
<defs>
</defs>
<g transform="matrix(1 0 0 1 32.77 32.77)" id="tDBq3soKB6I4sPnx6W4er"  >
<path style="stroke: none; stroke-width: 1; stroke-dasharray: none; stroke-linecap: butt; stroke-dashoffset: 0; stroke-linejoin: miter; stroke-miterlimit: 4; fill: rgb(220,61,130); fill-rule: nonzero; opacity: 1;" vector-effect="non-scaling-stroke"  transform=" translate(0, 0)" d="M 0 -32 C 17.7 -32 32 -17.7 32 0 C 32 17.7 17.7 32 0 32 C -17.7 32 -32 17.7 -32 0 C -32 -17.7 -17.7 -32 0 -32 z" stroke-linecap="round" />
</g>
<g transform="matrix(1 0 0 1 32.77 35.27)" id="MiIb5JEOewl3Bd9KfFicc"  >
<path style="stroke: none; stroke-width: 1; stroke-dasharray: none; stroke-linecap: butt; stroke-dashoffset: 0; stroke-linejoin: miter; stroke-miterlimit: 4; fill: rgb(66,76,114); fill-rule: nonzero; opacity: 1;" vector-effect="non-scaling-stroke"  transform=" translate(-32, -34.5)" d="M 52 17 L 12 17 C 11.4 17 11 17.4 11 18 L 11 48 C 11 48.6 11.4 49 12 49 L 26.3 49 C 27.3 49 28.2 49.4 28.7 50.2 C 29.4 51.300000000000004 30.599999999999998 52 32 52 C 33.400000000000006 52 34.6 51.3 35.3 50.2 C 35.8 49.400000000000006 36.8 49 37.699999999999996 49 L 52 49 C 52.6 49 53 48.6 53 48 L 53 18 C 53 17.4 52.6 17 52 17 z" stroke-linecap="round" />
</g>
<g transform="matrix(1 0 0 1 32.77 38.77)" id="kHFfxj4xmhl-hSqQVUoFS"  >
<path style="stroke: none; stroke-width: 1; stroke-dasharray: none; stroke-linecap: butt; stroke-dashoffset: 0; stroke-linejoin: miter; stroke-miterlimit: 4; fill: rgb(228,231,239); fill-rule: nonzero; opacity: 1;" vector-effect="non-scaling-stroke"  transform=" translate(-32, -38)" d="M 14 28 L 14 46 L 30 46 C 31.1 46 32 46.9 32 48 C 32 46.9 32.9 46 34 46 L 50 46 L 50 28 L 14 28 z" stroke-linecap="round" />
</g>
<g transform="matrix(1 0 0 1 32.77 30.27)" id="EBbr23-u2sMJIIDZJ0hF4"  >
<path style="stroke: none; stroke-width: 1; stroke-dasharray: none; stroke-linecap: butt; stroke-dashoffset: 0; stroke-linejoin: miter; stroke-miterlimit: 4; fill: rgb(255,255,255); fill-rule: nonzero; opacity: 1;" vector-effect="non-scaling-stroke"  transform=" translate(-32, -29.5)" d="M 35 13 C 33.3 13 32 14.3 32 16 C 32 14.3 30.7 13 29 13 L 14 13 L 14 44 L 30 44 C 31.1 44 32 44.9 32 46 C 32 44.9 32.9 44 34 44 L 50 44 L 50 13 L 35 13 z" stroke-linecap="round" />
</g>
<g transform="matrix(1 0 0 1 20.77 20.27)" id="Q6RJF91tYggZ0YUEedq2U"  >
<path style="stroke: none; stroke-width: 1; stroke-dasharray: none; stroke-linecap: butt; stroke-dashoffset: 0; stroke-linejoin: miter; stroke-miterlimit: 4; fill: rgb(87,209,247); fill-rule: nonzero; opacity: 1;" vector-effect="non-scaling-stroke"  transform=" translate(-2, -3.5)" d="M 0 7 L 0 0 L 4 0 L 4 7 z" stroke-linecap="round" />
</g>
<g transform="matrix(1 0 0 1 24.27 26.77)" id="qpkP1JuzUSi1vGtFNAQlN"  >
<path style="stroke: none; stroke-width: 1; stroke-dasharray: none; stroke-linecap: butt; stroke-dashoffset: 0; stroke-linejoin: miter; stroke-miterlimit: 4; fill: rgb(228,231,239); fill-rule: nonzero; opacity: 1;" vector-effect="non-scaling-stroke"  transform=" translate(-23.5, -26)" d="M 29 26.5 L 18 26.5 C 17.7 26.5 17.5 26.3 17.5 26 C 17.5 25.7 17.7 25.5 18 25.5 L 29 25.5 C 29.3 25.5 29.5 25.7 29.5 26 C 29.5 26.3 29.3 26.5 29 26.5 z" stroke-linecap="round" />
</g>
<g transform="matrix(1 0 0 1 27.57 23.77)" id="eI9BhsukNOgVFDik21GxE"  >
<path style="stroke: none; stroke-width: 1; stroke-dasharray: none; stroke-linecap: butt; stroke-dashoffset: 0; stroke-linejoin: miter; stroke-miterlimit: 4; fill: rgb(228,231,239); fill-rule: nonzero; opacity: 1;" vector-effect="non-scaling-stroke"  transform=" translate(-26.8, -23)" d="M 29 23.5 L 24.6 23.5 C 24.3 23.5 24.1 23.3 24.1 23 C 24.1 22.7 24.3 22.5 24.6 22.5 L 29 22.5 C 29.3 22.5 29.5 22.7 29.5 23 C 29.5 23.3 29.3 23.5 29 23.5 z" stroke-linecap="round" />
</g>
<g transform="matrix(1 0 0 1 27.57 20.77)" id="Dv-NvP3gbbwIhjqcUxbn-"  >
<path style="stroke: none; stroke-width: 1; stroke-dasharray: none; stroke-linecap: butt; stroke-dashoffset: 0; stroke-linejoin: miter; stroke-miterlimit: 4; fill: rgb(228,231,239); fill-rule: nonzero; opacity: 1;" vector-effect="non-scaling-stroke"  transform=" translate(-26.8, -20)" d="M 29 20.5 L 24.6 20.5 C 24.3 20.5 24.1 20.3 24.1 20 C 24.1 19.7 24.3 19.5 24.6 19.5 L 29 19.5 C 29.3 19.5 29.5 19.7 29.5 20 C 29.5 20.3 29.3 20.5 29 20.5 z" stroke-linecap="round" />
</g>
<g transform="matrix(1 0 0 1 27.57 17.77)" id="KIipa6sn1T7U_rD6ac-o0"  >
<path style="stroke: none; stroke-width: 1; stroke-dasharray: none; stroke-linecap: butt; stroke-dashoffset: 0; stroke-linejoin: miter; stroke-miterlimit: 4; fill: rgb(228,231,239); fill-rule: nonzero; opacity: 1;" vector-effect="non-scaling-stroke"  transform=" translate(-26.8, -17)" d="M 29 17.5 L 24.6 17.5 C 24.3 17.5 24.1 17.3 24.1 17 C 24.1 16.7 24.3 16.5 24.6 16.5 L 29 16.5 C 29.3 16.5 29.5 16.7 29.5 17 C 29.5 17.3 29.3 17.5 29 17.5 z" stroke-linecap="round" />
</g>
<g transform="matrix(1 0 0 1 24.27 29.77)" id="yavK7GiF_IH9cDm1m_yrr"  >
<path style="stroke: none; stroke-width: 1; stroke-dasharray: none; stroke-linecap: butt; stroke-dashoffset: 0; stroke-linejoin: miter; stroke-miterlimit: 4; fill: rgb(228,231,239); fill-rule: nonzero; opacity: 1;" vector-effect="non-scaling-stroke"  transform=" translate(-23.5, -29)" d="M 29 29.5 L 18 29.5 C 17.7 29.5 17.5 29.3 17.5 29 C 17.5 28.7 17.7 28.5 18 28.5 L 29 28.5 C 29.3 28.5 29.5 28.7 29.5 29 C 29.5 29.3 29.3 29.5 29 29.5 z" stroke-linecap="round" />
</g>
<g transform="matrix(1 0 0 1 24.27 32.77)" id="J5NNbBlUrT41RDilzdYY9"  >
<path style="stroke: none; stroke-width: 1; stroke-dasharray: none; stroke-linecap: butt; stroke-dashoffset: 0; stroke-linejoin: miter; stroke-miterlimit: 4; fill: rgb(228,231,239); fill-rule: nonzero; opacity: 1;" vector-effect="non-scaling-stroke"  transform=" translate(-23.5, -32)" d="M 29 32.5 L 18 32.5 C 17.7 32.5 17.5 32.3 17.5 32 C 17.5 31.700000000000003 17.7 31.5 18 31.5 L 29 31.5 C 29.3 31.5 29.5 31.7 29.5 32 C 29.5 32.3 29.3 32.5 29 32.5 z" stroke-linecap="round" />
</g>
<g transform="matrix(1 0 0 1 24.27 35.77)" id="IJrgB5eoHl1WKh6sUJjMf"  >
<path style="stroke: none; stroke-width: 1; stroke-dasharray: none; stroke-linecap: butt; stroke-dashoffset: 0; stroke-linejoin: miter; stroke-miterlimit: 4; fill: rgb(228,231,239); fill-rule: nonzero; opacity: 1;" vector-effect="non-scaling-stroke"  transform=" translate(-23.5, -35)" d="M 29 35.5 L 18 35.5 C 17.7 35.5 17.5 35.3 17.5 35 C 17.5 34.7 17.7 34.5 18 34.5 L 29 34.5 C 29.3 34.5 29.5 34.7 29.5 35 C 29.5 35.3 29.3 35.5 29 35.5 z" stroke-linecap="round" />
</g>
<g transform="matrix(1 0 0 1 24.27 38.77)" id="cwoPPYJalbGqEdp5JEv4J"  >
<path style="stroke: none; stroke-width: 1; stroke-dasharray: none; stroke-linecap: butt; stroke-dashoffset: 0; stroke-linejoin: miter; stroke-miterlimit: 4; fill: rgb(228,231,239); fill-rule: nonzero; opacity: 1;" vector-effect="non-scaling-stroke"  transform=" translate(-23.5, -38)" d="M 29 38.5 L 18 38.5 C 17.7 38.5 17.5 38.3 17.5 38 C 17.5 37.7 17.7 37.5 18 37.5 L 29 37.5 C 29.3 37.5 29.5 37.7 29.5 38 C 29.5 38.3 29.3 38.5 29 38.5 z" stroke-linecap="round" />
</g>
<g transform="matrix(1 0 0 1 24.27 41.77)" id="ZcqP_sTQJ903H07RKlFP0"  >
<path style="stroke: none; stroke-width: 1; stroke-dasharray: none; stroke-linecap: butt; stroke-dashoffset: 0; stroke-linejoin: miter; stroke-miterlimit: 4; fill: rgb(228,231,239); fill-rule: nonzero; opacity: 1;" vector-effect="non-scaling-stroke"  transform=" translate(-23.5, -41)" d="M 29 41.5 L 18 41.5 C 17.7 41.5 17.5 41.3 17.5 41 C 17.5 40.7 17.7 40.5 18 40.5 L 29 40.5 C 29.3 40.5 29.5 40.7 29.5 41 C 29.5 41.3 29.3 41.5 29 41.5 z" stroke-linecap="round" />
</g>
<g transform="matrix(1 0 0 1 41.27 26.77)" id="ILRYlxcV4wz0SnsaDAHcL"  >
<path style="stroke: none; stroke-width: 1; stroke-dasharray: none; stroke-linecap: butt; stroke-dashoffset: 0; stroke-linejoin: miter; stroke-miterlimit: 4; fill: rgb(228,231,239); fill-rule: nonzero; opacity: 1;" vector-effect="non-scaling-stroke"  transform=" translate(-40.5, -26)" d="M 46 26.5 L 35 26.5 C 34.7 26.5 34.5 26.3 34.5 26 C 34.5 25.7 34.7 25.5 35 25.5 L 46 25.5 C 46.3 25.5 46.5 25.7 46.5 26 C 46.5 26.3 46.3 26.5 46 26.5 z" stroke-linecap="round" />
</g>
<g transform="matrix(1 0 0 1 41.27 29.77)" id="CGx_JotdJyAZaoB16vF2u"  >
<path style="stroke: none; stroke-width: 1; stroke-dasharray: none; stroke-linecap: butt; stroke-dashoffset: 0; stroke-linejoin: miter; stroke-miterlimit: 4; fill: rgb(228,231,239); fill-rule: nonzero; opacity: 1;" vector-effect="non-scaling-stroke"  transform=" translate(-40.5, -29)" d="M 46 29.5 L 35 29.5 C 34.7 29.5 34.5 29.3 34.5 29 C 34.5 28.7 34.7 28.5 35 28.5 L 46 28.5 C 46.3 28.5 46.5 28.7 46.5 29 C 46.5 29.3 46.3 29.5 46 29.5 z" stroke-linecap="round" />
</g>
<g transform="matrix(1 0 0 1 41.27 20.77)" id="FFuXdKWh9BU5PeS5SQbyC"  >
<path style="stroke: none; stroke-width: 1; stroke-dasharray: none; stroke-linecap: butt; stroke-dashoffset: 0; stroke-linejoin: miter; stroke-miterlimit: 4; fill: rgb(228,231,239); fill-rule: nonzero; opacity: 1;" vector-effect="non-scaling-stroke"  transform=" translate(-40.5, -20)" d="M 46 20.5 L 35 20.5 C 34.7 20.5 34.5 20.3 34.5 20 C 34.5 19.7 34.7 19.5 35 19.5 L 46 19.5 C 46.3 19.5 46.5 19.7 46.5 20 C 46.5 20.3 46.3 20.5 46 20.5 z" stroke-linecap="round" />
</g>
<g transform="matrix(1 0 0 1 41.27 17.77)" id="GbLSZHcHeSg22CfZQSjo6"  >
<path style="stroke: none; stroke-width: 1; stroke-dasharray: none; stroke-linecap: butt; stroke-dashoffset: 0; stroke-linejoin: miter; stroke-miterlimit: 4; fill: rgb(228,231,239); fill-rule: nonzero; opacity: 1;" vector-effect="non-scaling-stroke"  transform=" translate(-40.5, -17)" d="M 46 17.5 L 35 17.5 C 34.7 17.5 34.5 17.3 34.5 17 C 34.5 16.7 34.7 16.5 35 16.5 L 46 16.5 C 46.3 16.5 46.5 16.7 46.5 17 C 46.5 17.3 46.3 17.5 46 17.5 z" stroke-linecap="round" />
</g>
<g transform="matrix(1 0 0 1 41.27 23.77)" id="-vFIfOmtV9QNNQVFKRMf1"  >
<path style="stroke: none; stroke-width: 1; stroke-dasharray: none; stroke-linecap: butt; stroke-dashoffset: 0; stroke-linejoin: miter; stroke-miterlimit: 4; fill: rgb(228,231,239); fill-rule: nonzero; opacity: 1;" vector-effect="non-scaling-stroke"  transform=" translate(-40.5, -23)" d="M 46 23.5 L 35 23.5 C 34.7 23.5 34.5 23.3 34.5 23 C 34.5 22.7 34.7 22.5 35 22.5 L 46 22.5 C 46.3 22.5 46.5 22.7 46.5 23 C 46.5 23.3 46.3 23.5 46 23.5 z" stroke-linecap="round" />
</g>
<g transform="matrix(1 0 0 1 41.27 32.77)" id="NRJMgEofoSe2H4zcr0eos"  >
<path style="stroke: none; stroke-width: 1; stroke-dasharray: none; stroke-linecap: butt; stroke-dashoffset: 0; stroke-linejoin: miter; stroke-miterlimit: 4; fill: rgb(228,231,239); fill-rule: nonzero; opacity: 1;" vector-effect="non-scaling-stroke"  transform=" translate(-40.5, -32)" d="M 46 32.5 L 35 32.5 C 34.7 32.5 34.5 32.3 34.5 32 C 34.5 31.700000000000003 34.7 31.5 35 31.5 L 46 31.5 C 46.3 31.5 46.5 31.7 46.5 32 C 46.5 32.3 46.3 32.5 46 32.5 z" stroke-linecap="round" />
</g>
<g transform="matrix(1 0 0 1 41.27 35.77)" id="IIRG77p2KIBYzURPBNtbh"  >
<path style="stroke: none; stroke-width: 1; stroke-dasharray: none; stroke-linecap: butt; stroke-dashoffset: 0; stroke-linejoin: miter; stroke-miterlimit: 4; fill: rgb(228,231,239); fill-rule: nonzero; opacity: 1;" vector-effect="non-scaling-stroke"  transform=" translate(-40.5, -35)" d="M 46 35.5 L 35 35.5 C 34.7 35.5 34.5 35.3 34.5 35 C 34.5 34.7 34.7 34.5 35 34.5 L 46 34.5 C 46.3 34.5 46.5 34.7 46.5 35 C 46.5 35.3 46.3 35.5 46 35.5 z" stroke-linecap="round" />
</g>
<g transform="matrix(1 0 0 1 41.27 38.77)" id="Bv-PB1mwVK_RWm8IXSLb4"  >
<path style="stroke: none; stroke-width: 1; stroke-dasharray: none; stroke-linecap: butt; stroke-dashoffset: 0; stroke-linejoin: miter; stroke-miterlimit: 4; fill: rgb(228,231,239); fill-rule: nonzero; opacity: 1;" vector-effect="non-scaling-stroke"  transform=" translate(-40.5, -38)" d="M 46 38.5 L 35 38.5 C 34.7 38.5 34.5 38.3 34.5 38 C 34.5 37.7 34.7 37.5 35 37.5 L 46 37.5 C 46.3 37.5 46.5 37.7 46.5 38 C 46.5 38.3 46.3 38.5 46 38.5 z" stroke-linecap="round" />
</g>
<g transform="matrix(1 0 0 1 41.27 41.77)" id="32f9jV91AX2ruq2Ib3mUs"  >
<path style="stroke: none; stroke-width: 1; stroke-dasharray: none; stroke-linecap: butt; stroke-dashoffset: 0; stroke-linejoin: miter; stroke-miterlimit: 4; fill: rgb(228,231,239); fill-rule: nonzero; opacity: 1;" vector-effect="non-scaling-stroke"  transform=" translate(-40.5, -41)" d="M 46 41.5 L 35 41.5 C 34.7 41.5 34.5 41.3 34.5 41 C 34.5 40.7 34.7 40.5 35 40.5 L 46 40.5 C 46.3 40.5 46.5 40.7 46.5 41 C 46.5 41.3 46.3 41.5 46 41.5 z" stroke-linecap="round" />
</g>
<g transform="matrix(1 0 0 1 43.77 25.27)" id="FrRXIa-DQt5-NDh_8sY1J"  >
<path style="stroke: none; stroke-width: 1; stroke-dasharray: none; stroke-linecap: butt; stroke-dashoffset: 0; stroke-linejoin: miter; stroke-miterlimit: 4; fill: rgb(242,83,83); fill-rule: nonzero; opacity: 1;" vector-effect="non-scaling-stroke"  transform=" translate(-43, -24.5)" d="M 45 36 L 43 35 L 41 36 L 41 13 L 45 13 z" stroke-linecap="round" />
</g>
</svg>