<svg xmlns="http://www.w3.org/2000/svg" xml:space="preserve" width="108" height="108" data-name="rounded corner version" viewBox="0 0 80.999 80.999">
  <path d="M47.772 25.598a.86.86 0 0 0-.852.86v.568h-4.878a1.5 1.5 0 0 0-.84.264 1.198 1.198 0 0 1-1.338 0 1.5 1.5 0 0 0-.844-.258s-11.007-.006-11.065-.016a1.198 1.198 0 0 0-1.05 1.186v1.818h-1.07c-.662 0-1.199.536-1.198 1.198v21.787c0 .66.537 1.197 1.198 1.196h13.326c.236.028.462.112.659.245.405.273.935.273 1.34 0 .197-.133.424-.217.66-.245h13.344c.661 0 1.197-.535 1.198-1.196V31.218c0-.659-.532-1.194-1.191-1.198h-1.075v-1.818a1.198 1.198 0 0 0-1.015-1.176h-2.384v-.571a.857.857 0 0 0-.85-.857zm0 .757h2.074c.058.001.096.04.096.097V42.97l-.567-.485-.002-.002a.895.895 0 0 0-.625-.205h-.008l-.007.002a.905.905 0 0 0-.514.228l-.54.462V26.452c-.001-.058.036-.096.093-.097zm-17.346 2.91h2.026c.275 0 .498.224.498.499v4.29a.5.5 0 0 1-.498.5h-2.026a.498.498 0 0 1-.497-.493v-4.297c0-.275.222-.498.497-.498zm4.487.384h3.323a.366.366 0 0 1 .276.122.39.39 0 0 1 .074.356v.003a.37.37 0 0 1-.073.15c-.015.019-.036.032-.057.046l-.015.01c-.015.01-.026.024-.044.033a.41.41 0 0 1-.16.036h-3.324a.402.402 0 0 1-.157-.035l-.003-.001h-.002c-.001-.001-.002-.003-.004-.003-.012-.006-.019-.016-.03-.022-.03-.02-.06-.037-.081-.063a.366.366 0 0 1-.068-.122.423.423 0 0 1-.02-.139h-.002a.431.431 0 0 1 .022-.129.346.346 0 0 1 .183-.205.4.4 0 0 1 .161-.037zm7.858 0h4.149v.756h-4.15a.402.402 0 0 1-.156-.035l-.01-.004a.343.343 0 0 1-.178-.202.416.416 0 0 1 0-.273.346.346 0 0 1 .183-.205.4.4 0 0 1 .161-.037zm-7.858 2.268h3.323a.365.365 0 0 1 .303.107c.034.036.06.078.077.124a.425.425 0 0 1-.077.416.329.329 0 0 1-.112.075.363.363 0 0 1-.19.032h-3.324a.402.402 0 0 1-.154-.04.343.343 0 0 1-.11-.087.398.398 0 0 1 0-.5.366.366 0 0 1 .264-.127zm7.858 0h4.149v.754h-4.15a.365.365 0 0 1-.303-.107.42.42 0 0 1-.075-.416l.002-.004a.36.36 0 0 1 .073-.12.365.365 0 0 1 .303-.107zm-7.858 2.265h3.323a.366.366 0 0 1 .276.121.404.404 0 0 1 0 .513.336.336 0 0 1-.115.085.41.41 0 0 1-.16.036h-3.324a.402.402 0 0 1-.157-.035l-.003-.001h-.002l-.004-.003a.342.342 0 0 1-.179-.202.416.416 0 0 1 0-.273.346.346 0 0 1 .183-.205.4.4 0 0 1 .162-.036zm7.858 0h4.149v.755h-4.15a.402.402 0 0 1-.156-.035l-.01-.004a.342.342 0 0 1-.178-.202.416.416 0 0 1 0-.273.346.346 0 0 1 .183-.205.4.4 0 0 1 .161-.036zM29.93 36.446h8.307a.366.366 0 0 1 .276.122.404.404 0 0 1 0 .512.336.336 0 0 1-.115.085.41.41 0 0 1-.16.037H29.93a.402.402 0 0 1-.157-.035l-.002-.002h-.002c-.002 0-.003-.002-.004-.003a.342.342 0 0 1-.179-.202.416.416 0 0 1 0-.272.346.346 0 0 1 .183-.205.4.4 0 0 1 .161-.037zm12.842 0h4.149v.756H42.77a.402.402 0 0 1-.156-.035l-.01-.005a.342.342 0 0 1-.178-.202.416.416 0 0 1 0-.272.346.346 0 0 1 .183-.205.4.4 0 0 1 .161-.037zM29.93 38.712h8.307a.365.365 0 0 1 .303.107c.034.036.06.079.077.125a.425.425 0 0 1 0 .29.375.375 0 0 1-.066.11l-.01.016a.333.333 0 0 1-.157.09l-.01.003-.01.003a.439.439 0 0 1-.127.01H29.93a.45.45 0 0 1-.176-.023h-.001a.33.33 0 0 1-.196-.199.42.42 0 0 1-.005-.3l.002-.005a.335.335 0 0 1 .2-.204.419.419 0 0 1 .176-.023zm12.842 0h4.149v.755H42.77a.365.365 0 0 1-.303-.107.42.42 0 0 1-.075-.416l.002-.005a.36.36 0 0 1 .073-.12.399.399 0 0 1 .303-.107zm-4.264.67zm-8.578 1.6h8.307a.41.41 0 0 1 .17.03c.049.02.09.05.122.085a.393.393 0 0 1 .098.264.393.393 0 0 1-.098.263.336.336 0 0 1-.122.085.41.41 0 0 1-.17.03H29.93a.41.41 0 0 1-.17-.03.336.336 0 0 1-.121-.085.368.368 0 0 1-.074-.121V41.5a.427.427 0 0 1 0-.282.362.362 0 0 1 .074-.122.336.336 0 0 1 .121-.085.41.41 0 0 1 .17-.03zm12.842 0h4.149v.757H42.77a.41.41 0 0 1-.17-.03.336.336 0 0 1-.121-.085.362.362 0 0 1-.073-.121V41.5a.427.427 0 0 1 0-.282.362.362 0 0 1 .073-.122.336.336 0 0 1 .121-.085.378.378 0 0 1 .17-.03zm0 2.227h3.763c.06 0 .113.012.157.032h.002c.045.02.081.05.111.084a.41.41 0 0 1 0 .513.316.316 0 0 1-.111.083h-.002a.382.382 0 0 1-.157.032h-3.763a.376.376 0 0 1-.154-.03l-.002-.002h-.002c-.002 0-.002-.003-.004-.004a.322.322 0 0 1-.175-.2.424.424 0 0 1 0-.272.323.323 0 0 1 .18-.204.375.375 0 0 1 .157-.032zm-12.842.035h8.307a.365.365 0 0 1 .303.107c.034.036.06.079.077.125a.425.425 0 0 1 0 .29.375.375 0 0 1-.066.11l-.01.016a.333.333 0 0 1-.157.09l-.01.004-.01.002a.439.439 0 0 1-.127.01H29.93a.45.45 0 0 1-.176-.023h-.001a.33.33 0 0 1-.196-.199.42.42 0 0 1-.005-.3l.002-.005a.335.335 0 0 1 .2-.204.419.419 0 0 1 .176-.023zm8.578.67zm-8.578 1.595h8.307a.365.365 0 0 1 .303.107c.034.036.06.078.077.124a.425.425 0 0 1 0 .29.375.375 0 0 1-.066.11c-.004.005-.006.012-.01.016a.333.333 0 0 1-.157.091l-.01.003-.01.003a.439.439 0 0 1-.127.01H29.93a.45.45 0 0 1-.176-.023h-.001a.33.33 0 0 1-.196-.2.42.42 0 0 1-.005-.3l.002-.004a.335.335 0 0 1 .2-.204.419.419 0 0 1 .176-.023zm12.842 0h8.307a.369.369 0 0 1 .264.127c.118.14.118.36 0 .5a.348.348 0 0 1-.11.086.403.403 0 0 1-.154.041h-8.307a.365.365 0 0 1-.303-.107.42.42 0 0 1-.075-.416l.002-.004a.36.36 0 0 1 .073-.12.399.399 0 0 1 .303-.107zm-4.264.67zm-8.578 1.596h8.307c.059.002.11.014.154.034l.009.004a.337.337 0 0 1 .113.084.404.404 0 0 1 0 .512.336.336 0 0 1-.115.085.41.41 0 0 1-.16.037H29.93a.402.402 0 0 1-.157-.035l-.002-.002h-.002c-.002 0-.003-.002-.004-.003a.342.342 0 0 1-.179-.202.416.416 0 0 1 0-.272.346.346 0 0 1 .183-.205.4.4 0 0 1 .161-.037zm12.842 0h8.307c.06.002.11.014.156.034l.002.001c.002 0 .002.001.003.002.046.021.084.05.115.085a.404.404 0 0 1 0 .512.336.336 0 0 1-.115.085.41.41 0 0 1-.16.037h-8.31a.402.402 0 0 1-.156-.035l-.01-.005a.342.342 0 0 1-.178-.202.416.416 0 0 1 0-.272.346.346 0 0 1 .183-.205.4.4 0 0 1 .161-.037z"/>
</svg>
