<svg xmlns="http://www.w3.org/2000/svg" xml:space="preserve" id="bb460724-3675-4b2e-b0fa-530a39eaf356" width="108" height="108" data-name="rounded corner version" version="1.1" viewBox="0 0 80.999 80.999">
  <defs id="defs1">
    <style id="style1">
      .ee5bd034-91c7-481c-b07e-24dddd8adba1{fill:#004d42}.ba49fe03-9d23-4d53-aa00-ecd19f68c43d{fill:#fff}.a9a913e4-fbf7-45c5-ab54-a7d6bda57ef5{fill:#00bfa6}
    </style>
  </defs>
  <path id="path1" stroke-width=".171" d="M56.362 31.218v21.786a1.198 1.198 0 0 1-1.198 1.198H41.82a1.485 1.485 0 0 0-.66.245 1.198 1.198 0 0 1-1.34 0 1.485 1.485 0 0 0-.66-.245H25.835a1.198 1.198 0 0 1-1.198-1.198V31.218a1.198 1.198 0 0 1 1.198-1.198H55.17a1.198 1.198 0 0 1 1.19 1.198z" class="ee5bd034-91c7-481c-b07e-24dddd8adba1"/>
  <path id="path2" stroke-width=".171" d="M26.907 39.546v11.173a1.21 1.21 0 0 0 1.212 1.21H38.99a1.5 1.5 0 0 1 .834.253 1.223 1.223 0 0 0 1.356 0 1.495 1.495 0 0 1 .832-.254h10.873a1.21 1.21 0 0 0 1.212-1.21V39.547a1.211 1.211 0 0 0-1.212-1.211H28.12a1.211 1.211 0 0 0-1.212 1.21z" class="ba49fe03-9d23-4d53-aa00-ecd19f68c43d"/>
  <path id="path3" stroke-width=".171" d="M54.097 38.335V50.81a1.221 1.221 0 0 1-1.217 1.12H42.017a1.499 1.499 0 0 0-.825.245 1.249 1.249 0 0 1-1.368 0 1.502 1.502 0 0 0-.825-.246H28.127a1.22 1.22 0 0 1-1.22-1.22V38.335Z" class="a9a913e4-fbf7-45c5-ab54-a7d6bda57ef5" opacity=".5"/>
  <path id="path4" stroke-width=".171" d="M54.097 28.202v21.022a1.198 1.198 0 0 1-1.198 1.197H42.012a1.494 1.494 0 0 0-.84.257 1.198 1.198 0 0 1-1.34 0 1.5 1.5 0 0 0-.842-.257H28.103a1.198 1.198 0 0 1-1.197-1.197V28.202a1.198 1.198 0 0 1 1.048-1.186c.058.01 11.066.016 11.066.016a1.5 1.5 0 0 1 .843.258 1.198 1.198 0 0 0 1.34 0 1.495 1.495 0 0 1 .84-.264H53.08a1.198 1.198 0 0 1 1.017 1.176z" class="ba49fe03-9d23-4d53-aa00-ecd19f68c43d"/>
  <path id="path5" stroke-width=".171" d="M29.929 34.061v-4.297a.498.498 0 0 1 .497-.498h2.026a.498.498 0 0 1 .498.498v4.29a.498.498 0 0 1-.498.5h-2.026a.498.498 0 0 1-.497-.493z" class="ee5bd034-91c7-481c-b07e-24dddd8adba1"/>
  <path id="path6" stroke-width=".171" d="M34.913 29.65a.378.378 0 0 0 0 .755h3.323a.378.378 0 0 0 0-.756zm7.858 0a.378.378 0 0 0 0 .755h8.307a.378.378 0 0 0 0-.756zm-7.858 2.267a.378.378 0 0 0 0 .754h3.323a.378.378 0 1 0 0-.754zm7.858 0a.378.378 0 1 0 0 .754h8.307a.378.378 0 0 0 0-.754zm-7.858 2.265a.378.378 0 0 0 0 .755h3.323a.378.378 0 0 0 0-.755zm7.858 0a.378.378 0 0 0 0 .755h8.307a.378.378 0 0 0 0-.755zM29.93 36.446a.378.378 0 0 0 0 .756h8.307a.378.378 0 0 0 0-.756zm12.842 0a.378.378 0 0 0 0 .756h8.307a.378.378 0 0 0 0-.756zM29.93 38.712a.378.378 0 1 0 0 .755h8.307a.378.378 0 1 0 0-.755zm12.842 0a.378.378 0 1 0 0 .755h8.307a.378.378 0 0 0 0-.755zm-12.842 2.27a.378.378 0 1 0 0 .757h8.307a.378.378 0 1 0 0-.756zm12.842 0a.378.378 0 1 0 0 .757h8.307a.378.378 0 1 0 0-.756zm0 2.227c-.479 0-.48.744 0 .744h3.763c.48 0 .48-.744 0-.744zm-12.842.035a.378.378 0 1 0 0 .755h8.307a.378.378 0 1 0 0-.755zm0 2.265a.378.378 0 1 0 0 .754h8.307a.378.378 0 1 0 0-.754zm12.842 0a.378.378 0 1 0 0 .754h8.307a.378.378 0 0 0 0-.754zM29.93 47.775a.378.378 0 0 0 0 .756h8.307a.378.378 0 0 0 0-.756zm12.842 0a.378.378 0 0 0 0 .756h8.307a.378.378 0 0 0 0-.756z" class="a9a913e4-fbf7-45c5-ab54-a7d6bda57ef5" opacity=".5"/>
  <path id="path24" stroke-width=".171" d="m50.068 43.95-.938-.803a.513.513 0 0 0-.36-.118.525.525 0 0 0-.298.133l-.923.787a.171.171 0 0 1-.251-.157V26.826a.476.476 0 0 1 .474-.479h2.073a.476.476 0 0 1 .474.48v16.965a.171.171 0 0 1-.251.157z" class="ee5bd034-91c7-481c-b07e-24dddd8adba1"/>
</svg>
