<?xml version="1.0" encoding="UTF-8" standalone="no"?>
<svg
   width="108.0px"
   height="108.0px"
   viewBox="0 0 108.0 108.0"
   version="1.1"
   id="SVGRoot"
   sodipodi:docname="ic_launcher_foreground.svg"
   inkscape:version="1.3 (0e150ed6c4, 2023-07-21)"
   xmlns:inkscape="http://www.inkscape.org/namespaces/inkscape"
   xmlns:sodipodi="http://sodipodi.sourceforge.net/DTD/sodipodi-0.dtd"
   xmlns="http://www.w3.org/2000/svg"
   xmlns:svg="http://www.w3.org/2000/svg"
   xmlns:rdf="http://www.w3.org/1999/02/22-rdf-syntax-ns#"
   xmlns:cc="http://creativecommons.org/ns#"
   xmlns:dc="http://purl.org/dc/elements/1.1/">
  <title
     id="title1">Flower Glyph</title>
  <defs
     id="defs1600">
    <clipPath
       clipPathUnits="userSpaceOnUse"
       id="clipPath253-0">
      <path
         d="m 1967.32,7408.78 0.28,-0.01 c 15.83,54.65 44.43,95.24 85.24,120.99 -17.08,47.73 -51.23,82.65 -101.73,103.99 -43.23,-18.27 -74.53,-46.5 -93.3,-84.11 55.39,-25.28 92.9,-73.5 109.51,-140.86 z m 13.58,-35.34 -0.76,0.01 c -9.68,0.42 -18.47,0.63 -26.86,0.63 -8.33,0 -15.5,5.9 -17.1,14.07 -13.77,69.91 -49.86,115.52 -107.29,135.56 -4.46,1.55 -8.09,4.84 -10.07,9.13 -1.99,4.27 -2.15,9.17 -0.47,13.58 21.86,57.01 64.39,98.19 126.43,122.39 4.07,1.59 8.59,1.59 12.67,0 69.25,-27.01 114.01,-74.92 133.04,-142.4 2.23,-7.93 -1.38,-16.34 -8.67,-20.16 -41.94,-22.04 -70.19,-62.23 -83.98,-119.46 -1.89,-7.86 -8.92,-13.35 -16.94,-13.35 z"
         id="path253-7" />
    </clipPath>
    <clipPath
       clipPathUnits="userSpaceOnUse"
       id="clipPath256-5">
      <path
         d="m 1542.31,7441.58 c 61.83,-0.27 114.88,-28.55 157.9,-84.11 l 0.26,0.11 c -7.74,56.31 1.89,105 28.68,145.1 -34.12,36.02 -78.15,54.26 -131.11,54.26 -1.55,0 -3.11,-0.01 -4.69,-0.05 -32.2,-34.41 -49.32,-73.11 -51.04,-115.31 z m 152.14,-123.11 c -5.53,0 -10.91,2.64 -14.26,7.4 -41.13,58.45 -92.8,85.44 -153.66,80.18 -4.7,-0.39 -9.36,1.11 -12.92,4.2 -3.56,3.09 -5.72,7.49 -5.98,12.2 -3.43,61.25 18.66,116.39 65.67,163.9 3.08,3.11 7.21,4.95 11.57,5.15 74.5,3.51 135.23,-22.36 180.04,-76.66 5.22,-6.33 5.32,-15.45 0.24,-21.9 -29.29,-37.14 -38.75,-85.28 -28.12,-143.07 1.5,-8.16 -2.96,-16.25 -10.67,-19.34 -8.66,-3.47 -16.98,-7 -24.72,-10.51 -2.32,-1.05 -4.77,-1.55 -7.19,-1.55 z"
         id="path256-0" />
    </clipPath>
    <clipPath
       clipPathUnits="userSpaceOnUse"
       id="clipPath259-4">
      <path
         d="m 1372.78,7230.33 c 34.21,0 69.4,-9.65 104.8,-28.71 -30.27,48.56 -41.36,97.2 -33.06,145 -21.76,9.14 -43.97,13.77 -66.19,13.77 -26.26,0 -53.33,-6.46 -80.56,-19.22 -15.5,-44.8 -15.3,-87.35 0.56,-126.81 24.04,10.61 49.01,15.97 74.45,15.97 z m 109.4,-68.87 c -3.1,0 -6.22,0.83 -9.03,2.52 -34.46,20.89 -68.23,31.48 -100.37,31.48 -25.43,0 -50.44,-6.71 -74.31,-19.94 -4.12,-2.28 -8.99,-2.81 -13.49,-1.45 -4.51,1.36 -8.28,4.49 -10.44,8.67 -28.41,54.76 -30.79,114.38 -7.06,177.18 1.54,4.09 4.57,7.46 8.48,9.42 34.2,17.2 68.63,25.91 102.37,25.91 31.86,0 63.47,-7.75 93.97,-23.06 7.32,-3.68 11.1,-11.96 9.07,-19.9 -11.85,-46.35 -0.63,-94.69 33.35,-143.68 4.73,-6.82 4,-16.03 -1.76,-22.02 -5.83,-6.06 -11.78,-12.53 -17.7,-19.23 -3.41,-3.87 -8.21,-5.9 -13.08,-5.9 z"
         id="path259-5" />
    </clipPath>
    <clipPath
       clipPathUnits="userSpaceOnUse"
       id="clipPath262-9">
      <path
         d="m 1115.49,7023.88 c 4.09,-47.53 21.77,-86.52 52.67,-116.18 41.4,45.81 98.07,66.58 168.93,61.25 -47.6,32.16 -77.57,72.3 -89.33,119.6 -51.44,-0.95 -95.89,-22.69 -132.27,-64.67 z m 54.72,-158.5 c -3.9,0 -7.71,1.31 -10.81,3.76 -48.67,38.51 -75.32,92.19 -79.21,159.55 -0.25,4.36 1.15,8.66 3.92,12.05 47.51,58.04 107.83,85.85 178.72,82.44 8.2,-0.4 15.01,-6.46 16.36,-14.55 8.01,-48.04 38.66,-88.23 91.09,-119.46 7.16,-4.26 10.3,-12.99 7.51,-20.83 -3.04,-8.54 -5.65,-16.32 -7.97,-23.79 -2.52,-8.13 -10.55,-13.25 -18.99,-12.11 -11.96,1.62 -23.65,2.44 -34.75,2.44 -56.24,0 -100.63,-21.05 -131.94,-62.57 -2.83,-3.74 -7.05,-6.19 -11.7,-6.79 z"
         id="path262-8" />
    </clipPath>
    <clipPath
       clipPathUnits="userSpaceOnUse"
       id="clipPath265-2">
      <path
         d="m 1078.03,6659.87 c 23.2,-42.01 55.45,-70.51 96.09,-84.96 19.31,58.19 63.51,100.7 129.28,124.33 -56.89,10.07 -100.75,34.73 -130.76,73.55 -46.68,-21.85 -78.45,-59.75 -94.61,-112.92 z m 108.05,-124.21 c -1.43,0 -2.86,0.17 -4.27,0.53 -60.48,15.26 -106.91,53.52 -137.99,113.72 -2,3.88 -2.48,8.38 -1.32,12.6 19.85,72.54 63.55,122.36 129.9,148.08 7.67,2.97 16.38,0.17 20.89,-6.71 27.33,-41.76 72.95,-66.33 135.6,-73.04 8.35,-0.89 14.87,-7.6 15.52,-15.97 0.59,-7.44 1.36,-15.16 2.35,-23.59 1,-8.53 -4.35,-16.52 -12.62,-18.83 -72.61,-20.31 -116.72,-61.8 -131.08,-123.32 -1.07,-4.55 -3.92,-8.5 -7.91,-10.93 -2.76,-1.68 -5.9,-2.54 -9.07,-2.54 z"
         id="path265-6" />
    </clipPath>
    <clipPath
       clipPathUnits="userSpaceOnUse"
       id="clipPath268-1">
      <path
         d="m 1191.86,6312.51 c 34.31,-25.93 70.89,-38.67 108.83,-38.67 v 0 c 4.63,0 9.32,-0.22 14.04,0.17 -5.84,60.82 17.29,117.2 67.63,165.4 -56.2,-13.9 -107.01,-8.9 -150.12,14.49 -33.67,-38.91 -47.23,-86.33 -40.38,-141.39 z m 108.83,-73.54 v 0 c -48.06,0 -93.82,16.73 -136.03,50.53 -3.41,2.74 -5.68,6.44 -6.33,10.76 -11.37,74.29 8.26,137.44 58.33,187.9 5.83,5.87 14.97,6.79 21.89,2.28 24.54,-15.98 52.65,-24.11 83.55,-24.1 22.93,0 47.77,4.41 73.82,13.13 8.01,2.68 16.79,-0.77 20.84,-8.19 3.36,-6.14 7,-12.53 11.15,-19.49 4.42,-7.45 2.72,-17.01 -4.02,-22.47 -59.78,-48.4 -84.1,-104.76 -72.29,-167.51 0.86,-4.58 -0.14,-9.32 -2.8,-13.15 -2.65,-3.83 -6.73,-6.03 -11.32,-6.84 -12.33,-2.17 -24.71,-2.85 -36.79,-2.85 z"
         id="path268-3" />
    </clipPath>
    <clipPath
       clipPathUnits="userSpaceOnUse"
       id="clipPath271-0">
      <path
         d="m 1437.29,6040.97 c 16.27,-3.78 32.14,-5.42 47.28,-5.42 v 0 c 28.71,0 55.83,6.65 80.84,20.34 -29.71,53.04 -31.45,114.42 -5.18,178.67 -41.27,-32.18 -84.5,-47.9 -128.85,-47.9 h -0.02 c -4.93,0 -9.9,-0.36 -14.87,0.05 -14.73,-49.07 -7.75,-98.38 20.8,-145.74 z m 47.28,-40.3 v 0 c -20.18,0 -41.29,2.59 -62.76,8.22 -4.23,1.11 -7.88,3.62 -10.25,7.31 -40.49,63.08 -48.35,128.61 -23.35,194.92 2.94,7.78 10.95,13.07 19.14,11.73 8.01,-1.32 16.08,-1.32 24.01,-1.32 h 0.01 c 43.2,0 85.97,18.81 127.12,57.28 6.24,5.83 15.78,5.94 22.55,0.73 6.08,-4.69 11.69,-9.04 17.16,-12.95 7.07,-5.06 9.33,-14.63 5.32,-22.33 -36.15,-69.32 -36.03,-131.41 0.34,-184.47 2.62,-3.83 3.62,-8.57 2.75,-13.13 -0.87,-4.57 -3.53,-8.33 -7.38,-10.93 -34.72,-23.44 -73.3,-35.06 -114.66,-35.06 z"
         id="path271-0" />
    </clipPath>
    <clipPath
       clipPathUnits="userSpaceOnUse"
       id="clipPath274-4">
      <path
         d="m 1693.95,6016.01 c 6.66,-50.49 32.83,-91.94 77.95,-123.42 47.36,9.12 84.58,31.16 110.91,65.65 -48.31,36.37 -74.4,91.04 -76.53,160.12 -27.52,-51.75 -65.17,-86.07 -112.33,-102.35 z m 74.04,-159.27 c -3.38,0 -6.71,0.99 -9.57,2.87 -62.41,41.01 -96.26,97.49 -100.59,167.89 -0.52,8.33 4.95,15.86 13.03,17.95 51.2,13.23 90.39,51.76 116.5,114.49 3.3,7.93 11.88,12.28 20.24,10.24 7.25,-1.78 13.88,-3.29 20.26,-4.62 8.52,-1.77 14.42,-9.56 13.83,-18.24 -5.31,-78.67 19.79,-135.79 74.59,-169.77 3.94,-2.44 6.75,-6.35 7.8,-10.87 1.05,-4.52 0.26,-9.27 -2.2,-13.19 -33.2,-53.06 -84.03,-85.53 -151.07,-96.52 -0.94,-0.15 -1.88,-0.23 -2.82,-0.23 z"
         id="path274-6" />
    </clipPath>
    <clipPath
       clipPathUnits="userSpaceOnUse"
       id="clipPath277-2">
      <path
         d="m 2016.85,5973.71 c 26.62,-43 67.24,-69.98 120.98,-80.34 39.42,27.52 64.42,62.65 74.51,104.68 -58.59,13.71 -104.42,52.99 -134.34,114.98 -4.1,-58.54 -24.59,-105.25 -61.15,-139.32 z m 124.89,-116.18 c -0.94,0 -1.88,0.08 -2.82,0.23 -73.38,12.03 -127.13,49.6 -159.77,111.68 -3.9,7.42 -1.97,16.57 4.6,21.78 41.66,33.03 61.86,84.45 60.03,152.82 -0.23,8.66 5.92,16.17 14.45,17.65 6.89,1.2 13.68,2.49 20.2,3.85 8.47,1.76 16.97,-2.96 19.93,-11.1 27.04,-74.14 73.06,-116.26 136.79,-125.21 4.59,-0.64 8.73,-3.09 11.52,-6.79 2.78,-3.7 3.97,-8.37 3.32,-12.95 -8.87,-61.74 -42.07,-111.9 -98.68,-149.09 -2.86,-1.88 -6.19,-2.87 -9.57,-2.87 z"
         id="path277-2" />
    </clipPath>
    <clipPath
       clipPathUnits="userSpaceOnUse"
       id="clipPath280-3">
      <path
         d="m 2329.24,6066.67 c 28.97,-19.55 60.96,-29.44 95.28,-29.44 15.13,0 31.01,1.91 47.28,5.7 24.69,40.95 33.28,82.99 25.61,125.26 -11.75,-2.23 -23.48,-3.36 -35.04,-3.36 -46.97,0 -91.92,18.07 -133.96,53.78 20.01,-55.06 20.3,-106 0.83,-151.94 z m 95.28,-64.32 c -46.78,0 -89.82,15.15 -127.95,45 -6.61,5.18 -8.59,14.34 -4.7,21.8 24.49,46.94 22.11,101.89 -7.07,163.34 -3.72,7.82 -1.12,17.19 6.09,21.99 6.19,4.11 11.8,7.98 17.14,11.8 7.02,5.01 16.64,4.15 22.65,-2.03 41.61,-42.83 85.92,-64.55 131.69,-64.55 14.17,0 28.73,2.1 43.3,6.25 4.46,1.27 9.25,0.71 13.29,-1.56 4.05,-2.26 7.03,-6.05 8.28,-10.51 16.72,-59.75 6.72,-118.83 -29.71,-175.59 -2.36,-3.68 -6.02,-6.34 -10.25,-7.45 -21.47,-5.63 -42.59,-8.49 -62.76,-8.49 z"
         id="path280-2" />
    </clipPath>
    <clipPath
       clipPathUnits="userSpaceOnUse"
       id="clipPath283-7">
      <path
         d="m 2576.75,6278.99 c 10.3,-1.79 20.51,-2.7 30.48,-2.7 37.93,0 74.51,13.15 108.83,39.1 5.87,47.16 -3.23,88.83 -27.09,124.19 -49.25,-34.13 -108.71,-41.87 -174.8,-22.56 40.57,-42.04 61.56,-88.32 62.58,-138.03 z m 30.49,-37.12 h -0.01 c -17.15,0 -34.77,1.99 -52.38,6.35 -8.16,2.02 -13.72,9.46 -13.21,17.85 3.11,52.17 -20.9,100.77 -71.37,144.58 -6.54,5.69 -7.92,15.29 -3.22,22.58 3.61,5.61 7.31,11.58 11.29,18.29 4.37,7.34 13.41,10.43 21.36,7.31 29.31,-11.52 57.21,-17.36 82.92,-17.36 36.82,0.01 70,12.12 98.61,36.01 3.56,2.98 8.17,4.4 12.8,3.98 4.63,-0.44 8.89,-2.71 11.84,-6.29 39.16,-47.66 53.87,-105.47 43.72,-171.82 -0.66,-4.32 -2.92,-8.01 -6.33,-10.75 -42.21,-33.81 -87.98,-50.73 -136.02,-50.73 z"
         id="path283-6" />
    </clipPath>
    <clipPath
       clipPathUnits="userSpaceOnUse"
       id="clipPath286-8">
      <path
         d="m 2603.18,6673.82 c 53.92,-21.81 91.82,-55.35 113.03,-100.01 48.34,12.3 86.01,42.45 112.17,89.84 -13.73,45.2 -38.77,79.43 -74.59,102.02 -31.16,-51.21 -82.62,-82.58 -150.61,-91.85 z m 102.64,-137.52 c -7.13,0 -13.69,4.38 -16.29,11.24 -18.19,47.88 -58.89,82.09 -120.97,101.66 -8.22,2.59 -13.32,10.8 -11.99,19.32 1.11,7.06 2.1,14.38 3.04,22.36 1,8.43 7.9,14.91 16.37,15.37 75.57,4.11 127.83,34.71 155.34,90.94 2.05,4.19 5.69,7.39 10.11,8.87 4.42,1.48 9.25,1.14 13.41,-0.97 54.74,-27.65 91.44,-74.35 109.08,-138.8 1.15,-4.22 0.68,-8.72 -1.33,-12.6 -33.79,-65.46 -85.5,-104.86 -153.68,-117.11 -1.03,-0.19 -2.07,-0.28 -3.09,-0.28 z"
         id="path286-7" />
    </clipPath>
    <clipPath
       clipPathUnits="userSpaceOnUse"
       id="clipPath289-9">
      <path
         d="m 2589.75,6944.76 c 53.53,0 98.4,-15.13 133.63,-45 39.18,30.89 61.34,73.78 65.97,127.73 -30.78,35.52 -67.36,56.58 -109,62.77 -7.52,-59.65 -41.81,-109.45 -100.31,-145.67 3.28,0.12 6.52,0.17 9.71,0.17 z m 132.37,-84.96 c -4.49,0 -8.95,1.74 -12.32,5.1 -29.93,29.85 -70.32,44.99 -120.05,44.99 -8.95,0 -18.33,-0.5 -27.86,-1.47 -8.5,-0.88 -16.42,4.57 -18.62,12.84 -2.23,8.37 -4.39,15.89 -6.59,22.99 -2.49,8.02 1.1,16.67 8.53,20.58 65.46,34.51 99.7,83.32 101.75,145.1 0.15,4.68 2.19,9.1 5.63,12.26 3.45,3.17 8.01,4.84 12.7,4.57 60.97,-3.17 113.27,-30.89 155.45,-82.41 2.77,-3.39 4.17,-7.68 3.91,-12.05 -4.24,-73.53 -35.44,-130.55 -92.73,-169.48 -2.98,-2.02 -6.4,-3.02 -9.8,-3.02 z"
         id="path289-1" />
    </clipPath>
    <clipPath
       clipPathUnits="userSpaceOnUse"
       id="clipPath292-5">
      <path
         d="m 2480.97,7357.11 c 17.68,-57.75 6.69,-117.48 -32.17,-174.54 51.42,24.97 101.64,30.96 148.4,17.55 23.4,44.26 26.27,92.57 8.51,143.87 -27.22,12.75 -54.29,19.21 -80.56,19.21 -14.76,0 -29.56,-2.04 -44.18,-6.09 z m -39.8,-215.65 c -5.12,0 -10.14,2.25 -13.55,6.46 -5.24,6.45 -10.71,12.91 -16.26,19.21 -5.52,6.26 -5.83,15.56 -0.73,22.17 44.35,57.56 55.05,115.48 31.79,172.15 -1.79,4.35 -1.74,9.22 0.13,13.54 1.86,4.31 5.38,7.69 9.77,9.37 23.8,9.1 48.3,13.72 72.83,13.72 33.74,0 68.18,-8.72 102.37,-25.92 3.91,-1.96 6.94,-5.32 8.48,-9.42 26.08,-69.01 20.7,-133.89 -15.98,-192.84 -4.39,-7.07 -13.16,-10.04 -20.95,-7.11 -16.65,6.28 -34.07,9.46 -51.77,9.46 -30.93,0 -63.77,-9.61 -97.62,-28.56 -2.68,-1.5 -5.61,-2.23 -8.51,-2.23 z"
         id="path292-6" />
    </clipPath>
    <clipPath
       clipPathUnits="userSpaceOnUse"
       id="clipPath295-4">
      <path
         d="m 2189.97,7519.73 c 40.03,-45.65 54.48,-104.92 42.14,-173.13 36.85,43.82 79.73,69.42 127.79,76.28 3.57,50.22 -13.44,95.74 -50.7,135.56 -1.57,0.03 -3.14,0.05 -4.69,0.05 -44.76,0 -83.21,-13.03 -114.54,-38.76 z m 46.49,-213.03 c -2.66,0 -5.35,0.61 -7.87,1.88 -8.12,4.11 -16.09,7.94 -23.7,11.39 -7.57,3.43 -11.67,11.73 -9.79,19.83 16.22,69.72 2.04,126.28 -42.12,168.12 -3.41,3.24 -5.38,7.72 -5.44,12.43 -0.06,4.71 1.78,9.24 5.12,12.57 43.06,42.96 98.71,63.24 165.02,60.13 4.37,-0.21 8.5,-2.05 11.57,-5.16 52.07,-52.62 73.51,-114.31 63.74,-183.34 -1.15,-8.2 -7.91,-14.45 -16.17,-14.97 -47.8,-2.98 -90.35,-28.55 -126.47,-76.01 -3.4,-4.45 -8.59,-6.87 -13.89,-6.87 z"
         id="path295-4" />
    </clipPath>
    <clipPath
       clipPathUnits="userSpaceOnUse"
       id="clipPath298-4">
      <path
         d="m 1734.12,7349.85 c 44.77,-8.9 80.32,-35.63 105.35,-78.75 6.59,60.72 37.46,105.74 90.75,130.81 -17.72,70.53 -60.38,113.62 -127.03,128.25 -60.47,-40.52 -83.67,-101.11 -69.07,-180.31 z M 1853,7168.54 c -8,0 -15.16,5.51 -16.99,13.57 -8.15,35.85 -20.74,65.28 -37.43,87.47 -21.06,28 -47.62,43.59 -81.21,47.66 -7.32,0.88 -13.3,6.28 -14.91,13.48 -22.94,101.9 7.49,182.38 87.97,232.73 3.72,2.31 8.16,3.16 12.46,2.35 88.99,-16.63 145.88,-75.71 164.61,-170.88 0.42,-1.51 0.65,-3.31 0.65,-4.96 0,-9.62 -7.78,-17.64 -17.4,-17.64 h -0.39 c -65.98,-29.06 -90.04,-88.99 -71.52,-181.52 0.92,-4.58 -0.05,-9.23 -2.66,-13.1 -2.63,-3.87 -6.69,-6.47 -11.28,-7.31 l -8.73,-1.59 c -1.07,-0.19 -2.13,-0.26 -3.17,-0.26 z"
         id="path298-4" />
    </clipPath>
    <clipPath
       clipPathUnits="userSpaceOnUse"
       id="clipPath301-4">
      <path
         d="m 1544.62,7214.42 c 32.78,0 64.92,-11.29 95.25,-33.15 -18.71,57.96 -9.07,111.5 28.97,156.02 -36.17,46.1 -79.94,69.46 -130.3,69.46 -12.13,0 -24.84,-1.36 -37.87,-4.04 -38.64,-61.44 -35.32,-126.04 9.87,-192.25 11.4,2.64 22.82,3.96 34.08,3.96 z m 142.35,-122.78 c -5.32,0 -10.57,2.43 -13.98,7 -27.57,36.91 -72.22,80.91 -128.37,80.91 -11.78,0 -23.9,-1.93 -36,-5.73 -7.09,-2.23 -14.81,0.27 -19.24,6.24 -62.02,83.59 -66.83,169.31 -13.89,247.87 2.44,3.63 6.16,6.2 10.41,7.22 18.01,4.29 35.72,6.47 52.64,6.47 66.5,0 122.87,-32.31 167.55,-96.04 3.66,-5.22 4.18,-12.02 1.37,-17.73 -1.54,-3.1 -3.92,-5.61 -6.78,-7.3 -49.9,-52.73 -47.28,-118.77 7.81,-196.37 2.71,-3.81 3.77,-8.55 2.95,-13.14 -0.82,-4.6 -3.45,-8.69 -7.31,-11.33 l -7.31,-5.02 c -3.02,-2.06 -6.45,-3.05 -9.85,-3.05 z"
         id="path301-3" />
    </clipPath>
    <clipPath
       clipPathUnits="userSpaceOnUse"
       id="clipPath304-7">
      <path
         d="m 1276.16,7163.24 c -10.31,-71.76 18.9,-129.36 86.94,-171.46 26.77,20.48 57.62,30.85 91.9,30.85 12.59,0 25.56,-1.39 38.87,-4.17 -40.36,45.05 -53.38,97.51 -37.17,153.24 -29.77,15.8 -58.93,23.8 -86.85,23.8 -32.32,0 -63.81,-10.85 -93.69,-32.26 z m 88.62,-210.14 c -2.94,0 -5.9,0.74 -8.58,2.26 -90.52,51.13 -129.7,127.44 -113.31,220.67 0.76,4.31 3.11,8.17 6.58,10.83 37.74,28.87 78.24,43.51 120.38,43.51 38.09,0 77.42,-11.97 116.88,-35.58 7.23,-4.34 10.33,-13.22 7.36,-21.11 -26.29,-69.87 2.55,-130.27 85.71,-179.54 4.02,-2.38 6.92,-6.27 8.04,-10.81 1.12,-4.54 0.38,-9.34 -2.06,-13.32 l -4.65,-7.55 c -4.9,-7.98 -15.21,-10.66 -23.37,-6.09 -37.22,20.83 -71.8,31.39 -102.76,31.39 -30.19,0 -55.89,-9.88 -78.59,-30.21 -3.28,-2.94 -7.44,-4.45 -11.63,-4.45 z"
         id="path304-5" />
    </clipPath>
    <clipPath
       clipPathUnits="userSpaceOnUse"
       id="clipPath307-6">
      <path
         d="m 1168.45,6853.14 c 19.79,-69.78 69.95,-110.53 149.29,-121.28 22.08,41.04 59.17,67.56 109.11,78.35 -54.93,24.62 -88.12,66.97 -96.21,124.06 -5.96,0.43 -11.81,0.64 -17.5,0.64 -64.21,0 -112.86,-27.5 -144.69,-81.77 z M 1328,6695.7 l -1.66,0.08 c -103.62,9.84 -170.52,63.62 -193.48,155.52 -1.06,4.25 -0.49,8.73 1.6,12.57 38.29,70.28 98.41,105.92 178.68,105.92 11.44,0 23.39,-0.76 35.52,-2.26 8.33,-1.02 14.74,-7.83 15.28,-16.2 4.7,-73.92 55.44,-117.09 150.82,-128.32 4.63,-0.54 8.86,-2.92 11.72,-6.61 2.87,-3.69 4.14,-8.37 3.52,-13 l -1.17,-8.8 c -1.22,-9.26 -9.58,-15.91 -18.85,-15.07 -9.62,0.87 -19.08,1.31 -28.11,1.31 -69.62,0 -116.03,-25.15 -137.93,-74.75 -2.81,-6.36 -9.1,-10.39 -15.94,-10.39 z"
         id="path307-1" />
    </clipPath>
    <clipPath
       clipPathUnits="userSpaceOnUse"
       id="clipPath310-2">
      <path
         d="m 1196.19,6525.72 c 33.07,-39.65 74.41,-60.08 122.97,-60.08 h 0.01 c 19.8,0 41.03,3.63 63.24,10.16 3.26,46.99 26.19,86.5 67.48,116.67 -59.93,0.13 -107.23,25.48 -137.64,73.72 -69.41,-24.82 -108.41,-72.06 -116.06,-140.47 z m 122.98,-94.95 h -0.01 c -61.97,0 -114.03,26.73 -154.74,78.79 -2.7,3.45 -4,7.94 -3.65,12.31 7.28,90.79 60.68,153.84 154.44,182.17 7.99,2.41 16.57,-1.13 20.46,-8.51 24.17,-45.8 61.68,-68.04 114.68,-68.04 22.58,0 47.59,4.2 74.33,12.46 4.45,1.37 9.27,0.91 13.38,-1.29 4.11,-2.2 7.16,-5.96 8.48,-10.43 l 2.53,-8.54 c 2.64,-8.95 -2.24,-18.39 -11.06,-21.42 -80.8,-27.77 -121.55,-73.16 -121.13,-134.92 0.05,-7.52 -4.72,-14.56 -11.85,-16.97 -29.99,-10.14 -58.88,-15.61 -85.86,-15.61 z"
         id="path310-6" />
    </clipPath>
    <clipPath
       clipPathUnits="userSpaceOnUse"
       id="clipPath313-3">
      <path
         d="m 1354.56,6238.53 c 24.87,-12.24 49.7,-18.43 73.89,-18.43 39.73,0 79.1,16.51 117.2,49.11 -16.23,44.29 -11.32,89.61 14.13,134.02 -23.57,-10.42 -46.94,-15.67 -69.93,-15.67 -29.99,0 -58.74,9.11 -85.64,27.1 -53.88,-51.07 -70.58,-110.24 -49.65,-176.13 z m 73.9,-51.87 h -0.01 c -31.93,0 -64.34,7.91 -96.34,24.9 -3.86,2.05 -6.81,5.11 -8.27,9.24 -30.39,86.23 -6.94,165.52 67.83,229.67 6.31,5.41 15.57,5.53 22.11,0.39 23.99,-18.8 49.58,-28.38 76.07,-28.38 46.55,0 90.06,29.32 118.36,53.93 3.51,3.05 8.1,4.57 12.75,4.22 4.64,-0.35 8.95,-2.54 11.96,-6.08 l 5.81,-6.82 c 6.04,-7.09 5.44,-17.67 -1.36,-24.03 -62.05,-58.09 -80.57,-115.99 -55.04,-172.07 3.11,-6.84 1.49,-14.19 -4.02,-19.3 -47.51,-44.05 -97.93,-65.67 -149.85,-65.67 z"
         id="path313-0" />
    </clipPath>
    <clipPath
       clipPathUnits="userSpaceOnUse"
       id="clipPath316-3">
      <path
         d="m 1616.19,6040.26 c 2.72,-0.1 5.42,-0.15 8.07,-0.15 69.12,0 121.04,35.93 154.47,106.84 -32.75,33.85 -46.66,76.76 -41.46,127.64 -33.03,-36.53 -72.84,-55.97 -117.69,-55.97 v 0 c -9.54,0 -19.35,1.37 -29.32,3.1 -28.88,-68.92 -20.18,-129.55 25.93,-181.46 z m 8.07,-35.03 v 0 c -5.66,0 -11.49,0.21 -17.32,0.62 -4.36,0.3 -8.45,2.23 -11.45,5.4 -63.05,66.64 -73.81,149.09 -31.11,238.45 3.58,7.49 11.95,10.93 20,8.9 12.14,-3.06 23.98,-5.1 35.2,-5.1 v 0 c 37.38,0 90.57,18.92 131.77,106.71 1.98,4.21 5.54,7.7 9.92,9.26 4.37,1.57 9.19,1.44 13.39,-0.57 l 8.1,-3.82 c 8.39,-4.01 12.16,-13.86 8.56,-22.43 -32.6,-77.82 -25.9,-137.89 19.91,-178.59 5.6,-4.97 7.4,-12.95 4.47,-19.84 -38.58,-90.92 -104.78,-138.99 -191.44,-138.99 z"
         id="path316-6" />
    </clipPath>
    <clipPath
       clipPathUnits="userSpaceOnUse"
       id="clipPath319-2">
      <path
         d="m 1838.14,6121.87 c 1.47,-75.04 34.28,-127.56 97.7,-156.3 68.33,27.36 103.64,82.67 105.12,164.59 -43.45,17.7 -73.65,51.69 -89.51,100.22 -18.8,-57.13 -57.47,-94.54 -113.31,-108.51 z m 97.28,-192.56 c -2.28,0 -4.56,0.44 -6.69,1.33 -84.93,35.32 -128.28,106.52 -125.38,205.91 0.24,8.3 6.31,15.28 14.5,16.67 72.03,12.28 109.61,66.14 111.69,160.08 0.1,4.63 2.05,9.04 5.41,12.24 3.36,3.2 7.87,4.9 12.5,4.8 l 9.02,-0.25 c 9.28,-0.25 16.73,-7.73 16.95,-17 2.04,-83.65 32.42,-135.5 90.3,-154.13 7.08,-2.28 11.94,-8.79 12.09,-16.24 2.18,-106.08 -44.3,-179.51 -134.42,-212.36 -1.93,-0.7 -3.95,-1.05 -5.97,-1.05 z"
         id="path319-1" />
    </clipPath>
    <clipPath
       clipPathUnits="userSpaceOnUse"
       id="clipPath322-0">
      <path
         d="m 2105.3,6130.63 c 31.86,-68.13 83.25,-102.86 152.94,-103.29 51.47,52.97 61.13,118.12 28.75,193.9 -1.36,-0.04 -2.72,-0.06 -4.07,-0.06 -44.78,0 -84.55,18.9 -117.57,55.36 6.15,-60.22 -14.19,-110.37 -60.05,-145.91 z m 154.27,-138.17 c -88.8,0 -155.2,47.55 -192.04,137.52 -3.16,7.7 -0.42,16.57 6.53,21.15 61.25,40.42 73.95,104.9 37.75,191.65 -1.79,4.28 -1.79,9.09 -0.02,13.38 1.77,4.28 5.17,7.68 9.46,9.46 l 8.36,3.45 c 8.57,3.53 18.41,-0.25 22.4,-8.62 35.66,-74.83 84.12,-109.84 144.15,-103.71 7.34,0.74 14.38,-3.21 17.54,-9.89 45.55,-96.33 33.08,-182.57 -36.07,-249.42 -3.14,-3.04 -7.31,-4.78 -11.69,-4.89 -2.15,-0.05 -4.27,-0.08 -6.37,-0.08 z"
         id="path322-9" />
    </clipPath>
    <clipPath
       clipPathUnits="userSpaceOnUse"
       id="clipPath325-1">
      <path
         d="m 2346.02,6246.96 c 36.25,-31.41 74.36,-47.31 113.46,-47.31 22.11,0 45.02,5.13 68.16,15.25 25.53,69.47 7.72,133.03 -52.98,189.18 -41.51,-19.41 -86.91,-18.75 -132.62,1.42 30.25,-52.79 31.9,-107.18 3.98,-158.54 z m 113.46,-82.18 c -52.21,0 -102.06,22.42 -148.15,66.64 -4.55,4.37 -6.39,10.85 -4.81,16.95 0.82,3.17 2.49,5.97 4.76,8.16 37.4,60.98 22.26,124.11 -45.05,187.69 -3.37,3.18 -5.33,7.58 -5.45,12.21 -0.13,4.63 1.6,9.13 4.79,12.48 l 6.24,6.56 c 6.39,6.72 16.92,7.26 23.96,1.24 40.36,-34.47 79.4,-51.95 116.04,-51.95 19.59,0 38.75,5.21 56.94,15.47 6.39,3.61 14.35,2.83 19.92,-1.94 81.08,-69.54 104.89,-153.5 68.85,-242.82 -1.64,-4.06 -4.74,-7.35 -8.69,-9.23 -29.97,-14.24 -60.04,-21.46 -89.35,-21.46 z"
         id="path325-3" />
    </clipPath>
    <clipPath
       clipPathUnits="userSpaceOnUse"
       id="clipPath328-8">
      <path
         d="m 2518.99,6451.09 c 21.26,-6.41 41.65,-9.65 60.8,-9.65 45.17,0 84.73,18.29 117.68,54.38 -4.95,73.87 -47.09,124.71 -125.42,151.3 -29.99,-34.25 -70.69,-51.67 -121.19,-51.81 49.44,-36.12 73.09,-85.49 68.13,-144.22 z m 60.8,-44.52 v 0 c -27.47,0 -56.73,5.54 -86.99,16.48 -5.95,2.15 -10.28,7.37 -11.28,13.63 -0.65,4.03 0.15,8.09 2.13,11.51 8.6,70.19 -31.06,121.21 -117.94,151.68 -4.38,1.54 -7.96,4.75 -9.96,8.93 -2,4.18 -2.25,8.99 -0.7,13.36 l 3.03,8.52 c 3.1,8.73 12.5,13.52 21.39,10.87 25.4,-7.54 49.22,-11.37 70.78,-11.36 43.82,0 78.07,16.02 101.82,47.62 4.38,5.83 11.93,8.32 18.92,6.24 102.36,-30.54 158.27,-97.57 161.67,-193.83 0.16,-4.37 -1.34,-8.64 -4.18,-11.96 -40.75,-47.57 -90.78,-71.69 -148.69,-71.69 z"
         id="path328-3" />
    </clipPath>
    <clipPath
       clipPathUnits="userSpaceOnUse"
       id="clipPath331-6">
      <path
         d="m 2473.6,6812.99 c 60.31,-12.82 101.46,-48.38 120.73,-104.81 73.79,9.56 122.17,47.64 144.01,113.35 -34.45,65.25 -93.59,94.66 -175.77,87.23 -13.61,-43.14 -43.8,-75.46 -88.97,-95.77 z m 106.27,-141.22 c -5.87,0 -11.39,2.97 -14.62,7.94 -2.5,3.83 -3.34,8.43 -2.5,12.8 -18.79,60.38 -67.19,90.99 -143.97,90.99 -8.32,0 -17.02,-0.38 -25.86,-1.12 -4.6,-0.39 -9.21,1.09 -12.75,4.1 -3.53,3.01 -5.72,7.3 -6.08,11.93 l -0.7,8.99 c -0.72,9.26 5.95,17.45 15.15,18.64 81.62,10.53 129.86,45.1 143.38,102.75 1.66,7.08 7.55,12.38 14.76,13.31 13.78,1.77 27.29,2.67 40.18,2.67 85.2,0 149.49,-39.44 185.92,-114.04 1.92,-3.93 2.29,-8.44 1.04,-12.63 -26.34,-88.46 -92.97,-139.04 -192.69,-146.28 z"
         id="path331-9" />
    </clipPath>
    <clipPath
       clipPathUnits="userSpaceOnUse"
       id="clipPath334-7">
      <path
         d="m 2444.56,7025.21 c 44.37,0 82.67,-17.19 114.02,-51.12 62.93,38.72 91.38,93 84.63,161.61 -30.86,24.27 -64.07,36.56 -98.82,36.56 -30.65,0 -63.11,-9.41 -96.61,-28 4.97,-44.82 -9.49,-86.49 -42.42,-123.3 13.43,2.82 26.51,4.25 39.2,4.25 z m 108.23,-91.99 c -3.31,0 -6.62,0.94 -9.49,2.82 -4.06,2.63 -6.78,6.77 -7.64,11.4 -25.34,28.85 -55.2,42.89 -91.1,42.89 -30.48,0 -64.52,-10.26 -101.15,-30.49 -4.07,-2.25 -8.87,-2.78 -13.33,-1.47 -4.46,1.3 -8.21,4.34 -10.43,8.43 l -4.27,7.89 c -4.43,8.18 -1.66,18.4 6.29,23.22 70.66,42.81 100.94,94.04 89.99,152.27 -1.35,7.14 1.88,14.37 8.1,18.14 42.55,25.75 84.49,38.81 124.63,38.81 45.16,0 87.73,-16.49 126.53,-49.01 3.36,-2.81 5.53,-6.78 6.09,-11.12 11.89,-91.32 -28.21,-164.53 -115.96,-211.7 -2.58,-1.39 -5.42,-2.08 -8.26,-2.08 z"
         id="path334-6" />
    </clipPath>
    <clipPath
       clipPathUnits="userSpaceOnUse"
       id="clipPath337-7">
      <path
         d="m 2247.09,7313.12 c 22.79,-38.96 26.51,-82.94 11.35,-130 30.41,21.99 62.64,33.34 95.48,33.34 20.99,0 42.32,-4.6 63.57,-13.71 41.23,60.72 44.95,121.6 11.03,181.27 -15.46,3.91 -30.53,5.89 -44.9,5.89 -52.03,0 -97.92,-25.83 -136.53,-76.79 z m -34.85,-218.6 c -3.82,0 -7.57,1.26 -10.63,3.61 l -7.08,5.44 c -7.39,5.69 -9,16.18 -3.66,23.81 47.63,68.16 54.62,127.54 20.79,176.48 -4.15,6 -4.12,13.94 0.06,19.91 46.9,67.03 104.74,101.01 171.9,101.01 19.66,0 40.21,-3.03 61.1,-9.01 4.2,-1.2 7.8,-3.94 10.08,-7.67 47.84,-78.32 41.2,-161.23 -19.21,-239.77 -3.89,-5.06 -10.23,-7.58 -16.53,-6.6 -4.79,0.76 -8.99,3.46 -11.66,7.35 -18.12,8.31 -36.09,12.51 -53.48,12.51 -30.8,0 -77.97,-13.9 -127.74,-80.12 -2.8,-3.72 -6.97,-6.17 -11.59,-6.8 z"
         id="path337-7" />
    </clipPath>
    <clipPath
       clipPathUnits="userSpaceOnUse"
       id="clipPath340-3">
      <path
         d="m 1994.73,7386 c 36.9,-26.35 58.3,-65.12 63.59,-114.46 30.87,53 77.73,81.76 136.86,82.71 12.68,71.86 -8.73,128.73 -63.8,169.3 -72.01,-12.47 -117.93,-58.7 -136.65,-137.55 z m 50.1,-216.49 c -1.36,0 -2.74,0.16 -4.08,0.49 l -8.65,2.08 c -9.07,2.19 -14.81,11.14 -13.02,20.3 16.12,82.25 -1.7,139.7 -52.95,170.72 -6.27,3.79 -9.5,11.1 -8.08,18.29 20.31,102.98 80.91,164.45 175.22,177.76 4.34,0.6 8.73,-0.43 12.34,-2.91 75.22,-51.87 102.98,-129.91 80.25,-225.69 -1.47,-6.21 -6.22,-11.12 -12.37,-12.8 -4.5,-1.22 -9.22,-0.59 -13.16,1.64 l -2.1,0.01 c -69.97,0 -115.86,-45.86 -136.39,-136.31 -1.03,-4.55 -3.85,-8.5 -7.81,-10.96 -2.78,-1.72 -5.97,-2.62 -9.2,-2.62 z"
         id="path340-4" />
    </clipPath>
    <clipPath
       clipPathUnits="userSpaceOnUse"
       id="clipPath343-0">
      <path
         d="m 1899.89,7121.09 48.93,-0.25 48.91,0.25 c 11.93,29.53 43.2,118.83 16.4,185.94 -11.88,29.74 -33.28,51.07 -65.31,65.04 -32.06,-13.98 -53.47,-35.35 -65.34,-65.13 -26.81,-67.3 4.46,-156.36 16.41,-185.85 z m 48.93,-36.47 h -0.08 l -60.45,0.98 c -6.72,0.03 -12.82,4.26 -15.69,10.34 -2.44,5.19 -59.5,128.42 -21.51,223.74 16.18,40.6 46.93,70.07 91.4,87.41 4.07,1.59 8.59,1.63 12.67,0.04 44.46,-17.34 75.22,-46.7 91.4,-87.31 37.98,-95.32 -19.07,-218.36 -21.52,-223.56 -2.87,-6.07 -8.97,-10.63 -15.68,-10.66 l -60.45,-0.98 z"
         id="path343-1" />
    </clipPath>
    <clipPath
       clipPathUnits="userSpaceOnUse"
       id="clipPath346-6">
      <path
         d="m 1698.59,7318.31 c -23.59,-25.81 -34.46,-54.04 -33.19,-86.07 2.87,-72.39 67.67,-141.03 90.58,-163.11 l 44.88,19.71 44.5,20.09 c -1.1,31.39 -8.67,123.53 -58.56,174.43 -23.28,23.75 -52.27,35.19 -88.21,34.95 z m 53.94,-287.18 c -4.11,0 -8.16,1.45 -11.39,4.23 -4.34,3.75 -106.52,92.96 -110.59,195.49 -1.73,43.68 14.41,83.03 47.98,116.96 3.08,3.1 7.21,4.94 11.58,5.15 49.07,2.32 90.04,-12.95 121.68,-45.28 70.75,-72.28 68.73,-204.71 68.61,-210.32 -0.15,-6.71 -4.14,-12.75 -10.26,-15.51 l -55.1,-24.87 -55.5,-24.38 c -2.25,-0.99 -4.64,-1.47 -7.01,-1.47 z"
         id="path346-0" />
    </clipPath>
    <clipPath
       clipPathUnits="userSpaceOnUse"
       id="clipPath349-6">
      <path
         d="m 1491.87,7167.42 c -11.05,-33.15 -9.51,-63.32 4.64,-92.04 31.93,-64.83 119.2,-101.34 149.14,-112.24 l 32.98,36.24 32.48,36.45 c -16.54,33.86 -77.13,143.77 -166.5,143.77 -17.15,0 -34.87,-4.1 -52.74,-12.18 z m 158.98,-241.92 c -1.68,0 -3.37,0.24 -5.03,0.74 -5.49,1.66 -135.12,41.6 -180.54,133.61 -19.35,39.2 -20.61,81.71 -3.74,126.36 1.55,4.09 4.57,7.45 8.48,9.41 24.87,12.51 49.97,18.85 74.59,18.85 53.91,0 106.34,-30.72 151.65,-88.85 33.05,-42.4 50.82,-84.33 51.56,-86.09 2.6,-6.2 1.41,-13.33 -3.06,-18.35 l -40.22,-45.13 -40.79,-44.84 c -3.35,-3.7 -8.07,-5.71 -12.9,-5.71 z"
         id="path349-7" />
    </clipPath>
    <clipPath
       clipPathUnits="userSpaceOnUse"
       id="clipPath352-2">
      <path
         d="m 1364.39,6945.51 c 10.87,-108.63 126.63,-125.08 195.62,-125.08 11.49,0 21.15,0.49 27.95,0.98 l 15.38,46.54 14.86,46.51 c -23.44,19.67 -93.79,73.33 -163.25,73.33 -35.65,0 -65.34,-13.84 -90.56,-42.28 z m 195.62,-159.94 c -140.74,0 -224.93,60.05 -230.97,164.76 -0.26,4.36 1.15,8.66 3.91,12.05 32.75,40 73.79,60.28 122,60.28 98.55,0 191.38,-86.22 195.28,-89.9 4.9,-4.6 6.71,-11.6 4.67,-18 l -18.39,-57.58 -19.02,-57.57 c -2.11,-6.37 -7.7,-10.97 -14.36,-11.82 -0.72,-0.09 -17.81,-2.22 -43.12,-2.22 z"
         id="path352-4" />
    </clipPath>
    <clipPath
       clipPathUnits="userSpaceOnUse"
       id="clipPath355-0">
      <path
         d="m 1338.19,6691.34 c 24.2,-42.64 60.95,-62.97 112.11,-62.97 h 0.02 c 59.47,0 119.83,28.42 142.59,40.55 l -4.88,48.56 -5.35,48.43 c -18.19,5.22 -58.06,15.21 -100.84,15.21 -76.34,0 -124.63,-30.09 -143.65,-89.78 z m 112.13,-97.83 h -0.02 c -65.93,0 -116.55,30.1 -146.37,87.87 -2,3.88 -2.47,8.17 -1.32,12.38 21.87,79.93 83.85,122.07 179.23,122.07 64.11,0 120.3,-19.41 122.66,-20.23 6.34,-2.22 10.85,-7.9 11.59,-14.58 l 6.62,-60.1 6.03,-60.33 c 0.67,-6.68 -2.56,-12.72 -8.31,-16.21 -3.45,-2.09 -85.54,-50.87 -170.11,-50.87 z"
         id="path355-9" />
    </clipPath>
    <clipPath
       clipPathUnits="userSpaceOnUse"
       id="clipPath358-0">
      <path
         d="m 1417.8,6447.5 c 22.82,-16.77 47.01,-25.45 72.02,-25.45 h 0.02 c 78.49,0 148.61,81.49 169.77,108.58 l -24.28,42.65 -24.63,42.2 c -31.54,-4.44 -124.5,-22.07 -169.22,-78.84 -19.81,-25.16 -27.59,-54.42 -23.68,-89.14 z m 72.04,-60.32 h -0.02 c -35.13,0 -68.52,12.66 -99.25,37.28 -3.42,2.73 -5.68,6.74 -6.34,11.06 -7.21,47.18 2.85,88.55 29.93,122.86 63.56,80.56 198.66,92.7 204.38,93.18 6.68,0.56 13.12,-2.77 16.5,-8.57 l 30.49,-52.19 30.05,-52.66 c 3.33,-5.83 3.01,-13.23 -0.82,-18.75 -3.74,-5.39 -92.91,-132.21 -204.92,-132.21 z"
         id="path358-8" />
    </clipPath>
    <clipPath
       clipPathUnits="userSpaceOnUse"
       id="clipPath361-7">
      <path
         d="m 1589.46,6257.86 c 10.37,-2.27 20.48,-3.42 30.13,-3.42 105.18,-0.02 147.11,138.02 156.98,177.7 l -39.5,29.01 -39.65,28.5 c -27.01,-16.89 -104.79,-70.74 -122.55,-140.79 -7.87,-31.04 -3.1,-60.88 14.59,-91 z m 30.14,-39.24 h -0.02 c -14.68,0 -30.03,2.55 -45.62,6.64 -4.23,1.11 -7.89,4 -10.25,7.68 -25.78,40.17 -33.39,82.13 -22.61,124.49 25.29,99.44 143.78,165.52 148.82,168.29 5.89,3.23 13.11,2.82 18.56,-1.1 l 49.08,-35.27 48.87,-35.87 c 5.42,-3.98 8.06,-10.71 6.81,-17.31 -0.41,-2.17 -10.43,-54.27 -38.22,-106.61 -38.37,-72.27 -92.11,-110.94 -155.42,-110.94 z"
         id="path361-9" />
    </clipPath>
    <clipPath
       clipPathUnits="userSpaceOnUse"
       id="clipPath364-1">
      <path
         d="m 1827.84,6409.93 c -17.81,-26.41 -66.96,-107.25 -54.69,-178.47 5.44,-31.56 21.93,-56.87 50.36,-77.2 34.23,7.01 59.59,23.43 77.39,50.04 40.17,60.07 28.16,153.9 22.63,185.29 l -47.88,10.43 z m -8.26,-291.55 c -3.38,0 -6.71,0.99 -9.57,2.86 -39.89,26.21 -63.86,61.34 -71.25,104.42 -17.33,101.14 64.06,209.65 67.53,214.22 4.07,5.34 10.85,7.89 17.43,6.52 l 59.19,-12.27 59.22,-12.9 c 6.57,-1.43 11.73,-6.51 13.27,-13.05 1.31,-5.58 31.54,-137.82 -25.44,-223.16 -24.27,-36.35 -60.46,-58.7 -107.56,-66.41 -0.94,-0.16 -1.88,-0.23 -2.82,-0.23 z"
         id="path364-2" />
    </clipPath>
    <clipPath
       clipPathUnits="userSpaceOnUse"
       id="clipPath367-2">
      <path
         d="m 1979.41,6390.15 c -5.52,-31.38 -17.54,-125.21 22.63,-185.29 17.8,-26.62 43.17,-43.03 77.4,-50.04 28.43,20.32 44.92,45.64 50.35,77.2 12.27,71.21 -36.87,152.04 -54.69,178.47 l -47.98,-9.95 z m 103.95,-271.21 c -0.94,0 -1.88,0.07 -2.82,0.23 -47.1,7.71 -83.28,30.06 -107.56,66.41 -56.97,85.34 -26.75,217.57 -25.44,223.16 1.55,6.54 6.7,11.62 13.27,13.04 l 59.06,12.87 59.36,12.3 c 6.58,1.38 13.36,-1.17 17.42,-6.52 3.48,-4.57 84.87,-113.07 67.53,-214.21 -7.39,-43.09 -31.36,-78.22 -71.25,-104.42 -2.86,-1.88 -6.19,-2.86 -9.57,-2.86 z"
         id="path367-7" />
    </clipPath>
    <clipPath
       clipPathUnits="userSpaceOnUse"
       id="clipPath370-8">
      <path
         d="m 2125.93,6433.93 c 9.94,-39.68 52.07,-177.52 156.98,-177.52 h 0.01 c 9.63,0 19.74,0.95 30.11,3.22 17.71,30.16 22.47,59.92 14.57,90.99 -17.86,70.21 -95.52,123.83 -122.52,140.66 l -39.8,-28.54 z m 156.99,-212.4 h -0.01 c -63.31,0 -117.05,38.01 -155.43,110.28 -27.8,52.34 -37.82,103.86 -38.23,106.04 -1.25,6.59 1.39,13.28 6.81,17.26 l 48.73,35.75 49.22,35.38 c 5.45,3.92 12.67,4.35 18.57,1.11 5.03,-2.76 123.52,-68.78 148.81,-168.23 10.78,-42.36 3.17,-84.2 -22.61,-124.37 -2.36,-3.68 -6.02,-6.14 -10.25,-7.25 -15.59,-4.09 -30.94,-5.97 -45.61,-5.97 z"
         id="path370-8" />
    </clipPath>
    <clipPath
       clipPathUnits="userSpaceOnUse"
       id="clipPath373-4">
      <path
         d="m 2242.05,6533.13 c 21.16,-27.08 91.29,-108.41 169.8,-108.41 25,0 49.19,8.5 72.01,25.28 3.91,34.72 -3.86,63.92 -23.67,89.07 -44.72,56.76 -137.67,74.33 -169.23,78.78 l -24.71,-42.32 z m 169.8,-143.05 h -0.01 c -112.01,0 -201.19,126.53 -204.94,131.92 -3.82,5.52 -4.14,12.69 -0.81,18.53 l 29.95,52.47 30.58,52.33 c 3.39,5.8 9.84,9.13 16.51,8.58 5.71,-0.48 140.82,-12.6 204.37,-93.16 27.08,-34.32 37.15,-75.64 29.93,-122.82 -0.66,-4.32 -2.92,-8.12 -6.34,-10.85 -30.73,-24.63 -64.13,-37 -99.24,-37 z"
         id="path373-8" />
    </clipPath>
    <clipPath
       clipPathUnits="userSpaceOnUse"
       id="clipPath376-9">
      <path
         d="m 2307.7,6671.16 c 22.8,-12.12 83.33,-40.99 142.6,-40.99 51.16,0 87.9,20.75 112.12,63.4 -19.03,59.69 -67.32,89.94 -143.66,89.94 -42.78,0 -82.64,-9.82 -100.84,-15.04 l -5.36,-48.72 z m 142.61,-75.87 h -0.01 c -84.56,0 -166.68,49.22 -170.13,51.31 -5.75,3.49 -8.98,9.96 -8.31,16.65 l 6.02,60.14 6.64,60.26 c 0.73,6.68 5.24,12.34 11.58,14.56 2.36,0.82 58.54,20.17 122.66,20.17 95.39,0 157.36,-42.25 179.23,-122.17 1.16,-4.22 0.69,-8.72 -1.32,-12.61 -29.82,-57.77 -80.44,-88.31 -146.36,-88.31 z"
         id="path376-1" />
    </clipPath>
    <clipPath
       clipPathUnits="userSpaceOnUse"
       id="clipPath379-1">
      <path
         d="m 2311.54,6824 c 6.79,-0.48 16.46,-0.92 27.95,-0.92 h 0.01 c 69,0 184.74,16.4 195.61,125.03 -25.23,28.43 -54.91,42.25 -90.56,42.25 -69.47,0 -139.8,-53.67 -163.25,-73.33 l 14.91,-46.67 z m 27.96,-35.79 h -0.01 c -25.31,0 -42.41,2.08 -43.12,2.18 -6.66,0.84 -12.25,5.42 -14.36,11.8 l -18.97,57.38 -18.44,57.74 c -2.05,6.4 -0.23,13.4 4.66,18.01 3.91,3.66 96.73,89.89 195.29,89.89 48.2,0 89.24,-20.28 121.99,-60.28 2.77,-3.39 4.17,-7.64 3.92,-12.01 -6.05,-104.7 -90.24,-164.71 -230.96,-164.71 z"
         id="path379-0" />
    </clipPath>
    <clipPath
       clipPathUnits="userSpaceOnUse"
       id="clipPath382-5">
      <path
         d="m 2187.41,7037.84 32.61,-36.59 32.86,-36.12 c 29.94,10.91 117.21,47.41 149.15,112.24 14.15,28.72 15.68,58.89 4.64,92.04 -17.88,8.09 -35.59,12.18 -52.75,12.18 -89.61,0 -150.02,-109.88 -166.51,-143.75 z m 60.27,-110.34 c -4.83,0 -9.55,2.01 -12.9,5.7 l -40.67,44.72 -40.34,45.25 c -4.47,5.01 -5.66,12.15 -3.06,18.34 0.74,1.77 18.5,43.7 51.56,86.11 45.3,58.12 97.74,88.84 151.65,88.84 24.62,0 49.72,-6.34 74.59,-18.84 3.91,-1.97 6.93,-5.33 8.48,-9.42 16.87,-44.65 15.61,-87.16 -3.74,-126.35 -45.42,-92.02 -175.05,-131.96 -180.54,-133.61 -1.66,-0.51 -3.35,-0.74 -5.03,-0.74 z"
         id="path382-1" />
    </clipPath>
    <clipPath
       clipPathUnits="userSpaceOnUse"
       id="clipPath385-5">
      <path
         d="m 2052.5,7110.02 44.68,-20.16 44.7,-19.64 c 22.92,22.15 87.79,91.3 90.61,163.51 1.24,32 -9.63,60.13 -33.21,86.28 h -1.05 c -35.64,0 -64.18,-11.76 -87.25,-35.34 -49.96,-51.06 -57.42,-143.29 -58.48,-174.65 z m 92.85,-77.8 c -2.38,0 -4.76,0.49 -7.02,1.47 l -55.34,24.31 -55.26,24.93 c -6.12,2.77 -10.11,8.81 -10.25,15.52 -0.13,5.6 -2.16,138.02 68.58,210.31 31.62,32.31 72.67,47.62 121.71,45.29 4.37,-0.21 8.5,-2.05 11.58,-5.15 33.57,-33.93 49.71,-73.28 47.97,-116.96 -4.06,-102.53 -106.24,-191.74 -110.59,-195.49 -3.22,-2.78 -7.28,-4.23 -11.38,-4.23 z"
         id="path385-4" />
    </clipPath>
    <clipPath
       clipPathUnits="userSpaceOnUse"
       id="clipPath388-5">
      <path
         d="m 1947.26,7086.58 c -181.97,0 -330,-148.04 -330,-330 0,-181.96 148.03,-330 330,-330 181.96,0 330,148.04 330,330 0,181.96 -148.04,330 -330,330 z m 0,-694.87 c -201.2,0 -364.88,163.68 -364.88,364.87 0,201.19 163.68,364.87 364.88,364.87 201.19,0 364.86,-163.68 364.86,-364.87 0,-201.19 -163.67,-364.87 -364.86,-364.87 z"
         id="path388-2" />
    </clipPath>
    <clipPath
       clipPathUnits="userSpaceOnUse"
       id="clipPath463-5">
      <path
         d="m 4482,6927.17 c -106.06,0 -192.35,-86.29 -192.35,-192.35 0,-106.06 86.29,-192.35 192.35,-192.35 106.06,0 192.35,86.29 192.35,192.35 0,106.06 -86.29,192.35 -192.35,192.35 z m 0,-417.5 c -124.15,0 -225.15,101 -225.15,225.15 0,124.14 101,225.15 225.15,225.15 124.15,0 225.15,-101.01 225.15,-225.15 0,-124.15 -101,-225.15 -225.15,-225.15 z"
         id="path463-0" />
    </clipPath>
    <clipPath
       clipPathUnits="userSpaceOnUse"
       id="clipPath466-2">
      <path
         d="m 4514.41,6793.19 c -2.18,0 -4.4,0.44 -6.53,1.37 -8.3,3.61 -12.11,13.27 -8.5,21.57 l 21.67,49.84 c 3.61,8.31 13.28,12.12 21.58,8.5 8.31,-3.61 12.11,-13.27 8.5,-21.58 l -21.67,-49.83 c -2.69,-6.18 -8.72,-9.87 -15.05,-9.87 z"
         id="path466-2" />
    </clipPath>
    <clipPath
       clipPathUnits="userSpaceOnUse"
       id="clipPath469-9">
      <path
         d="m 4452.04,6794.19 c -6.54,0 -12.72,3.94 -15.27,10.4 l -19.91,50.57 c -3.32,8.42 0.82,17.95 9.25,21.27 8.43,3.31 17.95,-0.82 21.27,-9.25 l 19.91,-50.57 c 3.32,-8.43 -0.82,-17.95 -9.25,-21.27 -1.97,-0.77 -4.01,-1.15 -6,-1.15 z"
         id="path469-8" />
    </clipPath>
    <clipPath
       clipPathUnits="userSpaceOnUse"
       id="clipPath472-5">
      <path
         d="m 4407.14,6750.94 c -2.18,0 -4.4,0.45 -6.53,1.37 l -49.84,21.67 c -8.3,3.62 -12.11,13.28 -8.5,21.58 3.61,8.31 13.28,12.12 21.58,8.5 l 49.84,-21.67 c 8.31,-3.62 12.11,-13.27 8.5,-21.58 -2.69,-6.18 -8.72,-9.87 -15.05,-9.87 z"
         id="path472-9" />
    </clipPath>
    <clipPath
       clipPathUnits="userSpaceOnUse"
       id="clipPath475-3">
      <path
         d="m 4355.49,6668.55 c -6.54,0 -12.72,3.95 -15.26,10.4 -3.32,8.43 0.82,17.95 9.25,21.27 l 50.56,19.92 c 8.43,3.32 17.95,-0.82 21.27,-9.25 3.32,-8.43 -0.82,-17.95 -9.24,-21.27 l -50.57,-19.92 c -1.97,-0.78 -4.01,-1.15 -6.01,-1.15 z"
         id="path475-1" />
    </clipPath>
    <clipPath
       clipPathUnits="userSpaceOnUse"
       id="clipPath478-5">
      <path
         d="m 4427.71,6593.84 c -2.18,0 -4.4,0.44 -6.53,1.37 -8.3,3.6 -12.11,13.27 -8.5,21.57 l 21.68,49.84 c 3.61,8.31 13.27,12.11 21.58,8.5 8.3,-3.61 12.11,-13.27 8.49,-21.58 l -21.67,-49.84 c -2.69,-6.18 -8.72,-9.86 -15.05,-9.86 z"
         id="path478-4" />
    </clipPath>
    <clipPath
       clipPathUnits="userSpaceOnUse"
       id="clipPath481-5">
      <path
         d="m 4531.7,6591.92 c -6.54,0 -12.73,3.94 -15.26,10.4 l -19.92,50.57 c -3.32,8.43 0.82,17.94 9.25,21.27 8.42,3.31 17.95,-0.82 21.27,-9.25 l 19.91,-50.57 c 3.32,-8.43 -0.82,-17.95 -9.24,-21.27 -1.98,-0.78 -4.01,-1.15 -6.01,-1.15 z"
         id="path481-2" />
    </clipPath>
    <clipPath
       clipPathUnits="userSpaceOnUse"
       id="clipPath484-8">
      <path
         d="m 4606.49,6664.25 c -2.18,0 -4.4,0.44 -6.52,1.37 l -49.84,21.67 c -8.31,3.61 -12.12,13.27 -8.5,21.58 3.61,8.3 13.27,12.11 21.57,8.49 l 49.84,-21.67 c 8.31,-3.61 12.12,-13.27 8.5,-21.58 -2.68,-6.18 -8.71,-9.86 -15.05,-9.86 z"
         id="path484-1" />
    </clipPath>
    <clipPath
       clipPathUnits="userSpaceOnUse"
       id="clipPath487-8">
      <path
         d="m 4557.76,6748.22 c -6.54,0 -12.72,3.94 -15.26,10.39 -3.32,8.43 0.82,17.95 9.25,21.27 l 50.56,19.91 c 8.43,3.32 17.95,-0.82 21.27,-9.25 3.32,-8.42 -0.82,-17.94 -9.24,-21.26 l -50.58,-19.92 c -1.97,-0.78 -4,-1.14 -6,-1.14 z"
         id="path487-4" />
    </clipPath>
  </defs>
  <sodipodi:namedview
     id="base"
     inkscape:pageopacity="0.0"
     inkscape:pageshadow="2"
     inkscape:zoom="3.959798"
     inkscape:cx="43.941635"
     inkscape:cy="25.632621"
     inkscape:document-units="px"
     inkscape:current-layer="SVGRoot"
     inkscape:document-rotation="0"
     showgrid="true"
     inkscape:window-width="1920"
     inkscape:window-height="1001"
     inkscape:window-x="-9"
     inkscape:window-y="-9"
     inkscape:window-maximized="1"
     inkscape:pagecheckerboard="0"
     inkscape:snap-grids="true"
     inkscape:snap-center="true"
     inkscape:snap-object-midpoints="true"
     inkscape:snap-midpoints="true"
     inkscape:snap-smooth-nodes="true"
     inkscape:snap-intersection-paths="true"
     inkscape:object-paths="true"
     inkscape:snap-bbox="true"
     inkscape:bbox-paths="true"
     inkscape:bbox-nodes="true"
     inkscape:snap-bbox-edge-midpoints="true"
     inkscape:snap-bbox-midpoints="true"
     inkscape:showpageshadow="2"
     inkscape:deskcolor="#d1d1d1"
     pagecolor="#ffffff"
     bordercolor="#000000"
     borderopacity="0.25">
    <inkscape:grid
       type="xygrid"
       id="grid2170"
       originx="0"
       originy="0"
       spacingy="1"
       spacingx="1"
       units="px"
       visible="true" />
  </sodipodi:namedview>
  <metadata
     id="metadata1603">
    <rdf:RDF>
      <cc:Work
         rdf:about="">
        <dc:format>image/svg+xml</dc:format>
        <dc:type
           rdf:resource="http://purl.org/dc/dcmitype/StillImage" />
        <dc:title>Flower Glyph</dc:title>
      </cc:Work>
    </rdf:RDF>
  </metadata>
  <g
     id="g2"
     style="display:inline"
     transform="matrix(0.19416579,0,0,0.19416579,30.000046,32.584701)">
    <path
       id="path9"
       style="display:inline;fill:#ffffff;fill-opacity:1"
       inkscape:label="path9"
       d="m 188.20508,0.01953125 -8.93555,0.02148437 -0.55859,0.26367188 c -1.06905,0.50639633 -2.20372,1.6299715 -2.10156,2.703125 0.0811,0.8518989 0.36308,1.5850758 0.72656,2.265625 h -0.82813 -20.68554 c -14.22977,0 -20.93492,0.028794 -21.48243,0.089844 -0.89986,0.1003411 -1.77878,0.3016107 -2.63476,0.6054688 -0.85599,0.3038581 -1.68929,0.7093485 -2.4961,1.2148438 -1.09093,0.6835183 -1.68209,0.9762857 -2.51367,1.2480468 -1.37806,0.4503512 -2.76307,0.5735744 -4.13281,0.3710938 -1.36963,-0.2028175 -2.72422,-0.7306656 -4.04102,-1.5800782 -1.23212,-0.7948011 -2.64811,-1.3820664 -4.1289,-1.7128906 L 113.59375,5.3300781 69.589844,5.265625 C 40.113312,5.22219 25.43641,5.2275903 25.132812,5.2832031 24.045956,5.4822933 22.975589,5.914425 22.001953,6.5273438 21.515488,6.8335804 21.052488,7.1860043 20.625,7.5761719 c -0.428256,0.3908684 -0.821445,0.8191102 -1.169922,1.28125 -0.582941,0.773079 -1.274725,2.2053361 -1.552734,3.2148441 l -0.226563,0.824218 -0.04102,15.779297 -4.71875,0.0039 c -5.0721,0.0031 -5.3493697,0.02218 -6.5937504,0.441406 C 4.8880975,29.604269 3.6948925,30.357187 2.625,31.457031 1.2892894,32.830135 0.46811741,34.386544 0.125,36.195312 0.01431051,36.77882 0,46.450581 0,122.86328 c 0,76.4127 0.01431051,86.08446 0.125,86.66797 0.34311741,1.80877 1.1642894,3.36518 2.5,4.73828 1.1821092,1.21521 2.6146252,2.0596 4.2734375,2.51758 l 0.8066406,0.22266 53.0253909,0.041 53.027341,0.041 0.82422,0.22656 c 1.23991,0.34029 2.29206,0.78333 3.25391,1.37109 1.85436,1.13315 2.88086,1.56142 4.26758,1.77735 1.49136,0.23222 3.08517,0.0996 4.49023,-0.3711 0.82025,-0.27481 1.44355,-0.59001 2.7793,-1.40625 0.96184,-0.58776 2.01596,-1.0308 3.25586,-1.37109 l 0.82421,-0.22656 53.0254,-0.041 53.02734,-0.041 0.80469,-0.22266 c 1.55347,-0.42888 2.88702,-1.18238 4.03515,-2.2793 1.43036,-1.36656 2.3822,-3.09019 2.73633,-4.95703 0.11564,-0.60974 0.12891,-9.16859 0.12891,-86.6875 0,-76.412698 -0.0143,-86.08446 -0.125,-86.667968 -0.23983,-1.264297 -0.76219,-2.489389 -1.54102,-3.61914 -0.48325,-0.700997 -1.62655,-1.827825 -2.36328,-2.328125 -0.72814,-0.494473 -1.88847,-1.0288 -2.81445,-1.296875 l -0.7793,-0.226563 -5.00586,-0.02734 -5.00586,-0.0293 -0.0664,-15.771485 -0.20899,-0.80664 c -0.20632,-0.790662 -0.51108,-1.53718 -0.90234,-2.2285159 -0.39126,-0.6913354 -0.86899,-1.3264623 -1.42188,-1.8945312 -0.55289,-0.568069 -1.18182,-1.0693723 -1.87304,-1.4902344 -0.69122,-0.4208621 -1.44571,-0.762004 -2.25196,-1.0117187 l -0.73242,-0.2265626 -2.63672,-0.00391 c -1.4503,-0.00147 -6.39162,0.0082 -10.98047,0.019531 l -8.34375,0.019531 h -0.52734 c 0.4138,-0.7476766 0.61191,-1.5624185 0.44922,-2.4550781 l -0.16602,-0.4394532 c -0.38942,-1.0248659 -1.25914,-1.87859881 -2.25195,-2.20898432 -0.51867,-0.17260376 -0.56357,-0.17232964 -9.45703,-0.15039063 z" />
    <path
       style="display:inline;fill:#7fdfd2;fill-opacity:1"
       d="m 122.61628,202.8673 c 1e-5,-0.0281 -0.22608,-0.0767 -0.50243,-0.10801 -0.27636,-0.0313 -0.81031,-0.14605 -1.18657,-0.25509 -0.37625,-0.10903 -0.73418,-0.20876 -0.79539,-0.22161 -0.0612,-0.0128 -0.12983,-0.0444 -0.15249,-0.0702 -0.0531,-0.0603 -1.08914,-0.54108 -1.18564,-0.55022 -0.0403,-0.004 -0.0959,-0.0388 -0.1236,-0.0777 -0.0794,-0.11139 -0.53816,-0.39398 -0.60664,-0.37368 -0.034,0.0101 -0.0618,-0.0187 -0.0618,-0.0641 0,-0.0453 -0.053,-0.0824 -0.11771,-0.0824 -0.0648,0 -0.16972,-0.052 -0.23327,-0.11555 -0.13456,-0.13456 -1.29708,-0.73184 -1.29708,-0.66642 0,0.0243 -0.0907,-0.0153 -0.20167,-0.088 -0.11091,-0.0727 -0.22216,-0.12915 -0.24721,-0.1255 -0.025,0.004 -0.0641,0.002 -0.0867,-0.004 -0.0227,-0.006 -0.0783,-0.0196 -0.1236,-0.0309 -0.0453,-0.0113 -0.10095,-0.0299 -0.12361,-0.0412 -0.0227,-0.0113 -0.0783,-0.0299 -0.1236,-0.0412 -0.0453,-0.0113 -0.0917,-0.0281 -0.10301,-0.0372 -0.0113,-0.009 -0.0855,-0.0323 -0.1648,-0.0515 -0.0793,-0.0192 -0.2091,-0.0506 -0.28841,-0.0698 -0.0793,-0.0192 -0.14421,-0.0425 -0.14421,-0.0517 0,-0.009 -0.0742,-0.028 -0.16481,-0.0417 -0.0906,-0.0137 -0.25751,-0.0473 -0.37081,-0.0748 -0.2169,-0.0526 -0.48549,-0.10144 -1.03005,-0.18727 -0.18128,-0.0286 -19.79742,-0.0646 -43.591411,-0.08 -23.793992,-0.0154 -43.428669,-0.045 -43.632618,-0.0658 -0.203948,-0.0207 -0.48206,-0.0593 -0.618026,-0.0856 -0.135965,-0.0263 -0.303484,-0.0565 -0.372264,-0.0672 -0.06878,-0.0106 -0.161483,-0.0416 -0.206008,-0.0689 -0.09557,-0.0585 -0.786007,-0.26347 -0.904989,-0.26867 -0.04532,-0.002 -0.100945,-0.0277 -0.123606,-0.0572 -0.02266,-0.0295 -0.115364,-0.0665 -0.206008,-0.0824 -0.09064,-0.0159 -0.183348,-0.0519 -0.206009,-0.08 -0.0681,-0.0846 -1.107593,-0.60087 -1.174249,-0.58321 -0.03399,0.009 -0.0618,-0.0164 -0.0618,-0.0566 0,-0.0401 -0.09727,-0.13666 -0.216155,-0.21456 -0.118884,-0.0779 -0.187643,-0.0955 -0.152796,-0.0391 0.03485,0.0564 -0.09448,-0.0507 -0.287399,-0.23789 -0.192915,-0.18721 -0.392998,-0.31626 -0.444628,-0.28676 -0.05163,0.0295 -0.07406,0.031 -0.04983,0.003 0.02422,-0.0277 -0.237825,-0.34502 -0.582325,-0.70513 -0.344499,-0.36012 -0.817016,-0.94596 -1.050037,-1.30189 -0.233022,-0.35592 -0.460077,-0.68953 -0.504568,-0.74136 -0.04449,-0.0518 -0.0584,-0.11671 -0.03091,-0.1442 0.02749,-0.0275 0.0045,-0.05 -0.05102,-0.05 -0.05555,0 -0.07808,-0.0371 -0.05007,-0.0824 0.02801,-0.0453 0.0095,-0.0824 -0.0412,-0.0824 -0.05067,0 -0.06921,-0.0371 -0.0412,-0.0824 0.02801,-0.0453 0.0095,-0.0824 -0.0412,-0.0824 -0.05067,0 -0.07106,-0.0341 -0.04531,-0.0758 0.02575,-0.0417 1.29e-4,-0.1251 -0.05694,-0.18541 -0.05707,-0.0603 -0.105302,-0.14673 -0.107185,-0.19205 -0.0019,-0.0453 -0.110226,-0.41613 -0.240763,-0.82403 -0.130537,-0.4079 -0.248924,-0.8158 -0.263082,-0.90644 -0.01416,-0.0906 -0.04843,-0.27605 -0.07617,-0.41202 -0.02774,-0.13596 -0.06398,-2.86146 -0.08055,-6.05665 l -0.03013,-5.80944 0.154071,0.71814 c 0.212369,0.98988 0.377741,1.46806 0.806073,2.33079 0.491615,0.99018 0.990203,1.67781 1.79247,2.4721 1.131577,1.12032 2.62215,1.97264 4.222513,2.41447 l 0.805687,0.22244 43.921029,0.0431 43.921033,0.0431 0.79236,0.18298 c 1.62774,0.37588 2.76953,0.84386 4.12026,1.68876 0.47059,0.29436 1.05077,0.63333 1.2893,0.75325 1.10827,0.55723 2.83216,0.95486 4.13971,0.95486 1.31,0 3.03962,-0.39955 4.13971,-0.95629 0.23852,-0.12071 0.78595,-0.44352 1.21651,-0.71735 1.34069,-0.85266 2.52805,-1.34267 4.16137,-1.71734 l 0.82404,-0.18903 43.92103,-0.043 43.92103,-0.043 0.80568,-0.22244 c 3.28316,-0.90641 5.86879,-3.48585 6.69363,-6.6776 l 0.19731,-0.76348 0.0199,5.27382 c 0.0208,5.51127 0.021,5.48597 -0.0587,6.01545 -0.0273,0.18129 -0.0602,0.40378 -0.0732,0.49442 -0.013,0.0906 -0.0464,0.22043 -0.0744,0.28841 -0.028,0.068 -0.0642,0.19777 -0.0804,0.28841 -0.0163,0.0907 -0.0661,0.25752 -0.11074,0.37082 -0.21203,0.53807 -0.44259,1.20136 -0.43784,1.2596 0.003,0.0356 -0.052,0.12203 -0.12202,0.19205 -0.07,0.07 -0.10623,0.16139 -0.0805,0.20306 0.0257,0.0417 0.0155,0.0758 -0.0227,0.0758 -0.099,0 -0.3585,0.4607 -0.29513,0.52406 0.029,0.029 0.0125,0.0528 -0.0367,0.0528 -0.10986,0 -0.483,0.5864 -0.4457,0.70043 0.0148,0.0453 8.2e-4,0.0563 -0.0311,0.0243 -0.0319,-0.0319 -0.24214,0.15957 -0.46711,0.42559 -0.22496,0.26602 -0.62668,0.66773 -0.8927,0.8927 -0.26602,0.22497 -0.45754,0.43802 -0.42559,0.47346 0.0319,0.0354 0.0164,0.0406 -0.0346,0.0116 -0.051,-0.0291 -0.19089,0.0382 -0.31097,0.14947 -0.12009,0.1113 -0.23677,0.20192 -0.2593,0.2014 -0.0835,-0.002 -1.15216,0.61668 -1.21051,0.70077 -0.0333,0.048 -0.0611,0.0614 -0.0618,0.0297 -0.002,-0.0841 -0.49568,0.10177 -0.49568,0.1866 0,0.0395 -0.0556,0.0504 -0.12361,0.0243 -0.068,-0.0261 -0.1236,-0.008 -0.1236,0.0412 0,0.0488 -0.0556,0.0673 -0.12361,0.0412 -0.068,-0.0261 -0.1236,-0.004 -0.1236,0.0486 0,0.0528 -0.034,0.0751 -0.0755,0.0494 -0.0415,-0.0257 -0.18058,-0.004 -0.30901,0.048 -0.12844,0.0521 -0.28915,0.10561 -0.35713,0.11902 -0.33389,0.0658 -0.6529,0.11542 -1.00176,0.15577 -0.21105,0.0244 -19.84573,0.056 -43.63262,0.0702 -23.78688,0.0142 -43.39721,0.0491 -43.5785,0.0777 -0.55903,0.0881 -0.81579,0.13519 -1.03004,0.18912 -0.11331,0.0285 -0.27017,0.0507 -0.34859,0.0494 -0.0784,-10e-4 -0.16442,0.0328 -0.1911,0.076 -0.0267,0.0432 -0.0799,0.0591 -0.11832,0.0354 -0.0384,-0.0237 -0.17488,3.8e-4 -0.30332,0.0536 -0.12843,0.0532 -0.26133,0.10443 -0.29532,0.11389 -0.034,0.009 -0.0804,0.0265 -0.10301,0.0378 -0.0227,0.0113 -0.069,0.0284 -0.103,0.038 -0.034,0.01 -0.13597,0.0454 -0.22661,0.0796 -0.0906,0.0342 -0.23897,0.0901 -0.32961,0.12415 -0.23784,0.0895 -1.37171,0.64572 -1.56431,0.76742 -0.0899,0.0568 -0.33093,0.21378 -0.53562,0.34884 -0.39635,0.26151 -1.28451,0.71323 -1.47637,0.75089 -0.0635,0.0124 -0.13761,0.0529 -0.16481,0.0899 -0.0272,0.037 -0.0865,0.0695 -0.13186,0.0721 -0.22445,0.0132 -1.11244,0.32001 -1.11244,0.38433 0,0.0406 -0.0342,0.0526 -0.0759,0.0268 -0.0819,-0.0506 -1.25686,0.12582 -1.32495,0.19895 -0.0579,0.0622 -1.97775,0.0555 -1.97771,-0.007 z M 40.439148,172.7932 c -1.312049,-0.31032 -2.136454,-1.40471 -2.136454,-2.83612 0,-0.94324 0.225439,-1.51059 0.841235,-2.1171 0.395233,-0.38927 0.572156,-0.49805 1.040392,-0.63968 l 0.564176,-0.17065 33.004311,0.0217 33.004312,0.0216 0.54744,0.26951 c 0.62708,0.30871 0.98892,0.68139 1.29483,1.3336 0.18619,0.39696 0.21434,0.56543 0.21434,1.28275 0,0.76727 -0.0192,0.8648 -0.27127,1.3768 -0.31777,0.64549 -0.75427,1.05355 -1.41146,1.31952 l -0.45976,0.18606 -32.96137,0.0126 c -18.962365,0.007 -33.092756,-0.0185 -33.270722,-0.0606 z m 100.007902,-0.0269 c -0.86378,-0.21016 -1.44139,-0.69186 -1.83705,-1.53199 -0.18886,-0.40103 -0.21284,-0.55286 -0.20828,-1.31846 0.004,-0.70025 0.0388,-0.93939 0.18141,-1.25415 0.26018,-0.57411 0.76637,-1.07742 1.35871,-1.351 l 0.51481,-0.23777 33.00257,-0.0216 c 32.8341,-0.0215 33.00537,-0.0208 33.54933,0.1437 0.69095,0.20897 1.28511,0.71967 1.61219,1.38572 0.21028,0.42821 0.23076,0.55037 0.23076,1.37635 0,0.75513 -0.0297,0.97076 -0.17807,1.29173 -0.26573,0.57498 -0.77792,1.08246 -1.3672,1.35462 l -0.51482,0.23777 -32.96137,0.0139 c -26.05369,0.0109 -33.04973,-0.008 -33.38299,-0.0887 z M 40.596091,155.1616 c -1.559068,-0.2616 -2.508645,-1.66495 -2.269605,-3.35417 0.14254,-1.00728 0.610225,-1.68143 1.454972,-2.0973 l 0.551558,-0.27153 h 33.251517 33.251517 l 0.46991,0.23076 c 1.05249,0.51684 1.6155,1.57318 1.52696,2.86494 -0.0987,1.43987 -0.96645,2.39821 -2.37907,2.62743 -0.63566,0.10314 -65.243034,0.10302 -65.857759,-1.3e-4 z m 100.087949,-0.004 c -0.94414,-0.15815 -1.67487,-0.70374 -2.06927,-1.54499 -0.1926,-0.41079 -0.21821,-0.56694 -0.21821,-1.33064 0,-0.71512 0.0312,-0.93268 0.17958,-1.25395 0.25224,-0.54598 0.85891,-1.16429 1.36847,-1.3947 l 0.42964,-0.19427 h 33.24978 33.24979 l 0.46034,0.21588 c 0.58515,0.27441 1.02705,0.71631 1.30146,1.30146 0.19226,0.40997 0.21575,0.55953 0.2147,1.36678 -0.001,0.79337 -0.0264,0.95783 -0.20301,1.31845 -0.27942,0.5704 -0.88777,1.14153 -1.46353,1.37398 l -0.47477,0.19169 -32.79657,0.0113 c -18.49939,0.006 -32.98481,-0.0202 -33.2284,-0.061 z M 40.254077,137.41681 c -1.083281,-0.34152 -1.765594,-1.15076 -1.926001,-2.28429 -0.206712,-1.46075 0.45945,-2.71769 1.707871,-3.22247 l 0.46534,-0.18816 32.714163,-0.0234 c 23.203443,-0.0166 32.86667,0.003 33.23876,0.0659 1.43746,0.24454 2.27898,1.17496 2.37871,2.63002 0.0885,1.29176 -0.47447,2.3481 -1.52696,2.86494 l -0.46991,0.23076 -33.12618,0.0153 c -26.460811,0.0122 -33.192502,-0.006 -33.455793,-0.0886 z m 100.108053,-0.38435 c -0.68159,-0.2168 -1.24366,-0.72552 -1.56103,-1.41285 -0.21145,-0.45793 -0.23973,-0.61154 -0.23973,-1.30201 0,-0.68903 0.0285,-0.84452 0.23777,-1.29765 0.27217,-0.58928 0.77964,-1.10147 1.35462,-1.36721 l 0.38529,-0.17806 h 15.45065 15.45064 l 0.37335,0.18599 c 0.57955,0.28871 0.93407,0.62421 1.21192,1.14689 0.83258,1.56619 0.28679,3.4364 -1.20733,4.13707 l -0.46034,0.21589 -15.24464,0.0165 c -14.92473,0.0162 -15.25526,0.0131 -15.75117,-0.14459 z M 40.142153,119.7221 c -0.41584,-0.13189 -0.621995,-0.26275 -0.99919,-0.63426 -0.614758,-0.6055 -0.840269,-1.17344 -0.840269,-2.11616 0,-1.24261 0.558126,-2.16448 1.602461,-2.64684 l 0.513728,-0.23728 h 33.169115 33.169112 l 0.54744,0.2695 c 0.62709,0.30871 0.98893,0.68138 1.29484,1.3336 0.1861,0.39677 0.21434,0.56556 0.21434,1.28102 0,0.71545 -0.0282,0.88425 -0.21434,1.28101 -0.30591,0.65221 -0.66775,1.02489 -1.29483,1.3336 l -0.54744,0.26951 -33.045513,0.0162 c -32.930223,0.0162 -33.047341,0.0157 -33.569454,-0.14993 z m 100.333817,0.0852 c -1.29231,-0.30447 -2.12061,-1.40774 -2.12061,-2.82461 0,-1.41953 0.8734,-2.5741 2.15517,-2.84899 0.28001,-0.0601 5.98646,-0.0874 18.24374,-0.0874 h 17.83629 v 2.92533 2.92532 l -17.90215,-0.008 c -10.09522,-0.005 -18.03746,-0.0402 -18.21244,-0.0814 z m 59.68197,-2.83566 v -2.93395 l 3.31673,0.0249 3.31674,0.0249 0.51482,0.23776 c 0.58928,0.27217 1.10147,0.77965 1.3672,1.35463 0.14835,0.32097 0.17807,0.53659 0.17807,1.29173 0,0.82598 -0.0205,0.94814 -0.23076,1.37635 -0.27731,0.56471 -0.89534,1.14617 -1.43839,1.35329 -0.3488,0.13303 -0.74846,0.15208 -3.70768,0.1767 l -3.31673,0.0276 z M 40.546222,102.17265 c -1.548262,-0.3035 -2.453568,-1.67186 -2.218488,-3.353215 0.136816,-0.978539 0.691098,-1.748296 1.548401,-2.150333 L 40.33648,96.45322 h 33.249785 33.249785 l 0.46989,0.230737 c 1.05247,0.516804 1.61552,1.573205 1.52698,2.864962 -0.097,1.415931 -0.92692,2.373731 -2.27881,2.630111 -0.55499,0.10525 -65.470422,0.099 -66.007888,-0.006 z m 100.198838,0.0331 c -0.96406,-0.16138 -1.67265,-0.66805 -2.07378,-1.48285 -0.25859,-0.52528 -0.27472,-0.60894 -0.27472,-1.425009 0,-0.714682 0.0313,-0.934647 0.17807,-1.25226 0.2522,-0.545706 0.79235,-1.097736 1.33474,-1.364095 l 0.46488,-0.228296 18.10815,-0.02133 18.10816,-0.02133 v 2.92605 2.92605 l -17.81975,-0.0112 c -9.80086,-0.006 -17.91244,-0.0267 -18.02575,-0.0457 z m 59.41288,-2.866734 v -2.933927 l 3.35794,0.02407 3.35794,0.02408 0.45322,0.215304 c 0.24927,0.118417 0.59736,0.359447 0.77353,0.535622 0.17618,0.176175 0.41721,0.524267 0.53563,0.773538 0.19161,0.403363 0.2153,0.55293 0.2153,1.359656 0,0.826431 -0.0204,0.948001 -0.23124,1.377331 -0.28249,0.57527 -0.82214,1.06689 -1.44591,1.31724 -0.45171,0.1813 -0.56127,0.18756 -3.74088,0.21389 l -3.27553,0.0271 z M 40.200035,84.431292 c -1.223394,-0.437869 -1.906873,-1.428393 -1.90654,-2.763031 3.52e-4,-1.409044 0.783348,-2.491046 2.042985,-2.823151 0.337696,-0.08903 6.350302,-0.108628 33.332188,-0.108628 h 32.920172 l 0.49025,0.197476 c 0.62,0.249738 1.21289,0.800185 1.50703,1.399128 0.20599,0.419444 0.22718,0.545691 0.22311,1.328718 -0.004,0.704778 -0.0376,0.93796 -0.18279,1.257389 -0.24821,0.545917 -0.84843,1.159596 -1.36076,1.391258 l -0.42963,0.194271 -33.167382,0.0172 c -27.149376,0.01408 -33.222041,-0.0024 -33.468633,-0.09063 z m 99.850845,-0.08997 c -0.60111,-0.247117 -1.20568,-0.823042 -1.46406,-1.394695 -0.15916,-0.352126 -0.1897,-0.558706 -0.18995,-1.284825 -2.7e-4,-0.761759 0.0255,-0.920291 0.21558,-1.325582 0.40743,-0.868812 1.16752,-1.408765 2.19153,-1.556833 0.35146,-0.05082 7.10073,-0.08145 18.17284,-0.08248 l 17.61374,-0.0016 v 2.925322 2.925322 l -18.02576,-0.002 -18.02575,-0.002 z m 60.10706,-2.717283 V 78.69528 l 2.86352,0.0016 c 1.57493,8.98e-4 3.11393,0.03785 3.42,0.08211 1.02739,0.14857 1.78418,0.671121 2.20588,1.523129 0.18124,0.366167 0.20395,0.517472 0.20405,1.359657 1e-4,0.870119 -0.0181,0.982068 -0.22194,1.36851 -0.32893,0.623471 -0.57723,0.880141 -1.15397,1.192859 l -0.51926,0.281549 -3.39914,0.02404 -3.39914,0.02404 z M 79.148497,66.796543 c -0.882119,-0.281037 -1.379148,-0.70556 -1.746612,-1.491821 -0.205158,-0.438975 -0.230948,-0.58683 -0.229977,-1.318455 9.53e-4,-0.718711 0.02919,-0.884283 0.220931,-1.29541 0.28451,-0.610043 0.851019,-1.156707 1.449036,-1.398277 l 0.471429,-0.190433 h 13.637768 c 13.022318,0 13.657368,0.0068 14.072078,0.151389 0.67785,0.236284 1.1954,0.696249 1.51586,1.347196 0.25596,0.519922 0.27472,0.614433 0.27472,1.383802 0,0.732748 -0.0263,0.882632 -0.23328,1.33058 -0.28906,0.625508 -0.69057,1.024601 -1.33238,1.324357 l -0.49442,0.230916 -13.637772,0.01558 c -10.856389,0.01241 -13.704991,-0.0058 -13.967381,-0.08943 z m 61.048823,-0.05477 c -0.65168,-0.20657 -1.25611,-0.738272 -1.56783,-1.37917 -0.20486,-0.421198 -0.22877,-0.55971 -0.23073,-1.336573 -0.002,-0.815667 0.0138,-0.899129 0.26908,-1.418 0.31776,-0.645802 0.75403,-1.053747 1.41146,-1.319812 l 0.45975,-0.186067 18.02575,-0.02151 18.02576,-0.02151 v 2.926234 2.926233 l -17.94335,-0.0046 c -17.55023,-0.0045 -17.95445,-0.0081 -18.44989,-0.165191 z m 59.96062,-2.751235 v -2.929589 l 3.06952,0.0013 c 3.31806,0.0014 3.68998,0.03851 4.36823,0.436 0.84685,0.496282 1.23077,1.205729 1.27952,2.36443 0.0279,0.662402 0.005,0.858252 -0.15166,1.273085 -0.2328,0.618246 -0.77359,1.206153 -1.38625,1.507028 l -0.46348,0.227612 -3.35794,0.02487 -3.35794,0.02487 z M 63.368239,63.095246 c 0,-0.01418 0.120515,-0.134697 0.267812,-0.267811 l 0.267811,-0.242027 -0.242027,0.267812 c -0.225602,0.249637 -0.293596,0.305688 -0.293596,0.242026 z M 79.47811,49.22182 c -1.024391,-0.233294 -1.636836,-0.680527 -2.032576,-1.484273 -0.256064,-0.520065 -0.27472,-0.614134 -0.27472,-1.385245 0,-0.767835 0.01937,-0.866655 0.269504,-1.375021 0.308664,-0.627316 0.681244,-0.989147 1.333603,-1.295129 l 0.456979,-0.21434 h 13.761373 13.761377 l 0.49442,0.230916 c 0.64181,0.299756 1.04332,0.698849 1.33238,1.324357 0.207,0.447947 0.23328,0.597832 0.23328,1.33058 0,0.767664 -0.0191,0.86463 -0.27191,1.378102 -0.31174,0.633236 -0.76269,1.0501 -1.43339,1.325057 l -0.43719,0.179228 -13.51416,0.01165 c -7.432789,0.0064 -13.588326,-0.0052 -13.67897,-0.02588 z m 60.96894,-0.0609 c -0.86333,-0.209518 -1.44132,-0.691447 -1.83705,-1.531733 -0.18886,-0.401026 -0.21284,-0.552859 -0.20828,-1.318455 0.004,-0.693844 0.0392,-0.94037 0.17728,-1.244533 0.33924,-0.747523 0.94519,-1.268143 1.75636,-1.509035 0.39528,-0.117384 2.24581,-0.130552 18.34741,-0.130552 h 17.90779 v 2.925322 2.925322 l -17.86095,-0.007 c -13.92397,-0.0055 -17.95388,-0.02956 -18.28256,-0.109328 z m 59.71089,-2.803907 V 43.42661 h 3.16385 c 2.96943,0 3.19788,0.01051 3.71758,0.17103 0.74072,0.228785 1.41575,0.869643 1.686,1.600644 0.26582,0.719037 0.21803,1.868759 -0.10513,2.52928 -0.27224,0.556447 -0.73836,0.997181 -1.36572,1.291341 l -0.46311,0.217147 -3.31674,0.02568 -3.31673,0.02568 z M 79.502837,31.553946 c -0.626964,-0.09194 -1.190892,-0.390106 -1.621644,-0.857417 -0.478514,-0.519126 -0.677071,-1.001494 -0.729977,-1.773384 -0.0881,-1.285308 0.477041,-2.343129 1.527366,-2.858909 l 0.469915,-0.230759 h 13.843776 13.843777 l 0.46991,0.230759 c 1.05249,0.51684 1.6155,1.573184 1.52696,2.86494 -0.0982,1.4328 -0.97338,2.399342 -2.37907,2.627432 -0.63927,0.103731 -26.242727,0.101201 -26.951013,-0.0027 z m 61.178463,-0.0027 c -0.91581,-0.15252 -1.68339,-0.72733 -2.06885,-1.549301 -0.18783,-0.400517 -0.21589,-0.56744 -0.21589,-1.28438 0,-0.61625 0.0401,-0.927866 0.1588,-1.235812 0.20802,-0.539406 0.84849,-1.209466 1.39024,-1.454462 l 0.42865,-0.193846 18.10815,-0.02133 18.10816,-0.02133 v 2.926051 2.92605 l -17.73734,-0.0096 c -9.75554,-0.0053 -17.9329,-0.0422 -18.17192,-0.08201 z m 59.47664,-2.833681 v -2.925322 l 3.27553,0.002 c 3.24171,0.0019 3.28037,0.0039 3.74346,0.194412 0.66956,0.275392 1.07132,0.627569 1.39328,1.221338 0.27377,0.504899 0.28129,0.544121 0.28118,1.466414 -1e-4,0.842185 -0.0228,0.99349 -0.20405,1.359657 -0.41542,0.839317 -1.15122,1.360836 -2.14434,1.519856 -0.29705,0.04757 -1.8294,0.08604 -3.44034,0.08639 l -2.90472,6.23e-4 z"
       id="path6" />
    <path
       style="display:inline;fill:#004d42;fill-opacity:1"
       d="m 122.1042,220.46622 c -1.38672,-0.21593 -2.41293,-0.64309 -4.26729,-1.77624 -0.96185,-0.58776 -2.01503,-1.03169 -3.25494,-1.37198 l -0.82403,-0.22615 -53.02661,-0.0412 -53.0266091,-0.0412 -0.8056871,-0.22243 C 5.2402181,216.32904 3.8067297,215.48479 2.6246181,214.26958 1.2889049,212.89648 0.4677114,211.34007 0.12459331,209.5313 0.0139036,208.94779 0,199.27638 0,122.86352 0,46.450665 0.0139036,36.779247 0.12459331,36.195739 0.4677114,34.386967 1.2889049,32.830565 2.6246181,31.457459 3.6945128,30.357613 4.887586,29.60338 6.3217621,29.12021 7.5661452,28.70098 7.8446286,28.682361 12.916738,28.67927 l 4.717596,-0.0029 v 81.11538 c 0,70.98139 0.01513,81.20214 0.121083,81.80973 0.648752,3.72022 3.321871,6.55639 7.15253,7.58882 l 0.678319,0.18281 43.879827,0.0439 43.879827,0.0438 0.76448,0.17777 c 1.5266,0.35499 2.83175,0.89259 4.02448,1.65768 0.94611,0.60691 2.09037,1.12602 3.03937,1.37883 0.65531,0.17458 1.07711,0.22806 2.06008,0.26122 2.23833,0.0755 3.78805,-0.35792 5.80944,-1.62476 1.30348,-0.81691 2.51232,-1.31774 4.02138,-1.66609 l 0.79923,-0.18449 43.87982,-0.0439 43.87983,-0.0439 0.66562,-0.17978 c 1.92014,-0.51863 3.29103,-1.29576 4.57858,-2.59548 1.34512,-1.35783 2.25077,-3.11811 2.57442,-5.00381 0.1222,-0.712 0.13331,-7.53541 0.13331,-81.85134 V 28.668141 l 5.00601,0.02869 5.00601,0.02869 0.77995,0.225798 c 0.92598,0.268075 2.08641,0.80303 2.81455,1.297503 0.73673,0.500302 1.87954,1.625613 2.36279,2.326612 0.77883,1.129753 1.3006,2.356005 1.54043,3.620306 0.11069,0.583508 0.1246,10.254926 0.1246,86.66778 0,77.51907 -0.0127,86.07778 -0.12834,86.68752 -0.35413,1.86684 -1.30548,3.59061 -2.73584,4.95717 -1.14813,1.09692 -2.48139,1.84992 -4.03486,2.2788 l -0.80568,0.22243 -53.02661,0.0412 -53.02661,0.0412 -0.82404,0.22615 c -1.2399,0.34029 -2.29309,0.78422 -3.25493,1.37198 -1.33575,0.81624 -1.9591,1.13169 -2.77935,1.4065 -1.40506,0.47074 -2.99846,0.60196 -4.48984,0.36974 z m 55.15316,-83.36021 c -0.15446,-0.10599 -0.35841,-0.2974 -0.45322,-0.42535 l -0.17238,-0.23265 -0.0412,-66.514135 c -0.0227,-36.582773 -0.0143,-66.6995402 0.0186,-66.9261496 0.15485,-1.0668287 1.03353,-2.19631576 2.10258,-2.70271311 l 0.55693,-0.26381057 8.93602,-0.022044 c 8.89348,-0.02193905 8.93851,-0.02121837 9.45718,0.15138573 0.99281,0.33038619 1.86293,1.18352055 2.25235,2.20838865 l 0.16669,0.4386908 -0.004,66.7497601 c -0.004,61.136907 -0.0152,66.773227 -0.13645,67.028867 -0.0728,0.1535 -0.24499,0.35924 -0.38255,0.45719 -0.28709,0.20443 -1.01814,0.29658 -1.27257,0.16041 -0.0912,-0.0488 -1.8798,-1.55039 -3.97473,-3.33688 -2.50869,-2.13935 -3.9644,-3.32429 -4.26433,-3.47115 -0.72775,-0.35634 -1.5493,-0.49119 -2.26109,-0.37114 -1.06335,0.17936 -1.4048,0.42325 -5.52883,3.94919 l -3.80225,3.25083 -0.45795,0.032 c -0.37788,0.0264 -0.50706,-0.002 -0.73879,-0.16069 z M 43.904359,63.78596 c -0.667796,-0.21352 -1.11579,-0.498271 -1.615953,-1.027119 -0.485643,-0.513496 -0.875602,-1.266558 -1.00258,-1.93611 -0.05561,-0.293233 -0.0825,-6.226333 -0.07936,-17.510373 0.0044,-15.858405 0.01478,-17.105264 0.146318,-17.609177 0.354763,-1.359014 1.4021,-2.392962 2.790182,-2.754511 0.718491,-0.187143 16.978378,-0.184021 17.697929,0.0034 1.101643,0.286942 1.961049,1.001259 2.488435,2.068328 l 0.316163,0.639696 0.02153,17.576648 0.02154,17.576648 -0.172058,0.510748 c -0.401203,1.190953 -1.262201,2.050349 -2.457634,2.453062 -0.489046,0.164747 -0.658013,0.167785 -9.091464,0.163436 -8.081661,-0.0042 -8.621127,-0.01338 -9.063047,-0.154674 z"
       id="path2" />
  </g>
</svg>
